<svg width="332" height="309" viewBox="0 0 332 309" fill="none" xmlns="http://www.w3.org/2000/svg">
<path fill-rule="evenodd" clip-rule="evenodd" d="M77.0828 169.748C77.4865 171.697 77.0349 173.732 76.2964 175.58C76.4814 175.756 76.6664 175.933 76.8514 176.109C80.5466 173.232 84.2995 170.296 86.9862 166.46C88.1181 164.844 86.7809 162.485 84.9682 161.707C83.1555 160.928 81.0943 161.168 79.1233 161.085C76.7516 160.984 74.402 160.388 72.2698 159.344C69.1742 157.829 66.3334 155.33 62.8873 155.279C62.5069 155.273 62.0995 155.308 61.8006 155.543C61.0717 156.117 61.517 157.285 62.0644 158.035C64.7813 161.752 68.8541 164.455 73.3349 165.515C75.2716 165.973 76.679 167.8 77.0828 169.748Z" fill="#7737FF"/>
<path fill-rule="evenodd" clip-rule="evenodd" d="M136.529 226.525L87.5414 237.459C77.5289 239.693 67.6008 233.388 65.3662 223.376C64.2891 218.55 65.1807 213.493 67.8433 209.327L94.8719 167.033C103.193 154.012 105.979 138.212 102.613 123.131L91.6799 74.143C89.4453 64.1306 95.7505 54.2024 105.763 51.9678C110.589 50.8908 115.645 51.7823 119.812 54.445L162.106 81.4736C175.126 89.7944 190.927 92.5805 206.008 89.2147L254.996 78.2815C265.008 76.047 274.936 82.3521 277.171 92.3646C278.248 97.1905 277.356 102.247 274.694 106.413L247.665 148.707C239.344 161.728 236.558 177.528 239.924 192.609L250.857 241.597C253.092 251.61 246.786 261.538 236.774 263.772C231.948 264.849 226.892 263.958 222.725 261.295L180.431 234.267C167.411 225.946 151.61 223.16 136.529 226.525Z" fill="#7737FF"/>
<path d="M308.827 207.454C308.827 207.454 89.2882 207.569 2.36776 207.454C-4.45459 192.581 4.12813 172.708 19.6326 167.478C14.7804 173.013 9.92809 178.549 5.07581 184.085C13.601 183.999 308.827 184.085 308.827 184.085V207.454Z" fill="white"/>
<path fill-rule="evenodd" clip-rule="evenodd" d="M238.021 207.486C129.016 207.529 50.4646 207.518 2.36793 207.454C-4.45443 192.581 162.827 198.844 226.259 198.844C289.692 198.844 260.346 207.478 238.021 207.486Z" fill="#E7EAEE"/>
<path fill-rule="evenodd" clip-rule="evenodd" d="M192.624 36.9518C193.399 36.0685 194.928 36.0032 195.775 36.8173C193.039 31.3972 185.032 29.7724 183.312 23.9493C181.11 16.4952 177.862 9.35092 173.693 2.79126C171.958 9.24045 168.644 15.2587 164.121 20.1725C162.944 20.1778 161.767 20.1831 160.591 20.1884C157.918 20.2004 155.221 20.215 152.61 20.7897C147.913 21.8237 143.703 24.6246 138.945 25.3216C139.297 24.8799 139.65 24.4382 140.002 23.9964C139.904 23.5406 139.244 23.332 138.902 23.6489C138.299 21.2513 136.357 19.3686 134.154 18.2463C131.952 17.1239 128.704 15.035 122.203 15.5845C130.09 24.4143 127.648 61.1735 129.588 68.1398C130.25 68.3165 130.757 67.593 131.187 67.0603C131.617 66.5275 132.622 66.2002 132.855 66.8445C134.471 71.3233 134.7 78.2152 139.653 80.8838C140.609 81.3988 141.177 80.4368 141.103 79.968C141.008 79.3693 141.727 78.908 142.327 78.999C142.926 79.0899 143.405 79.524 143.872 79.9099C151.751 86.4146 164.65 83.0617 172.537 89.5551C174.096 90.8382 175.469 92.5104 177.414 93.0504C178.575 93.3728 179.811 93.2457 180.997 93.0332C188.058 91.7678 194.344 87.5787 199.247 82.3439C204.151 77.1091 207.812 70.8497 211.221 64.5386C208.08 62.7602 204.778 60.8215 203.072 57.6409C201.728 55.1349 200.901 51.5428 198.074 51.2365C198.97 54.1491 199.867 57.0618 200.764 59.9744C201.092 61.0409 201.425 62.1532 201.251 63.2555C201.077 64.3579 200.235 65.4408 199.12 65.4967C197.608 65.5726 196.543 63.8608 195.041 63.6659C194.756 69.2995 192.593 74.8222 188.976 79.1504C187.72 80.6523 185.307 82.016 184.033 80.5298C185.966 77.4063 187.9 74.2827 189.833 71.1592C191.038 69.2126 192.275 67.1759 192.496 64.8973C192.716 62.6186 191.587 60.0338 189.396 59.3695C189.298 58.767 189.934 58.2496 190.544 58.2316C191.154 58.2136 191.716 58.5366 192.24 58.8492C194.19 60.0125 196.14 61.1758 198.091 62.3391C197.468 57.7144 196.196 53.1776 194.322 48.9038C196.138 48.7318 197.994 49.0092 199.679 49.7043C198.381 45.9498 196.002 42.5762 192.901 40.0937C191.983 39.3594 191.849 37.8351 192.624 36.9518Z" fill="white"/>
<path fill-rule="evenodd" clip-rule="evenodd" d="M153.675 26.9857C155.281 28.0492 156.549 29.6174 157.252 31.4115C157.471 31.9694 158.091 32.2385 158.51 32.6669C158.929 33.0953 158.999 34.0109 158.412 34.1306C158.155 34.1829 157.903 34.0415 157.678 33.9072C154.076 31.7561 149.695 30.0193 145.764 31.4885C146.411 31.8185 146.737 32.6655 146.479 33.3438C147.281 33.3727 148.029 33.7335 148.75 34.0871C149.384 34.3986 150.019 34.71 150.654 35.0215C150.587 35.2088 150.521 35.3962 150.454 35.5836C147.585 34.1225 144.08 33.9706 141.095 35.1779C142.087 35.3286 143.098 35.3562 144.097 35.2598C145.553 35.9938 147.01 36.7278 148.466 37.4619C148.79 37.6252 149.132 37.8047 149.314 38.1184C149.496 38.4321 149.427 38.9186 149.088 39.0479C146.456 36.7269 142.734 35.7006 139.285 36.3452C138.882 36.4204 138.607 35.859 138.778 35.4869C138.948 35.1147 139.358 34.9238 139.739 34.7737C141.651 34.021 143.667 33.534 145.712 33.3313C144.689 32.3831 143.505 31.61 142.225 31.0556C142.014 30.3348 143.054 29.6439 143.637 30.1175C148.065 29.2494 152.81 30.1108 156.65 32.4803C156.683 31.7269 156.124 31.0933 155.601 30.5498C153.967 28.8509 152.332 27.152 150.698 25.4531C153.56 25.8157 156.365 26.6214 158.983 27.8328C159.575 28.1067 160.159 28.4026 160.696 28.7739C162.716 30.1721 163.918 32.6732 163.747 35.1238C162.524 32.5379 160.587 30.2939 158.208 28.7053C156.848 27.7972 155.307 27.0902 153.675 26.9857V26.9857Z" fill="#E7EAEE"/>
<path fill-rule="evenodd" clip-rule="evenodd" d="M49.6507 149.206C45.5067 152.926 45.8685 159.507 47.3643 164.871C49.2885 171.771 52.5426 178.298 56.8952 183.988L5.07581 184.509L19.6326 167.902C4.12813 173.132 -4.45459 193.005 2.36776 207.878C89.2882 207.993 176.209 207.816 263.128 207.344C247.275 218.059 231.906 231.057 224.539 248.717C217.172 266.376 220.223 289.595 235.884 300.588C241.717 304.683 248.722 306.782 255.724 308.108C262.945 309.475 271.689 309.533 276.145 303.689C278.748 300.277 277.504 294.922 276.273 289.626C275.415 285.932 274.563 282.266 275.029 279.309C276.607 269.28 283.359 264.194 291.062 258.391C292.681 257.172 294.341 255.921 296.004 254.587C310.206 243.189 326.486 228.778 330.63 211.046C334.416 194.849 330.25 178.783 319.422 166.156C315.524 161.61 310.732 157.472 305.915 153.313C299.443 147.724 292.927 142.098 288.477 135.392C285.76 131.297 284.807 126.92 283.808 122.326L283.808 122.325L283.807 122.324L283.807 122.324C283.449 120.676 283.084 119 282.63 117.299C276.792 95.4545 255.978 84.2225 234.544 72.6569L234.544 72.6565C231.829 71.1918 229.105 69.7218 226.4 68.2242C213.996 61.3568 201.478 52.5664 197.495 38.8062C199.691 38.8918 200.505 35.5906 199.24 33.7933C198.299 32.4568 196.812 31.7047 195.329 30.9545C194.817 30.6959 194.307 30.4375 193.819 30.1555C189.29 27.5373 186.693 22.196 184.035 16.726C180.04 8.50812 175.904 0 164.862 0C164.446 2.78814 164.877 5.27207 165.28 7.59932C165.904 11.1959 166.463 14.4184 163.73 17.8113C155.905 16.9434 147.815 18.6547 141.011 22.6169C137.078 15.1493 127.102 11.9594 119.016 14.3771C120.04 15.666 120.647 16.3125 121.15 16.8485C122.214 17.9806 122.814 18.6192 125.899 23.7784C130.445 31.3797 127.565 59.3242 126.845 63.7424C126.126 68.1605 129.53 71.3004 132.644 69.1186C131.127 75.6672 136.592 81.9165 143.311 82.105C145.606 82.5143 147.032 83.6244 148.38 84.6736C149.218 85.3262 150.026 85.9552 150.994 86.3773C129.659 101.638 106.04 113.7 81.1686 122.038L80.731 122.184C76.0775 123.742 71.2131 125.37 67.9181 128.986C64.5196 132.716 63.7216 139.337 67.6763 142.471C65.2617 144.66 61.9571 145.256 58.6516 145.851C55.3595 146.444 52.0665 147.038 49.6507 149.206ZM270.054 178.74C266.203 182.378 258.665 182.568 253.367 182.547L184.669 182.266C182.684 179.628 183.912 175.575 186.476 173.497C189.039 171.419 192.491 170.86 195.781 170.599C206.4 169.758 217.2 171.284 227.17 175.033C229.97 175.531 232.096 171.999 231.419 169.237C230.743 166.475 228.39 164.499 226.203 162.682C219.146 156.819 212.225 150.217 208.913 141.66C205.477 132.787 206.474 122.319 211.522 114.253C203.047 121.294 201.266 134.236 205.072 144.576C208.878 154.916 217.237 162.959 226.294 169.235C221.347 170.249 216.212 169.119 211.129 168.001C204.97 166.646 198.887 165.307 193.308 167.821L192.158 136.444L189.177 163.947C188.955 165.992 188.311 168.522 186.29 168.902C180.804 169.934 177.551 177.119 180.396 181.923C177.944 183.577 174.204 182.837 172.567 180.374C170.931 177.91 171.698 174.175 174.173 172.556C180.176 168.63 180.651 160.17 180.487 152.998L179.36 103.483C179.333 102.287 179.604 100.716 180.788 100.551C198.121 98.1431 213.532 85.1192 218.797 68.4301C234.158 75.3112 249.522 83.2456 261.918 94.1726C290.284 119.179 282.503 139.971 280.468 145.41C280.111 146.363 279.931 146.845 280.153 146.796C281.567 146.479 282.238 144.887 282.63 143.491C283.545 140.232 284.141 136.882 284.406 133.507C289.087 142.204 296.541 148.812 304.01 155.433L304.01 155.434C310.836 161.485 317.675 167.548 322.421 175.227C329.74 187.07 331.272 202.311 326.456 215.374C320.768 230.804 307.693 241.598 294.798 252.244C291.699 254.802 288.611 257.352 285.638 259.955C279.415 265.405 273.154 272.156 272.953 280.425C272.899 282.641 273.295 284.825 273.691 287.012L273.691 287.012C273.972 288.558 274.252 290.106 274.374 291.668C274.669 295.439 273.739 299.729 270.545 301.757C269.199 302.612 267.597 302.964 266.018 303.192C249.65 305.556 229.6 294.48 224.931 278.615C220.35 263.047 228.392 243.84 238.959 231.524C245.523 223.872 254.017 218.404 262.539 212.918L262.54 212.918C267.735 209.573 272.941 206.222 277.727 202.364C282.212 198.75 286.641 194.853 289.479 189.841C292.317 184.828 293.336 178.456 290.787 173.29C288.698 169.057 284.58 166.118 280.542 163.235C275.465 159.611 270.515 156.076 269.883 150.174C269.961 152.826 271.08 155.797 272.19 158.742C273.158 161.309 274.118 163.857 274.373 166.156C274.921 171.092 273.663 175.329 270.054 178.74ZM278.407 168.618C285.303 168.693 289.353 177.423 287.413 184.041C285.473 190.659 279.776 195.369 274.373 199.655C271.662 201.806 268.669 204.061 265.209 204.087L4.32631 206.039L3.18328 185.801L53.4982 185.753C60.0062 185.747 67.3854 186.119 71.6245 191.057C73.166 192.853 75.911 190.897 77.7917 189.461C82.2471 186.058 88.2969 185.892 93.9032 185.869L277.981 185.122C279.955 185.114 282.611 184.451 282.546 182.478L270.168 182.013C274.613 178.953 277.681 173.965 278.407 168.618ZM86.9641 183.557C89.7254 176.888 91.8203 169.943 93.2076 162.86C93.5972 160.87 93.9322 158.833 93.6674 156.823C92.8726 150.792 87.1452 146.822 81.8834 143.768C84.1294 143.723 86.0449 142.135 87.4865 140.413C87.8877 139.933 88.2708 139.434 88.6539 138.936C89.6473 137.642 90.6406 136.349 91.9496 135.392C94.6349 133.43 95.0648 133.395 100.612 132.94C101.183 132.893 101.809 132.842 102.496 132.783C107.375 132.37 119.173 127.925 127.787 124.679C132.182 123.024 135.748 121.68 137.144 121.343C156.25 116.733 169.494 122.769 172.476 126.022C174.104 127.798 174.503 130.344 174.83 132.73C176.301 143.466 177.773 154.371 176.224 165.096C175.934 167.098 175.399 169.305 173.702 170.405C171.999 171.507 170.396 172.763 168.918 174.152C166.548 176.379 164.418 179.995 166.258 182.676L86.9641 183.557ZM195.717 36.021C194.87 35.207 193.341 35.2723 192.566 36.1556C191.791 37.0389 191.925 38.5631 192.842 39.2975C195.944 41.78 198.323 45.1536 199.621 48.9081C197.936 48.213 196.079 47.9356 194.264 48.1075C196.138 52.3813 197.41 56.9181 198.033 61.5429L192.182 58.0529C191.657 57.7403 191.096 57.4174 190.486 57.4354C189.876 57.4533 189.24 57.9708 189.338 58.5732C191.528 59.2376 192.658 61.8224 192.437 64.101C192.217 66.3797 190.98 68.4164 189.775 70.3629L183.975 79.7336C185.249 81.2198 187.662 79.856 188.917 78.3541C192.535 74.0259 194.698 68.5033 194.983 62.8697C195.68 62.9602 196.284 63.378 196.881 63.7919C197.571 64.2691 198.252 64.7411 199.062 64.7004C200.177 64.6445 201.019 63.5616 201.193 62.4593C201.366 61.357 201.034 60.2447 200.706 59.1782L198.016 50.4403C200.209 50.6778 201.198 52.8926 202.159 55.0439C202.437 55.6659 202.712 56.2826 203.014 56.8447C204.72 60.0252 208.022 61.9639 211.162 63.7424C207.754 70.0535 204.093 76.3128 199.189 81.5477C194.286 86.7825 187.999 90.9716 180.939 92.2369C179.753 92.4495 178.517 92.5766 177.356 92.2542C175.902 91.8504 174.767 90.8137 173.636 89.78C173.254 89.4312 172.872 89.0826 172.479 88.7589C168.538 85.5141 163.345 84.728 158.153 83.9419C152.954 83.1549 147.756 82.368 143.814 79.1137C143.777 79.0829 143.74 79.0518 143.702 79.0205C143.27 78.6607 142.82 78.2864 142.269 78.2027C141.669 78.1118 140.95 78.573 141.045 79.1717C141.119 79.6405 140.551 80.6025 139.595 80.0875C135.909 78.1018 134.839 73.7775 133.867 69.8491L133.867 69.8488L133.867 69.8484C133.533 68.4978 133.21 67.1941 132.797 66.0483C132.564 65.404 131.559 65.7313 131.129 66.264C131.094 66.3066 131.06 66.3504 131.024 66.3949C130.616 66.9067 130.139 67.5062 129.53 67.3436C128.803 64.6712 129.057 61.6504 129.302 58.7279L129.302 58.7275C129.401 57.5378 129.5 56.3643 129.53 55.2373C129.533 55.1353 129.564 54.8273 129.614 54.3444C130.177 48.8433 133.063 20.6396 122.203 15.5845C124.785 15.0756 128.952 15.5465 132.644 17.8113C136.379 20.1025 139.064 24.3032 138.886 24.5254C141.466 24.1475 143.885 23.1512 146.307 22.1533L146.308 22.1532C148.353 21.3106 150.401 20.4668 152.552 19.9935C155.162 19.4188 157.859 19.4042 160.532 19.3921L164.063 19.3762C167.865 15.2446 167.718 10.7186 167.548 5.46999C167.515 4.47635 167.482 3.4568 167.475 2.40913C174.066 3.2748 181.052 15.699 183.254 23.1531C184.174 26.2665 186.891 28.1798 189.638 30.1147C192.029 31.7986 194.444 33.4989 195.717 36.021ZM83.3772 123.913L83.3793 123.913C84.1334 123.721 84.883 123.531 85.6223 123.335C96.9448 120.339 107.513 115.067 117.989 109.83C130.47 103.591 143.166 97.2012 153.179 87.4827C153.953 86.7315 155.181 86.7835 156.25 86.9214C160.206 87.4313 164.096 88.441 167.8 89.9189C169.741 90.6933 171.924 92.0232 171.938 94.113C171.943 94.8487 171.66 95.5522 171.382 96.2334L169.517 100.804C168.722 102.754 167.912 104.777 167.981 106.882C168.05 108.987 169.245 111.208 171.27 111.787C173.295 112.365 175.797 110.481 175.274 108.441C174.378 104.948 173.765 101.382 173.442 97.79C177.388 105.604 176.027 114.928 174.572 123.56C169.35 120.808 163.883 118.521 158.258 116.733C156.326 116.119 154.16 115.577 152.334 116.46C147.865 118.621 139.454 119.196 138.626 118.616C137.797 118.035 136.664 118.315 135.71 118.65C134.173 119.191 131.244 120.333 127.744 121.697C119.157 125.045 107.137 129.731 103.828 130.15C102.957 130.26 102.082 130.342 101.206 130.424H101.206H101.206H101.206L101.204 130.424C99.3103 130.6 97.417 130.777 95.5761 131.243C92.8838 131.924 90.2297 133.335 88.8047 135.719C87.7401 135.133 87.0756 134.098 86.4073 133.057C86.0848 132.554 85.7614 132.05 85.3918 131.595C84.2564 130.197 81.8726 129.334 80.7839 130.769C79.829 127.503 74.9939 126.242 72.5655 128.626C72.1902 128.994 71.877 129.419 71.564 129.843C71.2385 130.284 70.9131 130.726 70.518 131.104C69.7427 131.845 68.5018 132.302 67.6022 131.717C71.2786 126.985 77.4672 125.414 83.3772 123.913ZM71.3939 183.229C68.6202 184.227 65.5597 183.255 62.808 182.197C60.2068 181.198 57.4915 180.006 55.9113 177.711C54.0096 174.949 54.2146 171.304 54.4948 167.962L55.6687 153.964C53.928 155.428 52.6494 157.433 52.057 159.629C50.6504 156.526 52.7428 152.381 56.0749 151.67C54.6671 150.504 52.3499 151.269 51.3563 152.803C50.3627 154.337 50.3853 156.313 50.6758 158.118C50.7541 158.604 50.8495 159.09 50.9449 159.576L50.9449 159.577L50.945 159.577L50.945 159.577L50.945 159.577C51.2033 160.893 51.4616 162.209 51.3821 163.541C49.2906 160.273 48.8919 155.982 50.3456 152.384C51.0039 150.755 52.1707 149.16 53.8772 148.741C55.5836 148.321 57.6955 149.715 57.4128 151.45C56.765 155.425 58.6185 159.505 61.4608 162.358C64.3031 165.211 68.0277 167.008 71.7873 168.452C73.1709 168.983 74.8913 170.201 74.2167 171.52C73.512 172.899 73.0261 174.458 73.2681 175.987C73.5101 177.516 74.6301 178.977 76.1555 179.241C78.0356 179.566 79.7089 178.109 81.0605 176.763L89.0461 168.807C87.9819 171.763 86.7336 174.654 85.3107 177.456C84.336 179.375 83.2213 181.318 81.4593 182.554C79.6973 183.791 77.1178 184.112 75.4511 182.75C74.5225 181.991 73.2554 182.496 72.076 182.966C71.8442 183.058 71.6158 183.149 71.3939 183.229ZM70.6035 155.389L70.6031 155.388L70.6029 155.388L70.6026 155.388L70.6024 155.388C69.8579 154.894 69.1126 154.4 68.3405 153.964C65.9473 152.614 62.7691 151.888 60.5722 153.539C59.8679 151.272 61.2601 148.837 63.076 147.309C66.2883 144.604 70.9978 143.811 74.9188 145.314C78.6363 146.739 82.4097 148.29 85.3625 150.961C88.3154 153.631 90.3342 157.669 89.5755 161.577C88.7451 161.779 88.0521 161.113 87.4044 160.49C87.2808 160.371 87.1589 160.253 87.038 160.144C85.2014 158.483 82.6825 158.438 80.1154 158.392C78.5546 158.364 76.9759 158.336 75.522 157.944C73.7254 157.459 72.1662 156.425 70.6035 155.389ZM76.2968 175.581C77.0354 173.732 77.4869 171.697 77.0832 169.749C76.6795 167.8 75.2721 165.973 73.3353 165.515C68.8545 164.455 64.7817 161.752 62.0649 158.035C61.5175 157.286 61.0721 156.117 61.8011 155.543C62.1 155.308 62.5074 155.273 62.8878 155.279C65.3413 155.315 67.4881 156.593 69.6385 157.872L69.6386 157.873L69.6388 157.873L69.639 157.873L69.6391 157.873C70.5087 158.39 71.3789 158.908 72.2702 159.344C74.4024 160.388 76.752 160.985 79.1237 161.085C79.599 161.105 80.0795 161.106 80.5605 161.108C82.0743 161.112 83.593 161.116 84.9686 161.707C86.7813 162.485 88.1185 164.845 86.9866 166.46C84.2999 170.296 80.5471 173.232 76.8519 176.109L76.2968 175.581ZM212.3 65.9472C212.713 65.2021 213.325 64.3464 214.171 64.4428C215.266 64.5676 215.487 66.0626 215.336 67.1547C214.269 74.9034 209.473 81.7926 203.371 86.686C197.268 91.5793 189.927 94.6772 182.5 97.1329C181.99 97.3017 181.49 97.62 180.999 97.9326C180.059 98.5301 179.153 99.1067 178.272 98.5782C177.257 97.9693 177.516 96.2989 178.44 95.5586C179.278 94.8869 180.394 94.7428 181.471 94.6039L181.471 94.6039L181.6 94.5871L181.687 94.5758L181.799 94.5609C188.979 93.5942 195.392 89.3342 200.297 84.0023C205.203 78.6705 208.792 72.286 212.3 65.9472ZM79.1621 131.216C79.809 131.987 80.5217 132.836 81.5035 132.814C82.3293 132.797 82.8437 133.467 83.3767 134.162C83.7546 134.655 84.1418 135.159 84.656 135.44C85.8857 136.11 85.9914 137.977 85.1843 139.121C84.3772 140.266 82.9765 140.823 81.6214 141.177C78.8583 141.899 75.9408 142.024 73.1261 141.54C71.2906 141.225 69.3878 140.58 68.2308 139.12C67.0738 137.661 67.0409 135.209 68.5729 134.15C69.0853 133.796 69.7022 133.631 70.3156 133.466L70.3157 133.466C71.0471 133.271 71.7734 133.076 72.3114 132.564C72.7108 132.184 72.9501 131.677 73.189 131.171C73.4393 130.641 73.6892 130.111 74.1223 129.729C74.8237 129.11 75.8862 129.026 76.7688 129.335C77.6514 129.644 78.3769 130.291 78.983 131.003L79.0363 131.066C79.0761 131.113 79.1162 131.161 79.1564 131.209L79.1621 131.216ZM73.9882 188.196C73.7044 188.307 73.3844 188.325 73.0898 188.246C72.8047 188.169 72.5448 188.002 72.3569 187.774C71.5926 186.848 72.658 185.174 73.8207 185.474C74.9834 185.774 75.1053 187.755 73.9882 188.196ZM168.521 182.385C168.238 182.724 167.548 182.688 167.475 182.253C167.173 180.463 167.03 178.261 168.51 177.211L168.761 181.117C168.79 181.558 168.803 182.046 168.521 182.385ZM153.675 24.1944C155.282 25.2579 156.549 26.8261 157.252 28.6202C157.395 28.9858 157.711 29.2274 158.03 29.4711L158.03 29.4712C158.198 29.5993 158.366 29.728 158.51 29.8756C158.929 30.304 158.999 31.2197 158.412 31.3393C158.155 31.3916 157.903 31.2502 157.678 31.1159C154.076 28.9648 149.695 27.228 145.764 28.6972C146.411 29.0272 146.737 29.8742 146.479 30.5525C147.281 30.5814 148.029 30.9422 148.75 31.2958L150.654 32.2302L150.454 32.7923C147.585 31.3312 144.08 31.1793 141.095 32.3866C142.087 32.5373 143.098 32.5649 144.097 32.4685L148.466 34.6706C148.79 34.8339 149.132 35.0134 149.314 35.3271C149.496 35.6408 149.427 36.1273 149.088 36.2566C146.456 33.9356 142.734 32.9093 139.285 33.5539C138.882 33.6291 138.607 33.0677 138.778 32.6956C138.948 32.3234 139.358 32.1325 139.739 31.9825C141.651 31.2297 143.667 30.7427 145.712 30.54C144.689 29.5918 143.505 28.8187 142.225 28.2643C142.014 27.5435 143.054 26.8526 143.637 27.3262C148.065 26.4581 152.81 27.3195 156.65 29.689C156.683 28.9356 156.124 28.302 155.601 27.7586L150.698 22.6618C153.56 23.0244 156.365 23.8301 158.983 25.0415C159.575 25.3154 160.159 25.6113 160.696 25.9826C162.716 27.3808 163.918 29.8819 163.747 32.3325C162.524 29.7466 160.587 27.5026 158.208 25.914C156.848 25.0059 155.307 24.2989 153.675 24.1944ZM163.757 47.9919C163.479 45.8294 163.466 43.5227 164.495 41.6003C164.802 41.0254 165.229 40.473 165.835 40.232C166.762 39.8633 167.829 40.3339 168.56 41.0128C170.374 42.6969 170.76 45.4249 170.605 47.8951C170.537 48.9685 170.379 50.0663 169.853 51.0043C169.327 51.9423 168.365 52.6968 167.289 52.7127C166.21 52.7286 165.224 51.9986 164.663 51.0764C164.101 50.1542 163.894 49.0628 163.757 47.9919ZM137.937 56.0366C135.897 52.9148 136.035 48.5236 138.266 45.5356C138.532 45.1786 138.836 44.8326 139.232 44.6285C140.003 44.2308 140.989 44.4706 141.658 45.0244C142.326 45.5782 142.728 46.3892 143.019 47.2071C143.881 49.6296 143.916 52.3378 143.119 54.7822C142.635 56.2647 141.435 57.8688 139.899 57.6007C139.051 57.4527 138.408 56.7573 137.937 56.0366ZM157.53 72.0709C157.775 72.0028 158.019 71.9351 158.2 71.7625C158.582 71.3967 158.447 70.6899 158.013 70.3872C157.58 70.0844 156.97 70.1368 156.508 70.3934C156.039 70.6531 155.667 71.167 155.746 71.6968C155.825 72.2266 156.503 72.6222 156.939 72.3107C157.112 72.1871 157.321 72.1288 157.53 72.0709ZM163.038 63.4636C166.424 62.7133 168.317 62.8083 171.223 63.5486L171.835 63.7084C174.734 64.4654 176.545 64.4687 180.224 63.276C180.664 63.1334 181.137 63.3744 181.279 63.8143C181.422 64.2543 174.708 66.1621 171.638 65.387L171.073 65.2397C168.247 64.4974 166.602 64.3892 163.4 65.0988C162.949 65.1988 162.501 64.9139 162.401 64.4623C162.301 64.0108 162.586 63.5637 163.038 63.4636ZM189.637 55.3759C189.433 54.961 188.931 54.7902 188.516 54.9944C182.557 57.9279 179.255 58.31 173.82 57.6162L172.449 57.4463C172.293 57.4286 172.155 57.4142 172.011 57.4002L171.521 57.3567C168.286 57.1023 165.721 57.6513 162.429 59.6171C162.032 59.8542 161.902 60.3683 162.139 60.7654C162.376 61.1624 162.891 61.2921 163.288 61.055C166.35 59.226 168.611 58.7724 171.633 59.047C171.834 59.0651 172.001 59.0816 172.195 59.1031L174.204 59.3503C179.603 59.9772 189.841 55.7909 189.637 55.3759ZM148.293 63.2373C148.755 63.2044 149.155 63.5518 149.188 64.0131C149.221 64.4744 148.874 64.875 148.412 64.9078C146.503 65.0437 145.188 65.6929 143.215 67.2835L142.501 67.8731L142.23 68.1L141.994 68.2975C140.254 69.748 139.095 70.5385 137.558 71.1689C137.13 71.3444 134.175 71.9456 136.465 70.7119C138.756 69.4781 141.74 66.3262 141.74 66.3262L142.177 65.9686C144.392 64.186 145.977 63.4022 148.293 63.2373ZM149.55 67.2434C149.369 66.818 148.877 66.6204 148.451 66.802C146.349 67.6992 145.166 68.8459 143.177 71.449L142.563 72.2478C142.16 72.7626 141.823 73.282 141.496 73.7861C140.774 74.8977 140.101 75.9347 138.885 76.6823C137.119 77.769 139.643 77.1992 140.037 76.957C141.606 75.9924 142.623 74.9281 144.211 72.8546L144.671 72.2525C146.395 70.0182 147.401 69.0713 149.109 68.3423C149.534 68.1607 149.732 67.6687 149.55 67.2434Z" fill="#00160A"/>
<path fill-rule="evenodd" clip-rule="evenodd" d="M152.484 64.5835C151.799 63.9661 150.803 63.7771 150.134 63.1423C149.5 62.5406 149.257 61.5595 149.538 60.7315C149.818 59.9034 150.608 59.272 151.477 59.1798C153.971 58.9154 156.465 58.651 158.959 58.3867C159.551 58.3239 160.205 58.2768 160.684 58.6296C161.416 59.1681 161.301 60.345 160.772 61.0839C160.243 61.8228 159.427 62.2989 158.789 62.9466C157.968 63.7813 157.454 64.9127 157.366 66.0807C157.301 66.9481 157.395 67.9818 156.708 68.5148C155.845 69.1838 154.569 68.3932 154.04 67.4376C153.512 66.482 153.295 65.3145 152.484 64.5835H152.484Z" fill="#FFB61D"/>
<path fill-rule="evenodd" clip-rule="evenodd" d="M253.609 182.782C258.907 182.804 266.445 182.614 270.296 178.975C273.905 175.565 275.163 171.328 274.615 166.392C274.067 161.456 270.27 155.374 270.125 150.41C271.259 161.006 286.313 163.97 291.029 173.526C293.578 178.692 292.559 185.064 289.721 190.077C286.883 195.089 282.454 198.986 277.969 202.6C265.334 212.784 249.767 219.443 239.201 231.759C228.634 244.076 220.592 263.283 225.173 278.851C229.842 294.716 249.892 305.792 266.26 303.428C267.839 303.2 269.441 302.848 270.788 301.993C273.981 299.965 274.911 295.675 274.616 291.904C274.321 288.132 273.103 284.443 273.195 280.661C273.396 272.392 279.657 265.64 285.88 260.191C301.225 246.754 319.643 234.748 326.699 215.609C331.514 202.547 329.982 187.306 322.663 175.463C312.725 159.382 293.608 150.389 284.648 133.743C284.383 137.118 283.787 140.467 282.872 143.727C282.48 145.123 281.809 146.715 280.395 147.031C278.91 147.363 295.496 123.795 262.16 94.4084C249.764 83.4814 234.4 75.5471 219.039 68.6659C213.774 85.3551 198.363 98.3789 181.03 100.787C179.846 100.952 179.575 102.523 179.602 103.718C179.978 120.224 180.354 136.729 180.73 153.234C180.893 160.406 180.418 168.865 174.415 172.792C171.94 174.411 171.173 178.146 172.809 180.609C174.446 183.073 178.186 183.813 180.638 182.158C177.793 177.355 181.046 170.17 186.532 169.138C188.553 168.757 189.197 166.227 189.419 164.183C190.413 155.015 191.407 145.847 192.4 136.68C192.784 147.139 193.167 157.597 193.551 168.056C203.732 163.469 215.596 171.713 226.536 169.47C217.479 163.195 209.121 155.152 205.314 144.812C201.508 134.472 203.289 121.53 211.764 114.489C206.716 122.555 205.719 133.023 209.155 141.896C212.467 150.452 219.388 157.055 226.445 162.918C228.633 164.735 230.985 166.711 231.661 169.473C232.338 172.235 230.212 175.767 227.412 175.269C217.442 171.52 206.642 169.994 196.023 170.835C192.733 171.095 189.281 171.655 186.718 173.733C184.154 175.811 182.926 179.864 184.911 182.501C207.81 182.595 230.71 182.689 253.609 182.782Z" fill="white"/>
<path fill-rule="evenodd" clip-rule="evenodd" d="M266.018 303.192C267.597 302.964 269.199 302.612 270.545 301.757C273.739 299.729 274.669 295.439 274.374 291.668C274.079 287.897 272.861 284.207 272.953 280.425C273.154 272.156 279.415 265.405 285.638 259.955C300.983 246.518 319.401 234.512 326.457 215.374C329.282 207.711 293.809 231.143 274.374 258.731C260.68 278.17 259.252 304.169 266.018 303.192Z" fill="#E7EAEE"/>
<path fill-rule="evenodd" clip-rule="evenodd" d="M279.067 112.628C276.663 106.837 269.96 101.262 261.918 94.1726C249.522 83.2456 234.158 75.3112 218.797 68.4301C233.86 79.4031 252.223 88.5625 265.29 102.334C271.659 109.047 275.967 122.574 279.568 126.921C282.325 130.249 285.925 129.141 279.067 112.628Z" fill="#E7EAEE"/>
<path fill-rule="evenodd" clip-rule="evenodd" d="M172.924 110.356C173.47 109.164 173.854 103.659 170.977 103.659C169.182 105.697 169.366 109.608 172.924 110.356Z" fill="#FFB61D"/>
<path fill-rule="evenodd" clip-rule="evenodd" d="M85.6224 123.335C79.0891 125.064 71.7482 126.38 67.6023 131.717C68.5019 132.302 69.7428 131.845 70.518 131.104C71.2933 130.362 71.8 129.377 72.5655 128.626C74.9939 126.242 79.8291 127.503 80.784 130.769C81.8726 129.334 84.2565 130.197 85.3919 131.595C86.5273 132.994 87.2264 134.851 88.8048 135.719C90.2298 133.335 92.8838 131.924 95.5762 131.243C98.2685 130.562 101.073 130.499 103.828 130.15C108.486 129.56 113.037 128.137 117.202 125.968C116.949 126.488 134.204 119.006 149.994 117.921C161.524 117.129 172.368 122.398 174.572 123.56C176.027 114.928 177.388 105.604 173.442 97.79C173.765 101.382 174.378 104.948 175.274 108.441C175.797 110.481 173.296 112.365 171.27 111.787C169.245 111.209 168.05 108.987 167.981 106.882C167.913 104.777 168.722 102.754 169.518 100.804C170.139 99.2806 170.761 97.757 171.382 96.2335C171.66 95.5522 171.943 94.8487 171.938 94.113C171.924 92.0232 169.741 90.6933 167.8 89.9189C164.096 88.441 160.206 87.4313 156.25 86.9214C155.181 86.7836 153.953 86.7315 153.179 87.4827C143.166 97.2013 130.47 103.591 117.989 109.83C107.513 115.067 96.9448 120.339 85.6224 123.335Z" fill="white"/>
<path fill-rule="evenodd" clip-rule="evenodd" d="M88.8047 135.719C90.2296 133.335 92.8837 131.924 95.5761 131.243C98.2684 130.562 101.073 130.499 103.828 130.15C104.903 130.014 109.317 129.317 115.047 127.307C123.332 124.4 134.705 119.759 145.541 118.578C159.685 117.037 172.298 122.361 174.572 123.56C176.027 114.928 171.107 115.964 168.465 115.692C110.067 109.66 87.2263 134.851 88.8047 135.719Z" fill="#E7EAEE"/>
</svg>
