<svg width="577" height="535" viewBox="0 0 577 535" fill="none" xmlns="http://www.w3.org/2000/svg">
<rect width="577" height="534.281" fill="white"/>
<path fill-rule="evenodd" clip-rule="evenodd" d="M421.341 329.734C412.95 332.772 403.242 337.332 402.342 345.633C413.741 337.513 427.822 332.667 442.181 331.922C432.261 343.495 419.735 353.144 405.639 360.07C392.981 366.29 376.955 372.924 375.869 386.155C389.464 371.165 410.366 362.09 431.505 361.999C417.98 380.341 396.295 393.351 372.689 397.284C373.499 402.92 399.672 414.992 407.295 417.315C412.724 438.912 415.076 466.92 420.505 488.517C421.841 493.832 423.017 499.939 419.503 504.319C416.016 508.664 409.431 509.411 403.6 509.795C380.617 511.308 349.172 512.821 326.189 514.334C323.437 502.79 320.686 491.247 317.934 479.703C279.167 483.036 112.97 518.301 82.4705 499.801C-35.2676 428.383 114.869 404.054 118.096 317.102C118.835 297.166 54.0988 262.314 55.1266 241.942C55.7977 228.64 58.0217 215.645 65.1297 204.222C72.2377 192.8 83.5009 184.001 95.7426 177.27C78.8886 173.259 66.1226 157.702 66.4641 141.592C66.8057 125.481 80.2213 110.401 97.2323 107.005C89.212 98.1548 76.583 94.0984 67.3583 86.3194C56.6122 77.2573 51.2122 62.6392 55.1266 49.6779C59.0409 36.7166 72.823 26.5188 87.3444 27.0935C99.2725 27.5655 109.769 34.5511 118.096 42.4742C131.008 54.7619 140.612 70.0091 145.804 86.4663C149.265 97.4356 161.948 103.016 172.659 108.693C183.37 114.37 194.494 124.258 191.476 135.339C187.486 120.176 246.785 138.237 300.564 142.658C307.705 143.245 315.389 144.099 320.668 148.591C328.253 155.045 339.641 157.399 349.471 154.545C352.598 161.723 354.899 169.787 352.24 177.125C349.582 184.464 340.166 190.066 332.638 186.699C334.603 196.059 336.568 205.419 338.533 214.78C357.778 214.994 377.022 215.358 396.261 215.871C406.458 216.143 417.116 216.573 425.978 221.251C434.84 225.929 446.702 219.302 455.459 202.275C449.792 230.057 456.507 241.159 468.086 244.177C468.11 243.967 469.01 244.067 469.037 243.857C472.484 216.402 492.603 192.025 520.604 182.382C518.128 187.665 500.412 198.101 488.109 211.427C476.092 224.444 470.34 241.871 469.745 245C488.826 240.368 495.187 253.531 527.559 241.942C512.767 258.41 484.261 262.465 464.812 250.868C455.637 260.343 456.15 270.835 449.65 282.048C460.691 269.342 475.353 280.607 463.722 288.843C469.895 289.392 476.57 290.145 481.047 294.118C485.525 298.091 485.637 306.453 479.861 308.544C460.354 315.607 440.848 322.671 421.341 329.734Z" fill="#7737FF"/>
<path fill-rule="evenodd" clip-rule="evenodd" d="M389.677 267.118C390.384 265.875 391.151 264.572 392.45 263.847C393.749 263.123 395.743 263.273 396.443 264.519C397.187 265.845 396.079 267.444 394.779 268.329C393.478 269.214 391.878 269.838 391.033 271.112C395.601 273.899 400.169 276.686 404.736 279.472C408.314 281.655 412.361 284.773 411.629 288.682C411.2 290.973 409.102 292.755 406.766 293.61C404.43 294.465 401.861 294.554 399.35 294.621C382.475 295.071 365.583 294.992 348.713 294.383C347.542 294.341 346.237 294.24 345.457 293.431C344.853 292.804 344.728 291.91 344.631 291.074C343.66 282.76 342.689 274.445 341.718 266.131C341.682 265.824 341.648 265.503 341.767 265.215C342.266 264.001 344.227 264.749 345.324 265.559C353.09 271.298 365.505 270.624 372.493 264.083C374.181 262.503 377.055 262.707 379.225 263.66C381.394 264.613 383.209 266.163 385.385 267.102C385.153 265.937 386.262 264.708 387.541 264.713C388.821 264.718 389.92 265.955 389.677 267.118Z" fill="white"/>
<path fill-rule="evenodd" clip-rule="evenodd" d="M117.922 175.354C117.922 175.354 116.037 154.446 120.782 147.725C125.526 141.004 143.601 138.981 143.601 138.981C143.601 138.981 193.139 138.381 219.904 139.328C246.67 140.276 300.199 144.523 300.199 144.523C300.199 144.523 307.155 145.928 310.282 147.725C313.408 149.522 317.769 154.621 317.769 154.621C317.769 154.621 327.26 155.902 331.981 156.076C336.702 156.251 341.028 155.479 341.028 155.479C341.028 155.479 347.044 171.728 342.791 179.472C338.537 187.216 324.256 186.015 324.256 186.015L329.311 214.999C329.311 214.999 323.301 217.629 320.016 220.927C316.731 224.225 315.412 228.954 315.412 228.954L325.175 317.102C325.175 317.102 328.047 321.685 334.216 323.425C340.385 325.165 354.285 325.313 354.285 325.313C354.285 325.313 353.789 334.202 354.285 338.027C354.781 341.852 355.222 343.947 355.222 343.947L365.687 413.317C365.687 413.317 355.516 415.03 345.451 417.291C335.387 419.552 315.412 424.611 315.412 424.611C315.412 424.611 308.37 427.584 307.458 432.383C306.546 437.183 310.282 451.607 310.282 451.607L198.145 459.521C198.145 459.521 187.233 459.711 183.48 457.521C179.726 455.332 178.697 448.174 178.697 448.174L163.53 321.856C163.53 321.856 139.292 322.405 132.214 318.663C125.135 314.92 124.279 301.104 124.279 301.104C124.279 301.104 125.455 293.273 124.279 287.839C123.886 286.025 118.76 266.368 117.038 247.665C116.063 237.081 129.513 228.954 129.513 228.954L117.922 175.354Z" fill="white"/>
<path fill-rule="evenodd" clip-rule="evenodd" d="M197.046 146.275C196.174 147.413 196.904 149.111 198.164 149.877C199.424 150.642 201.012 150.729 202.518 150.791C218.877 151.473 235.235 152.155 251.594 152.836C253.188 152.903 254.954 152.917 256.161 151.952C257.369 150.986 257.209 148.683 255.634 148.451C237.443 145.773 218.984 144.661 200.571 145.134C199.279 145.167 197.795 145.298 197.046 146.275" fill="#E7EAEE"/>
<path fill-rule="evenodd" clip-rule="evenodd" d="M269.829 254.845L265.578 236.372C265.578 236.372 265.379 240.182 263.129 241.731C260.878 243.28 256.428 242.671 256.428 242.671C256.428 242.671 255.723 229.772 258.856 225.844C261.988 221.916 265.074 225.625 271.024 224.369C276.968 223.113 275.737 218.979 282.645 220.82C289.552 222.661 294.656 236.35 294.656 236.35C294.656 236.35 289.24 238.031 286.936 237.6C284.631 237.169 285.193 234.58 285.193 234.58C285.193 234.58 283.56 233.937 283.976 238.475C284.178 240.68 285.981 243.996 286.936 248.333C287.291 249.948 286.936 253.578 286.936 253.578C286.936 253.578 280.789 254.158 275.477 255.211C270.166 256.264 269.829 254.845 269.829 254.845Z" fill="#D9C7FF"/>
<path fill-rule="evenodd" clip-rule="evenodd" d="M118.904 208.896C116.858 207.876 115.195 206.32 113.564 204.787C109.357 200.833 105.098 196.816 102.18 191.968C101.902 191.506 101.628 190.976 101.789 190.469C101.949 189.962 102.785 189.674 103.098 190.116C108.171 197.288 114.578 203.648 121.951 208.834C121.288 209.659 119.883 209.383 118.904 208.896Z" fill="#00160A"/>
<path fill-rule="evenodd" clip-rule="evenodd" d="M125.033 118.126C126.242 116.973 126.886 115.422 127.443 113.9C129.178 109.154 130.361 104.235 130.963 99.2556C131.072 98.3587 131.25 97.326 132.09 96.8689C133.035 101.138 131.865 105.539 130.701 109.762C129.677 113.474 128.544 117.372 125.642 120.104C125.348 120.38 124.973 120.661 124.56 120.598C124.004 120.511 123.781 119.826 123.979 119.337C124.178 118.848 124.64 118.501 125.033 118.126H125.033Z" fill="#00160A"/>
<path fill-rule="evenodd" clip-rule="evenodd" d="M416.765 155.367C417.34 155.225 417.926 155.645 418.177 156.145C418.428 156.645 418.446 157.213 418.558 157.754C418.994 159.871 421.054 161.607 423.371 161.811C423.659 162.433 423.02 163.055 422.516 163.544C421.366 164.657 420.641 166.139 420.493 167.673C420.398 168.668 420.171 170.053 419.092 170.04C418.225 170.03 417.844 169.059 417.532 168.309C416.768 166.479 415.047 165.015 413.013 164.467C412.586 164.352 412.406 163.846 412.524 163.449C412.641 163.052 412.967 162.741 413.277 162.446C414.614 161.177 415.97 159.673 415.956 157.9C415.948 156.941 415.764 155.615 416.765 155.367Z" fill="#FFB61D"/>
<path fill-rule="evenodd" clip-rule="evenodd" d="M457.276 321.922C455.482 323.63 454.846 326.303 455.7 328.55C454.754 328.942 454.047 327.735 453.579 326.879C452.877 325.594 451.55 324.617 450.04 324.273C452.227 322.996 453.588 320.592 453.478 318.2C454.357 317.669 455.341 318.775 455.594 319.719C455.847 320.662 456.227 321.889 457.276 321.922Z" fill="#E7EAEE"/>
<path fill-rule="evenodd" clip-rule="evenodd" d="M441.96 325.125C443.001 326.654 444.481 327.924 446.207 328.769C446.826 329.073 446.264 329.918 445.752 330.361C444.462 331.478 443.646 333.051 443.51 334.681C442.381 333.634 441.253 332.587 440.125 331.541C439.675 331.123 439.2 330.474 439.588 330.006C440.771 328.578 441.59 326.892 441.96 325.125Z" fill="#E7EAEE"/>
<path fill-rule="evenodd" clip-rule="evenodd" d="M366.606 141.009C367.633 134.955 370.114 129.005 374.474 124.395C378.834 119.784 385.198 116.637 391.816 116.642C398.434 116.647 405.117 120.118 407.868 125.691C409.291 128.575 409.64 131.822 409.543 134.992C409.359 141.02 407.61 147.002 404.486 152.293C401.668 157.064 397.618 161.355 392.359 163.776C387.1 166.196 380.546 166.521 375.434 163.845C371.386 161.727 368.554 157.924 367.204 153.804C365.855 149.683 365.885 145.262 366.606 141.009M407.055 136.427C407.174 132.674 406.506 128.798 404.374 125.603C403.078 123.661 401.263 122.018 399.136 120.864C392.278 117.139 382.943 119.14 377.246 124.276C371.549 129.412 369.08 137.003 368.825 144.362C368.69 148.287 369.146 152.312 370.948 155.867C372.75 159.421 376.048 162.462 380.156 163.439C385.531 164.717 391.203 162.311 395.417 158.968C402.449 153.39 406.782 144.997 407.055 136.427Z" fill="#FFB61D"/>
<path fill-rule="evenodd" clip-rule="evenodd" d="M434.328 136.805C433.234 138.13 432.089 139.87 432.929 141.346C433.23 141.873 432.452 142.488 431.833 142.321C431.215 142.155 430.863 141.549 430.698 140.972C430.534 140.396 430.48 139.777 430.149 139.264C429.819 138.752 429.068 138.396 428.521 138.712C427.743 138.627 427.663 137.541 428.115 136.948C428.568 136.355 429.311 135.948 429.589 135.269C429.809 134.732 429.691 134.129 429.795 133.563C429.9 132.996 430.42 132.392 431.021 132.536C431 133.532 431.125 134.565 431.671 135.423C432.216 136.281 433.26 136.923 434.328 136.805Z" fill="#FFB61D"/>
<path fill-rule="evenodd" clip-rule="evenodd" d="M339.433 135.505C340.545 134.307 341.942 133.283 343.581 132.847C345.22 132.411 347.122 132.64 348.402 133.684C349.795 134.82 350.232 136.717 349.935 138.413C349.639 140.11 348.715 141.651 347.743 143.115C346.482 145.014 345.112 146.852 343.641 148.617C343.182 149.169 342.678 149.737 341.974 149.983C341.045 150.307 340.009 149.992 339.092 149.637C335.871 148.39 332.878 146.642 330.277 144.487C327.895 142.513 325.697 139.621 326.663 136.8C327.278 135.002 329.156 133.702 331.17 133.424C333.184 133.147 335.271 133.804 336.873 134.968C337.64 135.526 338.798 136.189 339.433 135.505M329.259 136.549C327.738 138.487 329.389 141.201 331.305 142.81C333.696 144.817 336.536 146.3 339.349 147.766C339.71 147.954 340.114 148.149 340.519 148.068C340.881 147.996 341.148 147.722 341.387 147.46C343.292 145.369 344.999 143.124 346.481 140.757C347.621 138.937 348.458 136.262 346.621 135.023C345.168 134.043 343.05 134.833 341.818 136.045C340.586 137.258 339.811 138.841 338.464 139.944C337.412 138.41 336.295 136.816 334.59 135.915C332.885 135.015 330.413 135.079 329.259 136.549H329.259Z" fill="#FFB61D"/>
<path fill-rule="evenodd" clip-rule="evenodd" d="M319.674 94.1066C322.357 92.1699 325.339 90.5901 328.502 89.4304C330.441 88.7194 332.654 88.1722 334.57 88.9336C337.641 90.1535 338.239 94.2364 336.623 96.9446C335.007 99.6528 331.943 101.295 329.026 102.803C323.306 105.762 317.585 108.721 311.864 111.679C312.991 109.597 311.72 107.154 310.679 105.034C308.335 100.259 307.108 95.0176 307.107 89.7729C307.106 88.1161 307.24 86.4095 308.025 84.9206C308.81 83.4318 310.376 82.197 312.165 82.158C315.027 82.0956 316.931 84.8558 317.896 87.3517C318.742 89.5374 319.339 91.8056 319.674 94.1066ZM331.798 90.3109C327.172 91.1813 322.861 93.4352 319.666 96.654C319.352 96.971 318.74 96.8313 318.453 96.4928C318.166 96.1543 318.11 95.7003 318.056 95.2728C317.695 92.4412 316.896 89.658 315.689 87.0349C315.016 85.5726 313.89 83.9578 312.173 83.932C310.901 83.9129 309.795 84.8562 309.325 85.9512C308.856 87.0462 308.896 88.2651 308.986 89.4402C309.488 95.9938 311.35 102.456 314.441 108.37C319.501 105.744 324.562 103.118 329.623 100.492C331.202 99.6725 332.809 98.8329 334.036 97.6014C335.264 96.3699 336.072 94.6586 335.715 93.0155C335.358 91.3724 333.572 89.9772 331.798 90.3109Z" fill="#FFB61D"/>
<path fill-rule="evenodd" clip-rule="evenodd" d="M284.263 418.709C299.034 417.151 313.9 416.366 328.766 416.36C331.493 416.359 333.866 414.397 334.974 412.09C336.082 409.783 336.171 407.18 336.172 404.655C336.177 395.273 335.224 385.916 334.272 376.575C333.886 372.787 333.5 368.999 333.114 365.211C332.88 362.912 332.632 360.563 331.586 358.467C329.772 354.829 325.756 352.464 321.572 351.446C317.387 350.427 312.989 350.566 308.665 350.713C294.309 351.2 279.953 351.686 265.597 352.173C273.873 349.363 282.886 349.231 291.699 349.131C298.457 349.055 305.214 348.979 311.971 348.902C318.877 348.824 326.769 349.145 331.175 354.071C334.021 357.253 334.65 361.61 335.125 365.718C336.623 378.654 337.721 391.629 338.415 404.623C338.646 408.929 338.46 413.989 334.673 416.498C332.555 417.901 329.808 418.112 327.21 418.275C311.39 419.267 295.569 420.259 279.748 421.252C276.034 421.485 272.119 421.683 268.778 420.163C267.617 419.635 266.424 418.441 267.048 417.392C272.19 419.985 278.445 419.323 284.263 418.709Z" fill="#00160A"/>
<path fill-rule="evenodd" clip-rule="evenodd" d="M221.695 211.208C221.991 211.618 222.059 212.129 222.118 212.619C222.257 213.761 222.395 214.903 222.534 216.044C222.698 217.399 222.732 219.037 221.519 219.81C220.872 220.222 220.039 220.256 219.254 220.275C202.751 220.688 186.248 221.101 169.745 221.514C168.683 221.541 167.455 221.498 166.804 220.721C166.395 220.233 166.332 219.577 166.294 218.961C166.174 217.025 166.14 215.085 166.194 213.146C166.202 212.851 166.22 212.534 166.418 212.302C166.655 212.025 167.073 211.957 167.452 211.909C184.504 209.77 201.785 209.206 218.958 210.226C219.971 210.286 221.13 210.426 221.695 211.208M221.017 218.635C219.341 217.796 221.029 215.339 220.42 213.667C219.897 212.232 217.907 211.892 216.273 211.806C200.712 210.986 185.07 211.497 169.61 213.333C169.041 213.4 168.41 213.502 168.064 213.926C167.722 214.345 167.784 214.927 167.862 215.448C167.982 216.253 168.102 217.058 168.223 217.863C168.318 218.498 168.462 219.209 169.038 219.565C169.456 219.822 169.993 219.82 170.495 219.808C187.335 219.417 204.176 219.026 221.017 218.635Z" fill="#00160A"/>
<path fill-rule="evenodd" clip-rule="evenodd" d="M252.74 238.262C252.819 236.566 252.897 234.869 252.976 233.173C253.129 229.866 253.316 226.435 254.976 223.504C256.636 220.572 260.22 218.294 263.699 219.055C265.875 219.532 267.882 221.116 270.07 220.691C271.976 220.32 273.145 218.576 274.755 217.561C278.593 215.143 283.943 217.39 287.117 220.526C290.537 223.907 292.761 228.31 293.37 232.908C293.421 233.298 293.448 233.737 293.176 234.039C292.952 234.289 292.583 234.376 292.241 234.449C290.92 234.729 289.598 235.009 288.277 235.29C287.152 235.528 285.985 235.768 284.854 235.551C283.724 235.334 282.639 234.527 282.548 233.462C282.21 239.416 287.026 245.104 285.684 250.935C285.185 250.683 284.686 250.43 284.187 250.178C285.364 244.33 279.736 238.669 280.911 232.821C281.067 232.047 281.402 231.223 282.149 230.847C282.897 230.472 284.078 230.899 284.049 231.685C284.002 232.946 285.471 233.888 286.833 233.877C288.195 233.866 289.434 233.19 290.598 232.534C291.012 232.301 290.899 231.723 290.726 231.304C289.438 228.175 287.745 225.191 285.695 222.433C284.309 220.57 282.639 218.727 280.337 217.971C278.034 217.214 274.992 217.986 274.145 220.108C273.152 222.592 269.403 222.76 266.649 222.043C263.896 221.327 260.805 220.209 258.349 221.565C256.294 222.699 255.607 225.115 255.222 227.301C254.561 231.051 254.257 234.854 254.312 238.653C254.424 239.233 255.222 239.42 255.858 239.404C259.207 239.324 262.317 236.878 262.944 233.83C263.847 234.791 264.169 236.094 264.461 237.338C265.472 241.649 266.483 245.959 267.494 250.27C267.805 251.597 267.442 253.636 265.999 253.395C265.345 248.694 264.377 244.03 263.1 239.439C260.688 239.947 258.276 240.455 255.864 240.963C255.123 241.119 254.295 241.263 253.648 240.896C252.754 240.391 252.695 239.231 252.74 238.262Z" fill="#00160A"/>
<path fill-rule="evenodd" clip-rule="evenodd" d="M323.311 355.334C324.541 356.569 322.629 358.849 323.757 360.166C324.342 360.849 323.924 361.934 323.149 362.429C322.374 362.924 321.381 362.99 320.441 363.041C304.28 363.911 288.118 364.78 271.957 365.65C270.859 365.709 269.546 365.674 268.946 364.82C268.683 364.448 268.62 363.988 268.563 363.546C268.416 362.396 268.268 361.246 268.121 360.096C268.074 359.735 268.033 359.348 268.216 359.027C268.518 358.497 269.269 358.382 269.914 358.33C286.899 356.941 303.904 355.768 320.923 354.809C321.769 354.762 322.736 354.757 323.311 355.334ZM321.456 357.276C321.403 356.992 321.334 356.682 321.089 356.505C320.845 356.328 320.504 356.34 320.195 356.361C305.125 357.378 290.055 358.396 274.986 359.413C273.767 359.495 272.504 359.589 271.44 360.145C270.376 360.7 269.574 361.858 269.894 362.95C269.992 363.288 270.203 363.609 270.527 363.791C270.923 364.013 271.419 363.997 271.882 363.974C287.792 363.175 303.702 362.375 319.613 361.576C321.504 361.481 321.776 359.005 321.456 357.276Z" fill="#00160A"/>
<path fill-rule="evenodd" clip-rule="evenodd" d="M336.062 341.934C338.922 348.904 339.834 356.408 340.723 363.818C342.788 381.035 344.852 398.252 346.917 415.47C345.381 415.587 344.673 413.761 344.482 412.344C341.354 389.179 340.347 365.714 335.057 342.888C335.392 342.57 335.727 342.252 336.062 341.934Z" fill="#00160A"/>
<path fill-rule="evenodd" clip-rule="evenodd" d="M243.788 222.003C243.343 221.827 243.352 221.184 243.694 220.866C244.035 220.548 244.552 220.472 245.032 220.415C248.625 219.993 252.249 219.787 255.871 219.799C255.679 221.23 253.683 221.649 252.127 221.715C249.513 221.827 246.899 221.939 244.285 222.051C244.117 222.058 243.943 222.064 243.788 222.003L243.788 222.003Z" fill="#00160A"/>
<path fill-rule="evenodd" clip-rule="evenodd" d="M264.063 397.092C263.764 391.967 263.466 386.843 263.167 381.718C262.364 367.926 261.535 353.992 257.389 340.723C256.859 339.029 256.255 337.31 255.082 335.92C252.146 332.442 246.711 332.042 241.943 332.042C223.561 332.043 205.179 333.661 187.126 336.869C185.292 337.195 183.385 337.569 181.921 338.644C179.595 340.351 178.982 343.352 178.766 346.093C178.372 351.098 178.762 356.154 179.921 361.056C179.258 360.953 178.594 360.851 177.931 360.748C175.498 356.057 174.39 350.783 174.745 345.59C174.9 343.334 175.348 341.038 176.603 339.1C179.724 334.279 186.595 333.123 192.631 332.524C207.944 331.005 223.315 329.983 238.706 329.458C244.901 329.247 251.901 329.408 256.152 333.585C258.291 335.686 259.374 338.51 260.224 341.288C263.177 350.939 263.992 361.022 264.792 371.025C265.574 380.799 266.356 390.573 267.137 400.346C267.321 402.643 267.502 404.976 267 407.232C265.365 414.583 256.91 419.055 248.862 419.944C240.813 420.833 232.71 419.13 224.605 419.005C213.706 418.837 202.743 421.52 191.993 419.844C188.897 419.361 185.605 418.345 183.903 415.903C182.723 414.208 182.51 412.107 182.329 410.098C181.054 395.922 179.779 381.746 178.505 367.57C178.419 366.621 179.182 365.206 179.969 365.819C181.375 379.473 182.78 393.128 184.186 406.782C184.376 408.631 184.583 410.533 185.511 412.179C186.858 414.568 189.576 416.088 192.393 416.764C195.211 417.441 198.165 417.386 201.076 417.35C213.391 417.201 225.712 417.485 238.003 418.201C242.114 418.441 246.269 418.727 250.329 418.088C254.39 417.449 258.419 415.774 260.94 412.758C264.529 408.462 264.379 402.516 264.063 397.092Z" fill="#00160A"/>
<path fill-rule="evenodd" clip-rule="evenodd" d="M243.164 216.461C244.31 215.633 243.347 213.937 243.573 212.607C243.892 210.726 246.42 210.08 248.463 209.861C261.584 208.457 274.798 207.793 288.007 207.874C289.106 207.881 290.405 207.994 290.958 208.874C291.623 209.929 291.004 211.772 292.262 212.142C292.852 212.315 293.61 211.994 294.057 212.391C294.797 213.047 293.419 213.933 292.398 214.018C276.941 215.303 261.45 216.242 245.944 216.837C244.995 216.873 243.99 216.896 243.164 216.461M289.337 210.534C288.976 209.693 287.767 209.57 286.791 209.584C274.337 209.759 261.891 210.329 249.48 211.293C248.025 211.405 246.307 211.686 245.701 212.916C245.409 213.616 245.965 214.42 246.698 214.737C247.432 215.055 248.279 215.014 249.087 214.966C261.485 214.238 273.883 213.51 286.281 212.782C287.044 212.737 287.839 212.683 288.497 212.322C289.155 211.961 289.619 211.192 289.337 210.534Z" fill="#00160A"/>
<path fill-rule="evenodd" clip-rule="evenodd" d="M306.047 378.992C307.96 380.399 307.142 383.481 308.805 385.137C309.578 385.906 310.737 386.207 311.826 386.502C312.527 386.692 313.394 387.169 313.171 387.812C312.943 388.471 311.906 388.365 311.21 388.112C308.938 387.288 306.376 385.918 306.25 383.661C306.159 382.014 305.63 380.389 304.724 378.969C304.979 378.569 305.655 378.703 306.047 378.992V378.992Z" fill="#00160A"/>
<path fill-rule="evenodd" clip-rule="evenodd" d="M315.09 402.328C314.467 394.902 313.844 387.476 313.222 380.05C313.13 378.958 313.026 377.826 312.442 376.874C311.858 375.922 310.649 375.205 309.507 375.488C304.341 376.772 298.975 377.367 293.628 377.25C288.952 377.147 284.168 376.514 279.669 377.7C279.753 379.763 279.837 381.825 279.92 383.888C279.945 384.49 279.982 385.129 280.352 385.625C281.389 387.015 283.965 385.956 284.55 384.355C285.135 382.755 284.606 381.004 284.707 379.317C284.724 379.018 284.789 378.679 285.064 378.521C285.647 378.185 286.208 378.987 286.358 379.608C286.787 381.387 287.215 383.25 286.709 385.013C286.202 386.775 284.437 388.371 282.484 388.138C280.46 387.897 279.632 390.458 279.583 392.347C279.485 396.117 279.387 399.886 279.29 403.656C279.259 404.843 279.72 406.482 280.993 406.348C284.281 406.003 287.569 405.658 290.857 405.313C291.652 405.229 292.506 405.156 293.205 405.516C293.904 405.876 294.273 406.856 293.701 407.373C289.839 407.686 285.977 407.999 282.116 408.313C280.988 408.404 279.817 408.491 278.753 408.133C277.689 407.775 276.763 406.838 276.859 405.793C277.809 395.538 278.022 385.225 277.495 374.943C277.383 372.756 280.26 371.646 282.585 371.242C289.962 369.961 297.486 369.406 304.989 369.588C307.505 369.649 310.247 369.88 312.071 371.485C313.928 373.119 314.293 375.694 314.549 378.054C315.509 386.901 316.468 395.747 317.428 404.594C317.48 405.071 317.492 405.638 317.08 405.928C316.834 406.102 316.504 406.12 316.195 406.132C312.993 406.256 309.791 406.379 306.589 406.502C304.892 406.567 303.066 406.601 301.654 405.728C300.685 405.13 300.045 404.179 299.482 403.235C298.132 400.97 297.053 398.567 296.272 396.083C295.047 398.922 294.271 401.927 293.978 404.973C292.43 405.128 292.142 402.978 292.502 401.575C293.245 398.682 293.987 395.788 294.73 392.895C294.843 392.454 295.023 391.944 295.489 391.808C296.176 391.607 296.703 392.369 296.954 392.993C297.999 395.596 299.045 398.198 300.091 400.8C300.991 403.04 303.587 404.386 306.151 404.662C308.715 404.938 311.284 404.34 313.784 403.748C314.279 403.63 314.84 403.461 315.032 403.024C315.128 402.806 315.11 402.562 315.09 402.328ZM280.253 375.138C282.572 375.166 284.891 375.193 287.21 375.221C288.952 375.242 290.695 375.263 292.437 375.232C298.726 375.123 305 374.342 311.097 372.91C309.737 371.617 307.556 371.544 305.607 371.576C298.633 371.692 291.664 372.068 284.722 372.702C282.864 372.872 280.556 373.432 280.253 375.138L280.253 375.138Z" fill="#00160A"/>
<path fill-rule="evenodd" clip-rule="evenodd" d="M269.873 369.577C269.741 368.905 270.681 368.539 271.409 368.434C279.822 367.227 288.348 366.693 296.86 366.841C296.982 366.843 297.108 366.846 297.221 366.889C297.62 367.044 297.601 367.626 297.284 367.899C296.967 368.172 296.5 368.218 296.069 368.248C287.963 368.811 279.739 368.521 271.798 370.127C271.061 370.276 270.009 370.264 269.873 369.577L269.873 369.577Z" fill="#00160A"/>
<path fill-rule="evenodd" clip-rule="evenodd" d="M459.221 359.478C459.824 358.159 460.491 356.767 461.773 355.965C462.854 355.288 464.209 355.139 465.506 355.009C469.356 354.621 473.207 354.234 477.057 353.847C478.961 353.656 481.418 352.912 481.346 351.14C481.112 345.417 481.591 338.826 486.501 335.342C490.992 332.156 497.718 333.03 502.327 336.07C506.936 339.11 509.855 343.844 512.374 348.536C513.489 350.614 516.543 350.992 519.011 350.592C521.479 350.191 523.981 349.292 526.416 349.84C530.165 350.683 532.06 354.474 533.349 357.841C539.815 374.74 544.203 392.357 552.245 408.665C555.253 414.764 554.301 422.376 549.868 427.677C549.32 423.467 550.082 419.119 552.039 415.285C552.96 413.479 549.893 412.291 547.735 412.297C525.749 412.348 503.67 412.407 481.927 415.427C481.263 415.519 480.558 415.632 480.063 416.052C479.581 416.46 479.394 417.078 479.228 417.662C478.554 420.034 477.879 422.405 477.205 424.776C476.783 426.262 477.048 428.568 478.699 428.413C500.217 426.395 521.851 425.433 543.479 425.531C545.753 425.542 548.858 426.378 548.564 428.466C525.523 428.717 502.398 428.975 479.607 432.116C475.978 432.616 473.472 428.455 473.884 425.079C474.295 421.703 476.387 418.675 476.976 415.321C477.484 412.431 476.848 409.483 476.164 406.624C475.077 402.079 473.863 397.561 472.523 393.074C471.214 388.696 469.787 384.349 468.359 380.003C466.199 373.429 464.04 366.855 461.88 360.281C458.91 364.308 457.587 369.35 458.23 374.189C458.678 377.559 460.027 380.759 461.038 384.022C462.483 388.687 463.242 393.507 463.997 398.31C465.483 407.77 466.969 417.23 468.456 426.69C468.674 428.082 468.243 430.132 466.74 429.927C460.058 410.786 461.892 389.625 454.006 370.881C455.745 367.08 457.483 363.279 459.221 359.478ZM508.987 362.951C511.165 361.829 512.293 359.212 511.546 357.01C510.799 354.808 508.258 353.257 505.779 353.49C499.7 354.06 493.62 354.631 487.541 355.201C486.98 355.254 486.352 355.34 486.014 355.759C485.749 356.089 485.743 356.535 485.769 356.946C485.931 359.519 486.895 362.043 488.515 364.138C489.774 365.766 491.515 367.714 490.532 369.497C489.304 371.726 485.267 370.477 484.266 368.153C483.264 365.83 483.977 363.207 483.791 360.712C483.605 358.216 481.667 355.343 479.003 355.759C474.634 356.44 470.264 357.121 465.895 357.802C465.267 357.9 464.449 358.258 464.633 358.822C469.953 375.13 475.274 391.437 480.594 407.744C481.257 409.777 482.752 412.292 484.985 411.81C505.478 407.378 527.087 411.569 547.895 408.657C541.662 390.558 535.212 372.523 528.548 354.557C528.351 354.026 528.129 353.463 527.64 353.132C527.099 352.766 526.371 352.777 525.701 352.803C522.58 352.925 519.459 353.048 516.337 353.17C515.102 353.219 513.419 353.764 513.689 354.881C514.538 358.382 515.386 361.883 516.234 365.385C516.38 365.987 516.523 366.632 516.281 367.207C515.621 368.772 513.132 368.377 511.472 367.7C510.382 367.256 509.236 366.769 508.563 365.86C507.89 364.951 507.947 363.486 508.987 362.951ZM500.943 337.547C498.549 335.921 495.401 334.749 492.638 335.756C491.675 336.107 490.839 336.697 490.018 337.279C488.554 338.317 487.046 339.402 486.183 340.91C485.379 342.313 485.214 343.943 485.064 345.525C484.932 346.908 484.801 348.29 484.67 349.673C484.588 350.531 484.555 351.515 485.227 352.111C485.871 352.682 486.882 352.641 487.77 352.562C494.128 352.002 500.486 351.442 506.844 350.882C507.75 350.803 508.858 350.575 509.096 349.761C509.19 349.44 509.115 349.099 509.03 348.776C507.858 344.314 504.941 340.264 500.943 337.547M498.562 352.174C497.921 352.341 498.633 353.453 499.098 353.013C499.694 352.787 499.034 351.752 498.533 352.125L498.562 352.174Z" fill="#FFB61D"/>
<path fill-rule="evenodd" clip-rule="evenodd" d="M333.196 246.005C333.11 245.74 333.281 245.463 333.482 245.258C334.467 244.253 336.117 244.178 337.583 244.175C346.471 244.156 355.359 244.137 364.247 244.118C364.873 244.116 365.544 244.127 366.054 244.462C366.564 244.797 366.764 245.586 366.274 245.946C366.013 246.137 365.653 246.149 365.32 246.152C354.994 246.258 344.668 246.364 334.343 246.471C333.893 246.475 333.324 246.404 333.196 246.005Z" fill="#00160A"/>
<path fill-rule="evenodd" clip-rule="evenodd" d="M336.49 254.502C335.954 254.216 336.028 253.417 336.479 253.025C336.929 252.634 337.586 252.542 338.199 252.473C341.878 252.062 345.578 251.837 349.276 251.611C351.313 251.487 353.351 251.362 355.388 251.238C358.037 251.077 360.685 250.915 363.334 250.754C364.176 250.702 365.115 250.68 365.749 251.195C366.382 251.71 366.228 252.949 365.386 252.997C356.038 253.534 346.689 254.07 337.341 254.606C337.051 254.623 336.742 254.636 336.49 254.502L336.49 254.502Z" fill="#00160A"/>
<path fill-rule="evenodd" clip-rule="evenodd" d="M386.6 265.693C387.307 264.451 388.073 263.147 389.373 262.422C390.672 261.698 392.666 261.848 393.365 263.094C394.11 264.42 393.002 266.019 391.701 266.904C390.401 267.789 388.801 268.413 387.956 269.687C392.524 272.474 397.091 275.261 401.659 278.048C405.236 280.23 409.284 283.348 408.552 287.257C408.122 289.549 406.025 291.33 403.689 292.185C401.352 293.04 398.784 293.129 396.273 293.196C379.397 293.646 362.505 293.567 345.635 292.959C344.465 292.916 343.16 292.815 342.38 292.006C341.776 291.379 341.651 290.485 341.553 289.649C340.583 281.335 339.612 273.021 338.641 264.706C338.605 264.399 338.571 264.079 338.689 263.79C339.189 262.576 341.15 263.324 342.247 264.134C350.012 269.874 362.427 269.199 369.415 262.659C371.104 261.078 373.978 261.282 376.147 262.235C378.316 263.188 380.131 264.738 382.307 265.678C382.075 264.513 383.185 263.283 384.464 263.288C385.744 263.293 386.842 264.53 386.6 265.693ZM387.555 271.05C387.001 269.163 383.989 268.767 382.328 269.975C380.667 271.182 380.129 273.286 379.984 275.237C379.931 275.964 378.638 276.037 378.195 275.434C377.753 274.83 377.932 274.018 378.178 273.325C378.827 271.496 379.826 269.774 381.114 268.264C381.752 267.516 380.817 266.504 379.975 265.956C377.004 264.022 372.796 262.113 370.071 264.336C362.602 270.427 350.689 271.239 342.338 266.225C342.437 272.466 342.934 278.702 343.824 284.889C343.914 285.512 344.029 286.178 344.494 286.636C345.109 287.243 346.117 287.285 347.016 287.286C361.523 287.303 376.03 287.32 390.537 287.338C391.949 287.339 393.868 286.872 393.758 285.569C393.502 282.536 394.952 279.423 397.51 277.514C395.498 276.161 393.486 274.808 391.474 273.454C390.86 273.041 390.218 272.617 389.47 272.498C387.213 272.14 385.705 274.536 384.906 276.524C383.683 274.499 385.109 271.552 387.555 271.05ZM349.64 291.759C364.747 291.869 379.855 291.845 394.962 291.689C399.25 291.644 404.258 291.241 406.583 287.904C385.723 288.753 364.832 288.963 343.956 288.534C343.696 290.854 347.121 291.741 349.64 291.759M401.341 279.29C400.891 279.026 400.426 278.757 399.902 278.673C398.32 278.422 397.072 279.885 396.385 281.228C395.988 282.004 395.642 282.804 395.352 283.62C395.13 284.242 394.939 284.903 395.078 285.545C395.217 286.187 395.786 286.794 396.493 286.802C399.062 286.829 401.631 286.803 404.199 286.726C404.804 286.707 405.463 286.667 405.917 286.295C406.45 285.857 406.515 285.102 406.382 284.453C405.898 282.105 403.521 280.569 401.341 279.29ZM392.266 264.104C392.238 263.38 391.193 263.012 390.471 263.291C389.749 263.571 389.305 264.236 388.908 264.861C388.429 265.616 387.95 266.372 387.471 267.127C387.219 267.523 387.083 268.197 387.567 268.296C388.842 267.315 390.118 266.333 391.393 265.351C391.82 265.023 392.286 264.618 392.266 264.104ZM384.001 265.285C383.784 266.262 384.325 267.341 385.271 267.818C385.598 266.812 385.406 265.672 384.763 264.807C384.723 264.562 384.365 264.42 384.146 264.563C383.978 264.76 383.918 265.033 383.989 265.275L384.001 265.285Z" fill="#00160A"/>
<path fill-rule="evenodd" clip-rule="evenodd" d="M332.059 236.48C331.676 234.761 331.293 233.042 330.909 231.324C330.76 230.656 330.623 229.914 331.002 229.329C331.517 228.531 332.698 228.425 333.702 228.409C358.361 228.011 383.029 228.098 407.683 228.669C409.365 228.708 410.746 230.053 411.258 231.537C411.77 233.022 411.601 234.624 411.428 236.173C411.334 237.011 411.185 237.945 410.464 238.457C409.873 238.877 409.066 238.888 408.322 238.88C383.558 238.63 358.795 238.379 334.031 238.129C333.624 238.125 333.192 238.115 332.847 237.914C332.343 237.62 332.18 237.02 332.059 236.48ZM335.465 229.916C333.643 229.904 332.35 231.909 332.806 233.543C333.261 235.178 334.966 236.303 336.738 236.7C338.509 237.097 340.364 236.906 342.179 236.748C364.542 234.813 387.156 238.512 409.504 236.425C409.62 235.166 409.732 233.864 409.294 232.667C408.856 231.471 407.715 230.398 406.351 230.389C382.722 230.232 359.094 230.074 335.465 229.916Z" fill="#00160A"/>
<path fill-rule="evenodd" clip-rule="evenodd" d="M183.369 286.262C182.544 287.71 181.406 289.181 179.699 289.612C176.449 290.433 173.762 287.092 172.875 284.083C171.49 279.385 171.84 274.264 173.854 269.765C174.931 267.358 174.033 264.513 172.344 262.429C169.159 258.5 163.216 256.779 158.11 258.116C153.003 259.453 148.974 263.659 147.906 268.472C147.739 269.225 147.857 270.284 148.679 270.39C152.783 270.922 154.667 275.382 155.292 279.175C155.769 282.072 155.977 285.106 154.915 287.867C153.854 290.627 151.258 293.051 148.103 293.273C145.271 291.508 143.14 288.802 142.189 285.767C140.421 280.121 142.718 274.136 145.09 268.683C146.537 265.356 148.091 261.948 150.84 259.421C156.718 254.019 167.693 254.66 172.79 260.704C174.751 263.029 175.876 265.917 178.049 268.074C179.687 269.7 181.853 270.838 183.347 272.578C186.592 276.359 185.803 281.99 183.369 286.262ZM143.987 275.824C142.499 279.622 142.914 284.02 145.09 287.521C145.447 288.096 145.873 288.669 146.497 288.994C147.122 289.319 147.993 289.324 148.487 288.843C149.967 287.402 150.152 285.224 150.147 283.235C150.141 280.884 149.985 278.532 149.678 276.198C149.553 275.242 149.339 274.186 148.505 273.612C147.67 273.038 146.103 273.518 146.234 274.473C146.616 277.252 146.997 280.03 147.378 282.809C147.465 283.441 147.542 284.125 147.2 284.678C146.857 285.23 145.913 285.488 145.48 284.993C144.357 282.872 144.019 280.404 144.533 278.091C144.718 277.26 144.846 276.122 143.987 275.824M178.341 286.843C178.72 286.569 178.897 286.124 179.039 285.699C180.151 282.353 180.163 278.701 179.072 275.35C178.658 274.076 177.534 272.585 176.173 273.012C175.386 273.259 174.987 274.056 174.737 274.789C173.599 278.121 173.75 281.817 175.157 285.059C175.427 285.68 175.761 286.308 176.332 286.719C176.903 287.129 177.771 287.255 178.341 286.843ZM151.63 274.82C152.622 279.473 152.411 284.342 151.02 288.907C150.892 289.327 151.407 289.655 151.838 289.832C153.924 285.146 154.188 279.785 152.572 274.943C152.304 274.766 151.941 274.719 151.63 274.82ZM180.575 273.563C180.267 274.019 179.959 274.474 179.651 274.93C180.667 274.771 181.132 276.054 181.186 277.007C181.312 279.209 181.437 281.412 181.563 283.614C182.509 283.285 182.681 282.135 182.698 281.199C182.738 279.092 182.778 276.985 182.817 274.878C182.477 274.841 182.136 274.804 181.795 274.767C181.76 274.17 181.217 273.634 180.575 273.563Z" fill="#00160A"/>
<path fill-rule="evenodd" clip-rule="evenodd" d="M292.131 277.56C285.351 277.261 278.542 277.533 271.816 278.373C271.22 278.447 270.554 278.51 270.076 278.174C269.597 277.837 269.65 276.945 270.247 276.884C276.974 276.2 283.729 275.759 290.494 275.564C291.229 275.543 292.053 275.555 292.577 276.034C293.101 276.512 292.866 277.593 292.131 277.56Z" fill="#00160A"/>
<path fill-rule="evenodd" clip-rule="evenodd" d="M134.648 252.494C136.573 252.327 138.498 252.159 140.422 251.992C141.392 251.907 142.361 251.823 143.331 251.739C149.498 251.202 155.665 250.666 161.837 250.189C162.08 250.17 162.333 250.153 162.557 250.239C163.225 250.496 163.123 251.496 162.54 251.893C161.958 252.291 161.171 252.268 160.448 252.245C151.358 251.965 142.298 254.495 133.25 253.639C132.662 253.584 131.893 253.303 131.997 252.765C132.877 252.648 133.763 252.571 134.648 252.494Z" fill="#00160A"/>
<path fill-rule="evenodd" clip-rule="evenodd" d="M341.943 437.469C341.641 435.018 341.424 432.35 339.644 430.514C338.278 429.105 338.985 426.487 340.906 425.839C342.827 425.19 345.187 426.774 345.121 428.666C345.098 429.316 344.842 429.936 344.644 430.559C343.286 434.817 344.547 439.397 346.206 443.562C347.888 447.779 350.461 452.268 355.079 453.655C360.422 455.258 366.334 451.709 368.702 446.994C371.07 442.278 370.71 436.803 369.883 431.659C369.8 431.143 369.65 430.547 369.139 430.329C367.061 429.44 366.745 426.318 368.609 425.089C370.474 423.859 373.557 425.154 373.785 427.263C373.863 427.978 373.666 428.691 373.519 429.397C372.497 434.295 373.848 439.431 372.729 444.311C372.028 447.367 370.349 450.224 367.958 452.428C365.423 454.765 361.999 456.376 358.422 456.432C353.606 456.508 349.102 453.742 346.38 450.063C343.658 446.383 342.49 441.901 341.943 437.469Z" fill="#00160A"/>
<path fill-rule="evenodd" clip-rule="evenodd" d="M201.499 236.212C201.633 237.892 201.761 239.621 201.196 241.222C200.631 242.822 199.195 244.28 197.383 244.424C188.044 245.167 178.704 245.911 169.347 246.424C156.588 247.123 143.807 247.392 131.029 247.662C130.573 247.671 130.085 247.673 129.704 247.44C129.134 247.091 129.027 246.37 128.974 245.738C128.836 244.084 128.698 242.43 128.559 240.776C128.517 240.273 128.486 239.73 128.778 239.304C129.207 238.681 130.125 238.574 130.922 238.53C154.423 237.24 177.958 236.467 201.499 236.212ZM197.567 242.014C199.069 241.921 199.373 239.733 198.272 238.783C197.171 237.834 195.499 237.813 193.995 237.847C174.653 238.292 155.305 238.738 136.002 239.953C134.612 240.041 133.165 240.148 131.964 240.801C130.762 241.454 129.894 242.827 130.354 244.045C131.006 245.775 133.527 245.966 135.502 245.844C156.19 244.567 176.879 243.291 197.567 242.014Z" fill="#00160A"/>
<path fill-rule="evenodd" clip-rule="evenodd" d="M177.485 278.008C177.504 278.463 177.523 278.918 177.541 279.373C177.58 280.319 177.618 281.273 177.47 282.21C176.188 282.084 175.79 280.557 175.715 279.365C175.68 278.798 175.668 278.164 176.078 277.742C176.488 277.319 177.462 277.44 177.485 278.008L177.485 278.008Z" fill="#00160A"/>
<path fill-rule="evenodd" clip-rule="evenodd" d="M269.831 281.885C271.089 280.809 273.002 280.842 274.714 280.888C280.129 281.03 285.561 280.642 290.888 279.734C291.516 279.626 291.854 280.531 291.463 280.998C291.072 281.466 290.364 281.563 289.729 281.623C283.724 282.189 277.695 282.524 271.66 282.627C270.941 282.64 270.029 282.525 269.831 281.885Z" fill="#00160A"/>
<path fill-rule="evenodd" clip-rule="evenodd" d="M471.993 300.684C471.399 302.544 469.426 303.694 467.545 304.546C458.128 308.81 447.058 309.854 436.906 307.435C433.497 306.623 429.612 304.743 429.466 301.486C429.359 299.092 431.423 297.085 433.609 295.801C436.962 293.833 440.871 292.838 444.769 292.137C452.288 290.784 460.44 290.505 467.246 293.758C470.097 295.121 472.902 297.834 471.993 300.684ZM431.791 301.124C431.797 303.755 434.966 305.295 437.714 305.963C447.258 308.281 457.697 307.28 466.526 303.202C467.943 302.548 469.438 301.685 469.888 300.279C470.493 298.391 468.913 296.49 467.16 295.374C461.884 292.018 454.906 292.477 448.542 293.108C443.42 293.615 437.962 294.279 434.058 297.39C432.851 298.351 431.787 299.65 431.791 301.124L431.791 301.124Z" fill="#00160A"/>
<path fill-rule="evenodd" clip-rule="evenodd" d="M194.928 146.588C194.607 144.897 195.867 143.216 197.49 142.386C199.113 141.555 201.026 141.395 202.877 141.294C219.382 140.395 235.862 142.849 252.373 143.656C254.498 143.76 256.738 143.868 258.526 144.938C260.314 146.007 261.363 148.406 260.127 150.009C259.528 150.785 258.539 151.216 257.558 151.503C254.727 152.331 251.69 152.221 248.724 152.103C233.289 151.488 217.853 150.874 202.417 150.259C199.353 150.137 195.459 149.385 194.928 146.588M197.046 144.137C196.174 145.275 196.904 146.974 198.164 147.739C199.424 148.505 201.012 148.591 202.518 148.654C218.877 149.336 235.235 150.017 251.594 150.699C253.188 150.765 254.954 150.78 256.161 149.814C257.369 148.849 257.209 146.546 255.634 146.314C237.443 143.636 218.984 142.524 200.571 142.996C199.279 143.03 197.795 143.161 197.046 144.137" fill="#00160A"/>
<path fill-rule="evenodd" clip-rule="evenodd" d="M377.147 135.003C380.41 128.706 385.702 122.215 393.223 121.678C398.233 121.321 403.548 122.132 407.513 124.99C414.705 130.174 415.205 140.226 412.636 148.322C409.607 157.865 402.847 166.703 393.15 170.983C390.838 172.004 388.323 172.767 385.762 172.674C378.959 172.427 374.005 166.239 372.541 160.082C370.534 151.644 373.11 142.792 377.147 135.003M385.607 170.369C390.635 171.003 395.374 168.038 398.921 164.677C405.57 158.379 410.034 150.132 411.505 141.43C411.928 138.922 412.104 136.32 411.368 133.876C409.918 129.067 404.995 125.592 399.713 124.592C394.633 123.63 389.05 124.777 385.135 127.924C383.253 129.437 381.791 131.347 380.515 133.329C376.352 139.794 373.986 147.316 374.276 154.838C374.407 158.236 375.102 161.69 376.96 164.623C378.818 167.556 381.968 169.911 385.607 170.369Z" fill="#FFB61D"/>
<path fill-rule="evenodd" clip-rule="evenodd" d="M249.053 337.514C249.567 337.489 250.119 337.472 250.555 337.727C251.093 338.042 251.29 338.669 251.445 339.241C251.784 340.492 252.125 341.795 251.852 343.06C251.579 344.326 250.5 345.542 249.108 345.598C245.556 345.742 242.004 345.885 238.451 346.029C237.058 346.086 235.426 346.27 234.734 347.39C234.265 348.15 234.404 349.093 234.558 349.956C234.994 352.403 236.225 355.497 238.901 355.407C240.681 355.347 242.268 356.599 243.035 358.088C243.801 359.577 243.916 361.272 244.018 362.919C244.113 364.469 243.686 366.588 242.01 366.626C240.658 366.658 240.285 368.349 240.328 369.601C240.626 378.307 240.925 387.012 241.224 395.717C241.272 397.12 239.33 397.71 237.822 397.851C225.186 399.032 212.418 399.001 199.788 397.758C199.335 397.714 198.757 397.549 198.747 397.127C198.513 387.291 198.279 377.455 198.045 367.618C198.032 367.045 197.728 366.252 197.131 366.403C195.248 366.88 193.356 365.262 192.966 363.492C192.576 361.722 193.245 359.915 193.904 358.214C194.208 357.428 194.55 356.594 195.279 356.101C196.834 355.05 199.71 355.798 200.406 354.136C200.521 353.861 200.544 353.56 200.532 353.265C200.435 350.696 197.852 348.669 195.131 348.161C192.409 347.653 189.605 348.321 186.955 349.087C186.347 346.965 186.192 344.733 186.499 342.556C186.572 342.043 186.685 341.503 187.057 341.116C187.589 340.565 188.474 340.489 189.271 340.45C209.198 339.471 229.126 338.493 249.053 337.514ZM195.923 357.443C195.54 357.855 195.455 358.43 195.386 358.97C195.206 360.377 195.026 361.784 194.846 363.192C194.808 363.488 194.773 363.8 194.901 364.073C195.177 364.658 196.012 364.759 196.701 364.775C200.359 364.859 204.017 364.944 207.675 365.028C208.292 365.042 208.94 365.05 209.488 364.787C210.369 364.364 210.731 363.215 210.233 362.42C210.681 362.377 211.129 362.335 211.576 362.293C211.379 363.52 212.73 364.548 214.055 364.728C215.381 364.908 216.714 364.533 218.05 364.436C220.851 364.231 223.647 365.248 226.438 364.943C226.731 364.911 227.045 364.854 227.25 364.657C227.519 364.4 227.514 363.997 227.492 363.64C227.386 361.925 227.28 360.209 227.174 358.494C227.141 357.954 227.091 357.373 226.716 356.958C226.181 356.366 225.222 356.347 224.389 356.377C220.361 356.521 216.334 356.666 212.306 356.81C212.025 356.82 211.714 356.842 211.519 357.03C211.3 357.241 211.316 357.571 211.345 357.862C211.481 359.197 211.616 360.531 211.751 361.866C211.217 361.914 210.693 362.059 210.217 362.29C210.099 361.238 209.98 360.186 209.861 359.135C209.752 358.176 209.346 356.948 208.306 356.935C204.982 356.894 201.658 356.853 198.334 356.812C197.47 356.801 196.487 356.837 195.923 357.443ZM215.074 367.79C215.018 367.082 214.687 366.145 213.924 366.221C209.184 366.692 204.387 366.665 199.654 366.14C199.771 375.69 199.963 385.24 200.23 394.787C200.265 396.016 201.94 396.508 203.26 396.634C207.183 397.006 211.133 397.133 215.075 397.013C215.398 397.004 215.747 396.983 215.994 396.789C216.317 396.534 216.338 396.087 216.334 395.693C216.221 386.383 215.801 377.076 215.074 367.79ZM238.777 367.264C238.647 367.058 238.352 367.015 238.095 366.995C234.018 366.675 229.919 366.585 225.83 366.726C225.46 366.739 225.063 366.762 224.77 366.972C224.324 367.291 224.296 367.894 224.309 368.416C224.534 377.948 224.76 387.479 224.985 397.011C229.487 397.414 234.07 397.02 238.415 395.858C238.686 395.785 238.973 395.699 239.147 395.495C239.336 395.275 239.348 394.971 239.352 394.691C239.437 388.558 239.266 382.425 239.096 376.294C239.015 373.406 238.934 370.517 238.854 367.629C238.85 367.503 238.845 367.372 238.777 367.264ZM188.218 343.1C187.436 344.238 188.277 345.845 189.562 346.481C190.847 347.117 192.386 347.055 193.841 346.977C202.64 346.505 211.439 346.033 220.238 345.561C228.629 345.11 237.021 344.66 245.399 344.029C246.626 343.936 247.915 343.82 248.929 343.173C249.942 342.526 250.531 341.16 249.851 340.209C249.169 339.256 247.702 339.213 246.469 339.271C228.186 340.145 209.902 341.018 191.619 341.891C190.356 341.951 188.897 342.112 188.218 343.1ZM223.388 396.789C222.769 387.484 222.647 378.152 223.021 368.836C223.042 368.3 223.061 367.744 222.831 367.253C222.157 365.819 219.991 365.823 218.322 366.062C217.559 366.171 216.585 366.509 216.642 367.222C217.357 376.133 218.073 385.059 217.913 393.993C217.891 395.176 218.623 396.345 219.742 396.916C220.861 397.488 222.318 397.437 223.388 396.789ZM242.271 362.439C242.053 361.209 241.826 359.953 241.179 358.86C240.531 357.768 239.372 356.853 238.028 356.791C235.475 356.673 232.922 356.556 230.368 356.438C229.704 356.407 228.785 356.593 228.817 357.208C228.915 359.079 229.012 360.95 229.109 362.821C229.152 363.638 229.316 364.624 230.133 364.933C230.397 365.033 230.689 365.041 230.974 365.047C234.302 365.117 237.631 365.188 240.96 365.258C241.595 365.271 242.128 364.754 242.301 364.188C242.475 363.622 242.373 363.019 242.271 362.439ZM226.153 353.219C225.82 351.92 225.473 350.59 224.675 349.478C223.878 348.366 222.525 347.497 221.086 347.595C218.87 347.745 216.654 347.896 214.437 348.047C213.056 348.141 211.493 348.325 210.683 349.365C209.704 350.623 210.376 352.379 210.111 353.91C210.018 354.448 210.472 354.963 211.015 355.172C211.559 355.381 212.169 355.356 212.756 355.328C216.724 355.139 220.692 354.95 224.66 354.761C225.242 354.733 225.941 354.635 226.173 354.14C226.308 353.853 226.232 353.523 226.153 353.219ZM233.107 350.866C232.352 349.909 232.37 348.49 233.15 347.55C231.76 346.75 229.812 346.898 228.58 347.897C227.349 348.896 226.934 350.664 227.607 352.046C227.844 352.533 227.709 353.11 227.876 353.622C228.113 354.348 228.934 354.804 229.748 354.898C230.561 354.991 231.377 354.793 232.169 354.597C233.208 354.34 234.473 353.826 234.463 352.83C234.455 352.036 233.613 351.508 233.107 350.866ZM208.312 354.275C208.772 352.88 208.153 351.288 206.97 350.324C205.787 349.36 204.13 348.984 202.56 349.115C201.929 349.167 201.271 349.312 200.815 349.718C200.359 350.125 200.195 350.857 200.606 351.302C200.91 351.632 201.431 351.728 201.749 352.045C202.234 352.53 202.07 353.305 202.292 353.933C202.795 355.352 204.876 355.486 206.482 355.351C207.031 355.304 207.638 355.232 208 354.846C208.152 354.684 208.244 354.481 208.312 354.275ZM208.572 349.58C208.944 349.246 209.012 348.66 208.724 348.261C208.082 348.085 207.365 348.438 207.028 348.973C207.279 349.505 207.984 349.812 208.586 349.652M226.87 348.098C226.963 347.865 226.908 347.587 226.732 347.399C226.123 347.221 225.414 347.381 224.962 347.798C225.428 348.287 226.274 348.419 226.886 348.098L226.87 348.098Z" fill="#00160A"/>
<path fill-rule="evenodd" clip-rule="evenodd" d="M472.168 308.544C452.661 315.607 433.154 322.671 413.648 329.734C405.257 332.772 395.549 337.332 394.649 345.633C406.048 337.513 420.128 332.667 434.488 331.922C424.568 343.496 412.042 353.145 397.946 360.07C385.288 366.29 369.262 372.924 368.176 386.155C381.771 371.165 402.672 362.09 423.811 361.999C410.287 380.341 388.601 393.351 364.995 397.284C365.806 402.92 366.616 408.556 367.426 414.193C375.447 413.93 383.516 414.992 391.139 417.315C396.568 438.912 401.997 460.509 407.426 482.106C408.762 487.421 409.939 493.528 406.424 497.908C402.937 502.252 396.353 503 390.521 503.384C367.539 504.897 344.556 506.41 321.573 507.922C318.821 496.379 316.07 484.835 313.318 473.292C274.551 476.625 235.784 479.958 197.017 483.291C188.853 483.993 180.219 484.623 172.831 481.329C146.036 469.384 113.546 492.505 85.2447 484.047C110.11 483.612 134.899 479.596 158.447 472.187C166.987 469.499 177.211 462.139 172.749 454.881C150.912 468.99 122.893 474.622 96.7034 470.168C98.2411 446.617 97.2522 422.926 93.756 399.555C112.391 397.087 130.756 392.874 148.48 387.002C153.41 385.368 158.482 383.488 161.992 379.891C165.503 376.294 166.923 370.482 163.838 366.564C136.88 379.865 105.754 385.818 75.3111 383.495C76.8996 415.392 78.4881 447.288 80.0767 479.184C75.5768 447.311 73.1904 415.182 72.9354 383.038C88.6062 381.751 104.277 380.465 119.948 379.178C117.428 368.82 114.893 358.226 116.187 347.677C117.481 337.127 123.345 326.444 133.652 321.792C125.854 306.392 114.07 292.739 99.5673 282.302C82.5659 270.066 60.7077 260.841 52.9438 242.244C47.8105 229.948 50.3284 215.645 57.4364 204.222C64.5444 192.8 75.8076 184.001 88.0494 177.27C71.1954 173.259 58.4293 157.702 58.7709 141.592C59.1124 125.481 72.528 110.401 89.539 107.005C81.5187 98.1548 68.8897 94.0985 59.665 86.3194C48.919 77.2573 43.519 62.6392 47.4333 49.6779C51.3477 36.7166 65.1298 26.5188 79.6512 27.0935C91.5792 27.5655 102.076 34.5511 110.402 42.4742C123.315 54.7619 132.919 70.0092 138.111 86.4664C141.572 97.4356 154.255 103.016 164.966 108.693C175.677 114.37 186.8 124.258 183.783 135.339C179.793 120.176 166.395 107.466 150.122 103.405C141.642 101.289 138.551 91.9453 135.824 84.2154C130.516 69.1734 121.455 55.2786 109.55 43.9253C100.603 35.3931 88.9055 27.9477 76.0809 28.5887C62.8786 29.2486 51.2405 39.1928 48.2222 51.1121C45.2038 63.0314 50.2645 76.0918 59.8977 84.4771C69.7097 93.0182 83.7469 97.2019 91.6574 107.294C74.5006 110.522 60.9364 125.811 60.8463 142.022C60.7562 158.233 74.1497 173.65 91.2697 177.042C79.2049 183.582 67.9155 191.889 60.472 202.846C53.0284 213.803 49.8375 227.711 54.2913 239.981C64.5929 268.362 107.53 275.136 122.683 301.585C126.787 289.104 120.771 275.981 117.679 263.252C114.587 250.523 116.335 234.177 129.152 228.756C125.406 212.039 121.66 195.322 117.915 178.605C115.123 166.148 113.723 150.366 125.296 143.509C117.142 141.168 109.905 136.18 105.142 129.619C110.285 136.909 120.192 141.045 129.497 139.789C117.738 116.184 104.699 93.127 90.4466 70.7318C105.804 92.1736 119.395 114.699 131.065 138.049C185.036 136.697 239.092 138.237 292.871 142.658C300.011 143.245 307.696 144.1 312.974 148.591C320.56 155.045 331.948 157.399 341.777 154.545C344.905 161.723 347.205 169.787 344.547 177.125C341.888 184.464 332.472 190.066 324.945 186.699C326.91 196.059 328.875 205.42 330.839 214.78C350.085 214.994 369.329 215.358 388.568 215.871C398.765 216.143 409.423 216.573 418.285 221.251C427.147 225.929 433.401 236.291 429.454 245C431.971 237.802 434.489 230.604 437.007 223.406C445.881 236.45 450.24 252.084 449.292 267.476C452.366 263.144 455.441 258.813 458.515 254.482C447.593 238.564 446.202 217.409 454.959 200.382C463.548 213.552 468.386 228.798 468.855 244.177C472.058 216.461 493.266 191.193 521.48 181.476C516.585 191.92 511.69 202.365 506.795 212.809C502.604 221.751 497.28 231.67 487.209 234.511C480.566 236.385 470.947 236.271 469.743 242.604C488.823 237.971 509.132 237.742 528.328 241.942C513.536 258.41 485.03 262.465 465.582 250.868C456.406 260.343 448.457 270.835 441.957 282.048C452.998 269.342 470.181 261.396 487.784 260.856C478.327 271.206 467.659 280.607 456.029 288.843C462.202 289.392 468.876 290.145 473.354 294.118C477.832 298.091 477.943 306.453 472.168 308.544ZM214.679 204.239C219.795 204.184 225.525 204.353 229.096 207.745C231.821 210.333 232.551 214.151 233.145 217.723C235.861 234.059 238.404 250.419 240.774 266.801C241.368 270.91 237.648 274.702 233.397 276.005C229.147 277.308 224.526 276.736 220.093 276.151C223.789 273.197 230.028 275.314 234.006 272.693C237.573 270.343 237.553 265.516 237.125 261.482C235.524 246.354 233.343 231.28 230.588 216.295C230.102 213.646 229.505 210.829 227.479 208.905C224.781 206.344 220.469 206.174 216.605 206.17C200.744 206.151 184.882 206.133 169.021 206.115C166.287 206.112 163.411 206.142 161.038 207.398C154.208 211.012 156.726 220.559 160.121 227.13C169.739 225.324 179.566 224.478 189.378 224.61C198.071 224.727 208.911 227.34 210.377 235.275C213.597 252.707 216.818 270.139 220.038 287.571C221.727 296.711 222.657 307.816 214.769 313.529C210.827 316.383 205.596 317.063 200.631 317.645C188.425 319.074 176.218 320.503 164.012 321.932C169.096 363.151 174.18 404.37 179.264 445.589C179.831 450.186 180.869 455.471 185.235 457.723C187.817 459.055 190.95 458.946 193.902 458.797C232.796 456.833 271.652 454.233 310.446 450.996C308.895 447.722 308.864 443.858 310.363 440.563C314.292 461.864 318.222 483.164 322.151 504.465C329.031 500.074 327.973 490.542 326.147 482.992C321.522 463.877 316.898 444.762 312.274 425.647C310.402 428.827 308.53 432.007 306.658 435.187C305.738 431.217 308.311 427.109 311.88 424.748C315.448 422.388 319.847 421.42 324.135 420.569C337.318 417.951 350.644 415.952 364.045 414.582C360.151 389.143 356.256 363.704 352.362 338.266C328.419 344.355 303.063 342.439 278.323 340.475C270.996 339.893 261.684 337.61 260.985 330.831C259.229 313.789 257.472 296.748 255.715 279.707C255.486 277.485 254.096 274.492 251.808 275.192C246.184 276.912 242.839 269.492 242.378 264.025C240.934 246.875 239.49 229.725 238.046 212.576C237.857 210.327 237.808 207.731 239.619 206.222C240.887 205.166 242.714 204.972 244.413 204.829C256.531 203.803 268.65 202.777 280.769 201.751C287.689 201.165 295.55 200.862 300.585 205.296C304.14 208.426 305.332 213.171 306.082 217.66C307.465 225.931 307.923 234.335 307.446 242.694C306.486 234.523 305.525 226.353 304.565 218.183C304.133 214.507 303.605 210.609 301.097 207.731C296.816 202.819 288.852 202.902 282.059 203.419C269.924 204.344 257.789 205.269 245.654 206.193C244.02 206.318 242.248 206.497 241.061 207.543C239.515 208.905 239.559 211.159 239.713 213.129C241.013 229.703 242.314 246.276 243.614 262.85C243.859 265.978 244.193 269.322 246.329 271.757C248.465 274.191 253.099 274.955 255.094 272.421C252.36 266.856 256.142 260.041 261.739 256.798C267.337 253.555 274.207 252.984 280.789 252.498C292.141 251.659 303.492 250.82 314.844 249.982C314.066 228.226 311.533 206.523 307.271 185.116C303.345 184.099 299.769 181.95 297.168 179.044C295.221 183.687 289.423 186.638 284.146 185.671C278.869 184.704 274.722 179.929 274.833 174.949C274.207 180.68 268.815 185.651 262.623 186.206C256.431 186.76 250.11 182.838 248.31 177.324C245.345 180.386 241.498 183.025 237.074 183.397C232.651 183.77 227.758 181.184 227.038 177.125C221.229 184.104 207.728 183.396 202.807 175.854C197.745 183.589 183.335 183.399 178.514 175.534C176.349 182.806 164.263 183.387 158.462 178.092C152.66 172.797 151.531 164.64 150.724 157.134C141.148 165.678 139.42 179.403 141.238 191.6C143.055 203.798 147.792 215.548 148.94 227.815C151.564 228.426 154.441 228.04 156.77 226.766C154.255 219.727 152.601 210.27 159.429 206.398C162.168 204.845 165.557 204.766 168.769 204.731C184.072 204.567 199.375 204.403 214.679 204.239ZM366.277 322.697C386.351 321.774 407.06 324.197 426.137 318.338C429.089 317.432 432.113 316.237 434.015 313.958C429.142 311.885 423.967 308.309 424.086 303.344C424.164 300.083 426.604 297.265 429.353 295.226C432.239 293.086 435.599 291.496 439.163 290.585C439.452 289.768 437.901 289.591 437.132 290.074C436.364 290.557 435.198 291.154 434.687 290.436C434.55 290.243 434.522 290.003 434.497 289.774C432.582 271.731 429.745 253.772 425.998 235.978C424.871 230.628 423.197 224.668 418.104 221.934C415.354 220.457 412.059 220.209 408.888 220.006C385.017 218.477 361.101 217.54 337.176 217.197C331.522 217.116 325.196 217.311 321.232 221.045C318.225 223.878 317.364 228.086 317.046 232.047C316.059 244.313 318.896 256.523 320.742 268.703C322.952 283.294 323.748 298.033 325.206 312.705C325.4 314.658 325.636 316.692 326.776 318.344C328.731 321.176 332.701 322.065 336.296 322.531C341.607 323.22 346.978 323.512 352.339 323.402C356.991 323.307 361.63 322.91 366.277 322.697ZM201.53 228.051C194.734 225.285 186.951 226.025 179.577 226.818C168.424 228.017 157.27 229.216 146.116 230.415C140.755 230.992 135.389 231.569 130.085 232.495C128.807 232.718 127.524 232.964 126.317 233.415C121.59 235.184 118.772 239.904 118.116 244.586C117.461 249.268 118.584 253.988 119.662 258.603C123.01 272.944 125.98 287.42 126.785 302.074C126.945 304.975 127.025 307.914 127.886 310.708C128.747 313.501 130.505 316.188 133.254 317.587C135.369 318.663 137.853 318.886 140.261 319.033C162.332 320.376 184.392 317.08 206.224 313.796C209.33 313.328 212.598 312.795 215.02 310.934C218.759 308.059 219.318 303.002 219.291 298.502C219.242 290.19 218.155 281.885 216.06 273.803C213.609 264.35 209.761 255.051 209.659 245.331C209.614 241.043 210.222 236.423 207.806 232.765C206.379 230.604 204.035 229.07 201.53 228.051ZM96.505 408.049C99.472 427.789 100.469 447.782 99.4786 467.691C99.4264 468.74 100.804 469.275 101.918 469.472C116.19 471.998 130.889 468.762 144.738 464.69C152.611 462.375 160.49 459.737 167.299 455.406C170.414 453.425 173.565 450.441 172.983 446.983C169.241 424.773 167.183 402.32 166.829 379.844C154.228 388.961 138.236 392.83 122.738 396.481C115.392 398.211 107.947 399.953 100.367 399.895C98.535 399.88 97.0137 401.371 96.5016 403C95.9896 404.629 96.2524 406.369 96.505 408.049ZM386.163 418.028C362.558 415.899 338.479 418.399 315.969 425.314C317.32 434.834 319.167 444.294 321.5 453.65C322.435 457.397 323.447 461.126 324.459 464.855C326.43 472.118 328.402 479.38 330.373 486.643C330.647 487.654 330.991 488.758 331.932 489.33C332.772 489.841 333.858 489.782 334.86 489.705C358.168 487.905 381.463 485.955 404.742 483.855C399.653 462.85 394.564 441.844 389.475 420.838C389.28 420.031 389.044 419.162 388.351 418.64C387.75 418.189 386.933 418.097 386.163 418.028ZM351.367 325.818C346.231 326.06 341.018 326.297 336.002 325.242C330.987 324.187 326.107 321.655 323.531 317.533C322.053 319.109 319.114 319.227 317.494 317.776C315.873 316.325 315.903 313.601 317.554 312.18C311.029 312.235 304.504 312.289 297.979 312.344C300.961 313.97 300.716 318.766 297.634 320.223C294.551 321.68 290.284 319.219 290.213 316.015C290.181 314.577 291.133 312.962 292.68 312.833C292.039 311.815 290.374 312.418 289.106 312.307C287.197 312.139 286.153 310.213 285.484 308.549C282.767 301.8 280.295 294.969 277.824 288.14C279.555 290.763 283.451 291.943 286.521 290.773C287.605 290.36 287.638 288.916 287.176 287.918C286.37 286.176 284.533 284.832 282.492 284.684C280.451 284.535 278.327 285.69 277.637 287.475C276.614 286.767 277.05 285.129 278.123 284.488C279.196 283.846 280.571 283.903 281.846 283.974C293.881 284.647 305.96 284.636 317.994 283.942C318.541 283.91 319.145 283.854 319.518 283.481C319.94 283.06 319.9 282.41 319.833 281.839C319.373 277.92 318.913 274.001 318.453 270.081C318.402 269.647 318.329 269.171 317.978 268.878C317.592 268.556 317.01 268.571 316.491 268.605C301.407 269.6 286.362 271.104 271.396 273.112C269.803 273.325 268.321 272.087 267.818 270.671C267.316 269.255 267.548 267.716 267.785 266.242C267.869 265.725 267.975 265.165 268.389 264.809C268.77 264.481 269.322 264.404 269.838 264.343C285.409 262.503 301.081 261.399 316.773 261.036C316.392 262.472 314.371 262.781 312.774 262.807C298.211 263.046 283.663 264.127 269.245 266.042C268.094 267.865 269.671 270.32 271.796 271.087C273.922 271.853 276.302 271.444 278.544 271.053C290.898 268.9 303.431 267.631 315.995 267.262C317.789 267.209 318.003 264.819 317.626 263.194C316.751 259.421 315.875 255.648 315 251.874C306.299 253.4 297.411 254.009 288.562 253.685C283.326 253.494 278.118 254.341 272.958 255.185C268.573 255.902 263.899 256.753 260.73 259.65C257.025 263.036 256.362 268.331 256.587 273.146C256.956 281.047 259.121 288.774 260.19 296.62C261.495 306.206 261.159 315.923 262.162 325.54C262.432 328.131 262.817 330.77 264.072 333.099C265.326 335.429 267.607 337.429 270.387 337.813C293.235 340.967 316.53 341.325 339.478 338.875C341.598 338.649 343.736 338.394 345.738 337.709C348.896 336.627 351.604 334.458 353.215 331.72C353.862 330.621 354.345 329.364 354.109 328.131C353.873 326.899 352.717 325.754 351.367 325.818ZM168.712 379.863C171.103 404.221 173.494 428.58 175.885 452.938C176.315 457.316 176.729 461.839 175.251 466.016C173.773 470.194 169.885 473.97 165.14 474.114C167.926 477.887 172.734 480.045 177.596 480.835C182.458 481.625 187.442 481.206 192.358 480.786C232.856 477.321 273.355 473.857 313.854 470.392C312.984 465.706 312.115 461.019 311.246 456.333C311.051 455.282 310.493 453.948 309.344 454.027C281.498 455.949 253.653 457.87 225.808 459.792C214.374 460.581 202.883 461.37 191.455 460.504C185.673 460.066 178.531 457.938 177.96 452.592C173.395 409.816 168.111 367.106 162.108 324.482C162.016 323.827 161.901 323.126 161.417 322.639C160.771 321.991 159.701 321.941 158.748 321.937C153.054 321.91 147.36 321.883 141.666 321.856C143.329 330.591 145.488 339.245 148.13 347.771C148.619 349.346 149.431 351.186 151.175 351.469C157.435 352.487 162.377 357.256 164.953 362.637C167.528 368.018 168.137 374.001 168.712 379.863ZM146.836 228.243C141.949 205.291 137.813 182.201 134.438 159.016C134.247 157.705 134.063 156.345 134.479 155.08C135.338 152.471 138.42 151.104 141.285 150.475C146.888 149.244 152.738 149.655 158.48 150.047C210.98 153.631 263.65 155.066 316.286 154.344C314.193 150.412 309.983 147.731 305.505 146.309C301.027 144.886 296.242 144.571 291.519 144.269C245.185 141.304 198.781 138.525 152.34 139.043C146.658 139.106 140.91 139.227 135.423 140.597C129.937 141.967 124.658 144.727 121.493 149.096C116.506 155.982 117.712 165.078 119.256 173.245C122.871 192.371 127.269 211.37 132.438 230.187C137.237 229.539 142.036 228.891 146.836 228.243ZM259.877 183.383C262.386 183.407 264.993 183.277 267.213 182.195C271.123 180.289 272.859 175.898 273.117 171.814C273.375 167.729 272.505 163.636 272.785 159.553C272.849 158.622 273.41 157.389 274.386 157.622C275.092 162.323 275.798 167.023 276.504 171.723C276.894 174.319 277.299 176.962 278.527 179.323C279.755 181.683 281.962 183.758 284.741 184.252C286.337 184.536 288.003 184.282 289.524 183.752C293.166 182.485 296.219 179.257 296.08 175.657C295.889 170.686 295.698 165.715 295.507 160.744C295.431 158.777 294.642 156.157 292.519 156.26C278.37 156.946 264.178 156.886 250.035 156.078C249.004 156.019 248.732 157.372 248.842 158.324C249.408 163.254 249.974 168.185 250.54 173.115C250.967 176.838 251.879 181.214 255.568 182.746C256.905 183.301 258.412 183.369 259.877 183.383ZM332.449 492.781C331.771 493.221 331.324 493.898 330.911 494.562C328.765 498.021 327.04 501.704 325.78 505.519C350.549 503.917 375.298 502.055 400.021 499.934C400.95 499.854 401.958 499.742 402.625 499.137C403.058 498.744 403.28 498.199 403.489 497.673C404.414 495.345 405.34 493.018 406.265 490.69C406.716 489.557 407.115 488.148 406.235 487.257C405.503 486.518 404.259 486.542 403.18 486.622C380.576 488.298 357.983 490.104 335.403 492.039C334.374 492.127 333.294 492.232 332.449 492.781ZM376.111 351.478C375.442 344.242 374.077 336.121 367.7 331.893C365.211 338.239 362.699 344.68 362.13 351.411C361.561 358.141 363.167 365.314 368.042 370.334C368.727 371.039 369.489 371.723 369.852 372.61C370.216 373.497 370.031 374.668 369.142 375.139C362.515 369.799 359.771 361.236 359.927 353.103C360.082 344.97 362.774 337.084 365.441 329.334C366.027 327.631 364.351 325.84 362.469 325.443C360.587 325.046 358.644 325.629 356.817 326.204C356.461 326.316 356.304 326.692 356.192 327.024C354.928 330.752 353.653 334.704 354.632 338.505C358.848 354.882 358.304 372.069 362.596 388.429C362.755 389.033 362.926 389.65 363.306 390.162C366.153 385.009 368.999 379.855 371.846 374.701C373.184 372.279 374.529 369.841 375.364 367.233C376.987 362.162 376.599 356.748 376.111 351.478ZM476.808 232.607C477.358 233.027 478.096 233.16 478.805 233.233C486.854 234.067 494.45 228.993 498.908 222.731C503.366 216.469 505.472 209.07 508.394 202.075C511.136 195.51 514.644 189.22 518.837 183.348C510.443 190.641 500.109 195.748 491.347 202.661C482.585 209.574 475.129 219.269 475.747 229.912C475.804 230.896 475.987 231.98 476.808 232.607ZM154.417 162.077C155.562 166.721 155.089 171.883 157.868 175.892C160.562 179.778 166.244 181.631 170.974 180.164C175.703 178.696 179.034 174.048 178.655 169.443C178.569 168.396 178.314 167.369 178.06 166.346C177.064 162.339 176.067 158.332 175.071 154.325C174.972 153.926 174.861 153.507 174.556 153.211C174.118 152.787 173.417 152.738 172.784 152.715C166.697 152.5 160.61 152.284 154.522 152.068C153.937 152.047 153.294 152.043 152.839 152.385C152.263 152.817 152.23 153.612 152.305 154.295C152.597 156.96 153.774 159.466 154.417 162.077ZM319.194 166.409C319.339 172.825 323.853 178.403 328.614 183.067C329.079 183.522 329.555 183.979 330.136 184.301C331.075 184.821 332.219 184.944 333.309 184.857C336.987 184.564 340.132 181.989 341.685 178.888C343.237 175.788 343.412 172.24 343.078 168.837C342.743 165.433 341.93 162.081 341.601 158.677C341.535 157.994 341.265 157.103 340.525 157.105C334.017 157.128 327.509 157.151 321.001 157.174C320.169 157.177 319.286 157.193 318.583 157.606C317.88 158.018 317.488 158.982 318.009 159.583C319.602 161.418 319.14 164.055 319.194 166.409ZM418.158 364.858C400.328 364.568 383.983 374.355 371.512 386.158C369.41 388.148 367.357 390.235 365.958 392.698C365.71 393.134 365.515 393.741 365.921 394.059C366.137 394.229 366.446 394.239 366.729 394.238C377.102 394.204 387.078 390.147 395.506 384.547C403.934 378.947 411.035 371.841 418.158 364.858ZM197.535 178.998C200.082 177.641 201.721 174.937 201.647 172.217C201.609 170.837 201.169 169.498 200.815 168.158C199.904 164.708 199.55 161.133 199.768 157.587C199.814 156.832 199.884 156.056 199.639 155.334C199.394 154.613 198.743 153.949 197.927 153.908C191.19 153.567 184.452 153.227 177.714 152.886C177.472 152.874 177.208 152.867 177.012 153C176.708 153.206 176.726 153.624 176.782 153.968C177.611 159.045 180.264 163.828 180.434 168.96C180.497 170.848 180.224 172.783 180.795 174.597C181.527 176.92 183.616 178.754 186.04 179.657C188.464 180.561 191.183 180.612 193.755 180.183C195.07 179.963 196.376 179.616 197.535 178.998ZM467.137 248.504C472.016 249.779 476.33 252.444 481.064 254.126C491.559 257.853 504.05 256.296 513.108 250.134C516.997 247.487 520.886 244.841 524.775 242.195C520.035 243.234 515.131 243.632 510.267 243.372C502.14 242.938 494.115 240.684 485.997 241.249C479.092 241.729 472.376 244.313 467.137 248.504ZM327.792 213.734C326.833 208.814 325.874 203.894 324.915 198.975C323.629 192.381 322.344 185.788 321.058 179.194C320.967 178.726 320.857 178.224 320.482 177.899C320.108 177.574 319.378 177.573 319.174 178.009C317.89 180.753 315.262 182.928 312.173 183.801C310.299 184.332 310.139 186.699 310.356 188.502C311.893 201.224 313.712 213.916 315.812 226.568C316.423 221.393 321.212 216.899 326.792 216.265C327.877 216.141 327.986 214.73 327.792 213.734ZM225.275 173.719C224.679 168.415 223.927 163.127 223.02 157.861C222.833 156.775 222.334 155.421 221.147 155.373C215.015 155.124 208.882 154.875 202.749 154.626C202.531 154.617 202.3 154.61 202.106 154.705C201.612 154.948 201.693 155.617 201.838 156.118C203.253 160.98 204.003 166.007 204.067 171.042C204.082 172.281 204.067 173.568 204.627 174.693C205.451 176.349 207.327 177.299 209.111 178.073C212.219 179.422 215.617 180.607 219.008 180.117C222.399 179.628 225.63 176.88 225.275 173.719ZM227.927 173.748C228.545 176.523 229.679 179.751 232.615 180.549C235.093 181.222 237.772 181.408 240.257 180.759C242.743 180.111 245.009 178.565 246.121 176.407C246.913 174.871 247.091 173.133 247.194 171.434C247.477 166.779 247.283 162.099 246.615 157.477C246.579 157.23 246.54 156.976 246.405 156.76C246.047 156.186 245.203 156.105 244.488 156.091C238.243 155.965 231.999 155.839 225.754 155.713C225.244 155.703 224.532 156.194 224.963 156.446C225.662 162.252 226.651 168.027 227.927 173.748ZM437.758 231.176C432.88 241.388 431.443 252.983 433.697 263.953C434.597 268.336 436.367 272.986 440.464 275.333C441.67 276.024 443.679 276.228 444.125 274.982C449.308 260.505 446.89 243.869 437.758 231.176ZM121.568 359.395C123.637 360.71 125.97 361.669 128.411 362.208C131.496 362.888 134.7 362.896 137.871 362.967C145.28 363.132 152.679 363.658 160.029 364.541C161.054 364.664 161.902 363.637 161.874 362.679C161.847 361.722 161.219 360.877 160.567 360.134C156.647 355.663 150.923 352.581 144.788 351.639C140.441 350.971 135.997 351.345 131.593 351.228C127.189 351.111 122.592 350.42 119.08 347.957C118.894 350.299 118.879 352.653 119.036 354.998C119.099 355.947 119.203 356.931 119.725 357.749C120.163 358.435 120.858 358.944 121.568 359.395ZM299.816 177.441C300.507 178.602 301.617 179.497 302.754 180.304C303.986 181.178 305.317 181.996 306.83 182.317C310.555 183.107 314.365 180.551 315.935 177.325C317.505 174.098 317.346 170.399 316.983 166.876C316.708 164.213 316.334 161.558 315.861 158.918C315.782 158.478 315.691 158.018 315.392 157.668C314.867 157.054 313.908 156.982 313.062 156.962C308.521 156.85 303.979 156.738 299.437 156.626C298.432 156.601 297.003 157.047 297.302 157.936C298.638 161.918 299.221 166.116 299.016 170.282C298.896 172.712 298.547 175.31 299.816 177.441ZM460.552 251.375C465.374 244.169 466.818 235.097 464.444 226.909C462.346 219.671 457.469 213.259 455.923 205.902C452.319 216.028 448.69 226.927 451.951 237.152C453.621 242.393 456.996 247.014 460.552 251.375ZM380.666 364.739C395.007 361.318 408.246 354.026 418.336 343.988C421.356 340.985 424.446 338.043 427.605 335.166C419.866 336.149 412.311 338.365 405.372 341.688C394.787 346.758 385.499 354.652 380.666 364.739ZM468.044 276.592C473.319 272.002 478.593 267.411 483.868 262.821C466.029 264.927 449.371 274.471 439.374 288.313C441.951 290.15 445.648 289.068 448.653 287.917C452.833 286.317 457.049 284.698 460.771 282.317C463.391 280.64 465.723 278.612 468.044 276.592ZM121.112 376.914C121.156 377.338 121.211 377.787 121.488 378.127C122.095 378.871 123.333 378.688 124.3 378.427C135.369 375.432 146.283 371.944 156.991 367.981C157.763 367.695 158.664 367.243 158.679 366.473C150.464 365.945 142.249 365.418 134.035 364.89C132.025 364.761 130.008 364.631 128.039 364.242C125.075 363.656 122.25 362.48 119.81 360.817C119.989 366.196 120.551 371.557 121.112 376.914ZM380.614 325.447C379.951 325.891 379.684 326.672 379.456 327.4C378.674 329.895 377.888 332.542 378.614 335.052C378.984 336.331 379.727 337.486 380.461 338.622C382.491 341.764 384.522 344.907 386.552 348.049C386.741 348.342 386.946 348.649 387.272 348.807C388.242 349.279 389.199 348.171 389.649 347.247C392.571 341.245 395.56 334.899 394.897 328.344C394.795 327.336 394.5 326.192 393.527 325.73C393.08 325.518 392.561 325.491 392.06 325.468C389.05 325.329 386.039 325.191 383.029 325.052C382.196 325.014 381.29 324.995 380.614 325.447ZM426.624 303.228C426.547 307.452 430.527 310.984 434.892 312.214C439.257 313.443 443.941 312.914 448.478 312.463C456.455 311.67 464.892 311.016 471.449 306.736C472.904 305.786 474.279 304.615 474.929 303.08C475.943 300.686 474.923 297.859 473.018 295.989C471.112 294.118 468.469 293.048 465.824 292.264C456.373 289.463 445.879 289.786 436.649 293.162C431.78 294.943 426.712 298.381 426.624 303.228ZM120.361 346.379C121.22 347.121 122.962 347.31 123.297 346.267C124.445 342.694 127.025 339.63 130.065 337.185C133.105 334.74 136.61 332.852 140.092 330.979C141.031 330.474 140.972 329.222 140.79 328.23C140.439 326.31 140.087 324.389 139.736 322.469C139.646 321.982 139.471 321.401 138.956 321.271C138.536 321.165 138.12 321.428 137.776 321.677C135.278 323.483 132.781 325.289 130.283 327.095C125.278 330.714 119.915 334.866 118.83 340.659C118.452 342.677 118.743 344.981 120.361 346.379ZM139.844 333.45C134.235 336.694 128.297 340.285 125.748 345.936C125.589 346.287 125.443 346.657 125.455 347.038C125.48 347.79 126.134 348.424 126.884 348.712C127.634 349.001 128.47 349.014 129.282 349.023C134.084 349.075 138.886 349.128 143.688 349.18C143.921 349.183 144.175 349.179 144.359 349.046C144.65 348.836 144.621 348.427 144.563 348.089C143.797 343.607 143.031 339.125 142.265 334.642C142.156 334.004 141.934 333.242 141.262 333.068C140.773 332.942 140.275 333.201 139.844 333.45ZM378.419 325.723C374.883 324.878 371.07 325.062 367.648 326.242C368.31 328.256 369.485 330.123 371.049 331.65C376.32 336.796 377.879 344.268 378.477 351.338C378.797 355.115 378.909 358.907 378.814 362.694C381.13 359.387 383.445 356.079 385.761 352.772C385.991 352.443 386.228 352.095 386.253 351.704C386.278 351.312 386.087 350.94 385.892 350.591C383.607 346.506 380.25 342.983 378.13 338.822C376.01 334.661 375.36 329.348 378.419 325.723ZM141.543 152.593C139.593 152.879 137.369 153.338 136.443 154.953C135.803 156.069 135.992 157.42 136.198 158.669C137.045 163.816 137.893 168.962 138.74 174.108C143.077 166.886 147.139 159.526 151.199 152.168C150.447 151.381 149.115 151.481 147.995 151.645C145.845 151.961 143.694 152.277 141.543 152.593ZM408.501 327.333C409.102 328.071 410.669 327.254 410.3 326.396C416.093 327.935 422.408 326.84 427.879 324.5C433.351 322.16 438.128 318.654 442.829 315.163C440.855 314.907 438.88 314.652 436.906 314.396C436.503 314.344 435.98 314.351 435.827 314.7C434.763 317.11 432.475 318.915 429.947 320.055C427.42 321.195 424.638 321.747 421.889 322.289C419.98 322.666 418.072 323.042 416.164 323.418C413.208 324.001 409.875 324.841 408.501 327.333ZM303.706 290.015C304.077 289.927 304.476 289.824 304.713 289.546C305.081 289.115 304.897 288.494 304.801 287.952C304.704 287.409 304.852 286.687 305.438 286.592C305.971 286.691 306.217 287.277 306.23 287.78C306.243 288.284 306.123 288.809 306.32 289.278C306.758 290.324 308.316 290.365 309.517 290.223C310.228 290.139 310.939 290.056 311.65 289.972C311.872 289.945 312.11 289.913 312.276 289.772C312.802 289.326 312.07 288.598 311.907 287.956C311.782 287.459 312.032 286.922 311.868 286.435C311.588 285.606 310.396 285.479 309.458 285.507C302.284 285.728 295.11 285.948 287.935 286.168C288.059 287.426 288.43 288.662 289.026 289.797C289.154 290.042 289.306 290.294 289.56 290.429C289.819 290.567 290.135 290.558 290.433 290.545C292.217 290.468 294 290.392 295.784 290.315C295.935 290.308 296.095 290.299 296.222 290.222C296.547 290.023 296.434 289.563 296.285 289.229C296.027 288.655 295.77 288.081 295.512 287.506C295.288 287.006 296.265 286.71 296.676 287.095C297.087 287.479 297.103 288.082 297.297 288.592C297.699 289.651 298.915 290.298 300.119 290.434C301.323 290.57 302.531 290.291 303.706 290.015ZM407.9 325.182C408.291 324.796 407.428 324.394 406.862 324.458C403.631 324.825 400.4 325.192 397.17 325.558C396.738 325.607 396.167 325.827 396.271 326.218C397.332 330.243 396.933 334.586 395.154 338.388C394.816 339.112 394.593 340.218 395.404 340.461C398.773 334.861 402.992 329.702 407.9 325.182ZM297.825 293.051C297.724 292.725 297.61 292.384 297.342 292.154C297.039 291.892 296.6 291.825 296.188 291.783C294.072 291.569 291.914 291.703 289.847 292.179C290.494 294.121 291.14 296.062 291.787 298.004C291.909 298.372 292.074 298.784 292.46 298.929C292.657 299.003 292.878 298.99 293.09 298.976C295.18 298.84 297.27 298.705 299.36 298.569C298.906 296.716 298.394 294.876 297.825 293.051ZM284.218 299.84C284.451 299.958 284.735 299.921 284.996 299.882C286.888 299.596 288.78 299.311 290.672 299.025C289.989 296.999 289.307 294.973 288.624 292.947C288.524 292.65 288.399 292.324 288.103 292.176C287.869 292.059 287.585 292.084 287.321 292.113C285.634 292.294 283.947 292.476 282.26 292.657C281.943 292.691 281.567 292.765 281.45 293.04C281.37 293.227 281.445 293.436 281.521 293.624C282.264 295.481 283.007 297.338 283.75 299.195C283.85 299.444 283.967 299.713 284.218 299.84ZM305.476 291.746C305.076 291.425 304.484 291.447 303.956 291.487C302.29 291.614 300.623 291.741 298.957 291.868C299.455 293.845 300.082 295.794 300.834 297.701C300.932 297.951 301.044 298.214 301.273 298.375C301.56 298.575 301.952 298.564 302.31 298.544C303.448 298.481 304.585 298.417 305.722 298.354C306.246 298.324 306.883 298.221 307.059 297.763C307.143 297.543 307.089 297.3 307.034 297.072C306.688 295.646 306.342 294.219 305.996 292.792C305.903 292.411 305.794 292.003 305.476 291.746ZM295.536 305.951C295.371 305.975 295.195 306.004 295.075 306.111C294.842 306.319 294.949 306.679 295.071 306.957C295.509 307.949 295.947 308.941 296.385 309.933C296.547 310.301 296.73 310.692 297.093 310.905C297.428 311.102 297.849 311.106 298.246 311.104C299.758 311.095 301.27 311.087 302.782 311.079C303.003 311.077 303.244 311.07 303.414 310.939C303.723 310.703 303.608 310.248 303.466 309.901C302.884 308.481 302.302 307.061 301.721 305.642C301.534 305.186 300.849 305.18 300.329 305.255C298.732 305.487 297.134 305.719 295.536 305.951ZM308.257 291.466C307.939 291.467 307.581 291.483 307.367 291.7C307.109 291.963 307.191 292.374 307.289 292.717C307.719 294.221 308.148 295.726 308.578 297.231C308.654 297.496 308.742 297.778 308.971 297.951C309.276 298.181 309.716 298.138 310.104 298.083C311.538 297.88 312.971 297.678 314.404 297.475C314.25 295.935 313.986 294.404 313.614 292.896C313.498 292.425 313.337 291.91 312.896 291.651C312.566 291.457 312.151 291.452 311.76 291.454C310.592 291.458 309.425 291.462 308.257 291.466ZM311.174 310.902C310.71 309.34 310.245 307.778 309.781 306.216C309.603 305.619 309.352 304.943 308.729 304.718C308.422 304.607 308.08 304.632 307.752 304.658C306.223 304.782 304.693 304.905 303.164 305.028C303.567 306.427 304.044 307.807 304.594 309.163C304.871 309.846 305.29 310.619 306.067 310.736C307.753 310.988 309.473 311.044 311.174 310.902ZM313.837 310.793C315.223 310.898 316.745 310.969 317.865 310.206C317.379 308.457 316.893 306.707 316.408 304.957C316.298 304.563 316.152 304.124 315.762 303.937C315.476 303.799 315.132 303.837 314.813 303.878C313.439 304.055 312.065 304.232 310.692 304.409C311.018 306.261 311.572 308.079 312.34 309.816C312.458 310.083 312.591 310.359 312.837 310.535C313.115 310.733 313.487 310.767 313.837 310.793ZM437.382 285.886C438.441 283.873 439.5 281.861 440.559 279.848C440.67 279.637 440.784 279.408 440.744 279.176C440.704 278.95 440.526 278.769 440.357 278.602C438.849 277.127 437.342 275.651 435.835 274.175C435.208 274.967 435.28 276.044 435.38 277.021C435.708 280.23 436.036 283.438 436.364 286.646C436.826 286.741 437.175 286.279 437.382 285.886ZM315.36 291.233C315.162 291.22 314.936 291.217 314.798 291.348C314.643 291.496 314.678 291.735 314.723 291.937C315.021 293.269 315.319 294.601 315.618 295.933C315.728 296.427 315.859 296.955 316.261 297.294C317.563 298.394 320.071 296.503 321.281 297.689C321.494 295.797 321.341 293.871 320.832 292.028C320.796 291.899 320.754 291.762 320.646 291.673C320.522 291.57 320.343 291.554 320.177 291.543C318.571 291.44 316.965 291.336 315.36 291.233ZM285.408 301.113C285.234 301.135 285.053 301.159 284.911 301.253C284.594 301.461 284.606 301.892 284.652 302.25C284.773 303.202 284.906 304.189 285.444 305.008C285.982 305.828 287.046 306.435 288.047 306.187C289.48 305.831 290.914 305.475 292.348 305.119C292.286 303.85 292.009 302.59 291.529 301.4C291.409 301.103 291.259 300.79 290.964 300.629C290.658 300.462 290.275 300.501 289.924 300.546C288.418 300.735 286.913 300.924 285.408 301.113ZM318.85 289.979C319.281 289.918 319.741 289.846 320.062 289.571C321.017 288.754 319.925 287.094 320.699 286.127C321.002 285.749 320.261 285.412 319.754 285.431C317.489 285.52 315.225 285.608 312.96 285.697C313.047 286.564 313.21 287.426 313.446 288.269C313.709 289.209 314.699 289.853 315.723 290.061C316.748 290.27 317.813 290.125 318.85 289.979ZM300.544 301.275C300.252 299.978 298.377 299.674 296.97 299.917C295.563 300.16 293.992 300.631 292.796 299.902C292.872 301.272 293.217 302.628 293.81 303.885C293.935 304.149 294.086 304.424 294.357 304.566C294.662 304.726 295.04 304.675 295.386 304.62C296.773 304.398 298.16 304.176 299.547 303.954C300.234 303.845 301.14 303.341 300.778 302.788C300.49 302.348 300.657 301.779 300.544 301.275ZM291.976 306.601C290.843 306.778 289.71 306.956 288.577 307.134C287.963 307.23 287.208 307.458 287.142 308.031C286.977 309.479 288.535 310.647 290.077 310.936C291.619 311.224 293.219 310.942 294.784 311.085C294.72 309.854 294.442 308.632 293.964 307.482C293.85 307.208 293.715 306.926 293.464 306.747C293.057 306.456 292.483 306.521 291.976 306.601ZM321.839 303.791C320.335 303.643 318.806 303.717 317.327 304.009C318.144 305.811 318.725 307.705 319.052 309.636C319.201 310.522 320.567 310.539 321.505 310.318C321.854 310.235 322.236 310.132 322.436 309.854C322.608 309.614 322.6 309.304 322.585 309.016C322.505 307.426 322.424 305.836 322.344 304.246C322.339 304.145 322.332 304.039 322.269 303.957C322.177 303.835 321.998 303.806 321.839 303.791ZM297.285 318.038C298.703 316.728 297.976 314.083 296.054 313.559C294.133 313.035 291.974 314.895 292.399 316.707C292.839 318.581 295.819 319.393 297.285 318.038M308.429 302.677C309.331 301.587 307.981 299.978 306.52 299.741C305.059 299.503 303.579 300.022 302.096 300.002C301.549 299.994 301.527 300.755 301.704 301.234C301.934 301.853 302.163 302.472 302.393 303.091C302.487 303.344 302.657 303.648 302.946 303.631C304.003 303.57 305.061 303.509 306.118 303.448C306.963 303.399 307.915 303.299 308.429 302.677ZM323.046 313.202C322.937 312.928 322.776 312.661 322.521 312.489C322.292 312.335 322.007 312.269 321.726 312.238C319.507 311.99 317.352 314.04 317.68 316.088C318.625 317.127 320.403 317.415 321.672 316.732C322.941 316.05 323.553 314.477 323.046 313.202ZM309.346 300.822C309.298 301.723 310.153 302.492 311.09 302.735C312.028 302.978 313.025 302.821 313.984 302.663C314.475 302.582 315.025 302.464 315.282 302.069C315.83 301.225 314.742 299.678 315.746 299.355C315.072 299.269 314.398 299.184 313.725 299.098C312.835 298.985 311.915 298.873 311.051 299.101C310.188 299.329 309.391 299.992 309.346 300.822ZM317.4 301.975C318.421 302.797 320.13 302.684 321.078 301.791C322.027 300.898 322.15 299.384 321.435 298.321C319.648 298.628 317.862 298.935 316.075 299.241C316.3 300.237 316.57 301.307 317.4 301.975ZM455.459 286.162C454.068 286.64 452.676 287.117 451.285 287.594C450.594 287.831 449.893 288.073 449.294 288.471C451.57 289.293 454.44 288.218 455.459 286.162ZM326.141 183.915C326.105 183.346 325.455 182.881 324.851 182.992C324.89 183.571 325.513 184.058 326.136 183.996L326.141 183.915Z" fill="#00160A"/>
</svg>
