<svg width="549" height="527" viewBox="0 0 549 527" fill="none" xmlns="http://www.w3.org/2000/svg">
<path d="M480.918 390.768C477.656 454.368 426.698 512.002 364.233 524.399C301.768 536.796 233.404 503.822 202.967 447.883C199.608 441.71 196.617 435.235 193.626 428.761C185.905 412.047 178.186 395.339 164.15 383.842C148.123 370.716 127.512 367.205 106.693 363.659C93.4726 361.407 80.1687 359.141 67.902 354.389C38.331 342.934 15.3706 315.798 8.97013 284.739C-1.40191 234.407 31.4517 183.019 75.2631 156.159C119.075 129.299 171.72 121.819 222.785 116.054C242.32 113.849 258.188 99.1285 269.521 83.0657C273.908 76.8472 277.855 70.3129 281.8 63.7834C288.045 53.4467 294.282 43.1221 302.246 34.0816C335.968 -4.19912 398.766 -10.6588 441.718 16.8673C484.671 44.3934 505.23 100.995 493.807 150.716C491.84 159.279 489.047 167.618 486.255 175.957L486.254 175.958C483.581 183.941 480.907 191.924 478.957 200.106C474.789 217.594 473.994 235.691 473.519 253.663C472.953 275.09 472.82 296.573 474.827 317.914C475.525 325.338 476.482 332.752 477.438 340.165C479.612 357.01 481.785 373.846 480.918 390.768Z" fill="#D9C7FF"/>
<path d="M222.714 100.864C246.07 89.2449 264.66 69.0658 276.366 45.7531C277.901 42.6964 279.355 39.4487 279.302 36.0287C279.248 32.6087 277.258 28.9862 273.95 28.1176C269.209 26.8729 265.131 31.4186 262.175 35.3283C241.865 62.1863 212.305 83.271 178.948 87.8693C166.136 89.6354 153.129 88.9721 140.214 88.3053L120.041 87.2638C103.793 86.4249 87.3201 85.6028 71.4161 89.0313C55.5121 92.4597 39.972 100.705 31.237 114.431C28.4567 118.8 26.3741 123.948 27.1434 129.069C27.9317 134.317 31.662 138.771 36.1554 141.595C40.6488 144.418 45.8691 145.83 51.0426 147.012C54.8304 147.878 58.6992 148.644 62.575 148.371C68.9115 147.925 74.6619 144.774 80.257 141.708C80.6297 141.504 81.0017 141.3 81.3732 141.097C91.1522 135.763 101.285 131.025 111.854 127.504C127.266 122.371 143.472 119.858 159.637 117.352C181.415 113.976 203.121 110.612 222.714 100.864Z" fill="#D9C7FF"/>
<path d="M101.255 410.408L101.268 410.409C102.22 410.447 103.172 410.485 104.121 410.534C119.129 411.315 133.981 414.995 147.618 421.311C152.817 423.719 158.084 426.733 161.004 431.663C164.617 437.763 168.954 443.434 173.896 448.518C175.813 450.49 177.889 452.419 180.448 453.427C183.007 454.435 186.168 454.343 188.244 452.539C190.767 450.347 190.93 446.457 190.153 443.207C188.879 437.881 185.702 433.24 182.557 428.757C172.238 414.047 161.374 399.339 147.013 388.537C132.653 377.736 114.12 371.196 96.543 374.927C90.4738 376.215 84.4586 378.841 80.4348 383.564C76.4109 388.287 74.8208 395.394 77.7188 400.88C80.0179 405.232 84.6788 407.911 89.4506 409.117C93.2966 410.09 97.2796 410.249 101.254 410.408H101.255Z" fill="#D9C7FF"/>
<path d="M507.213 189.151C503.201 187.638 498.657 189.465 495.261 192.083C488.554 197.254 484.586 205.342 482.78 213.616C480.975 221.891 481.121 230.45 481.275 238.917L482.601 311.671C482.698 316.987 482.934 322.715 486.203 326.908C487.226 328.22 488.626 329.371 490.281 329.54C492.287 329.745 494.142 328.478 495.591 327.076C503.513 319.406 504.553 307.323 505.501 296.311L505.536 295.911C506.929 279.745 509.342 263.668 512.755 247.805C513.715 243.344 514.769 238.855 516.777 234.758C523.071 221.912 521.566 205.606 513.026 194.13C511.482 192.054 509.634 190.064 507.213 189.151Z" fill="#D9C7FF"/>
<path d="M363.498 287.629C367.732 288.796 371.524 292.321 371.94 296.692C372.742 294.953 374.506 293.697 376.412 293.506L373.645 296.446L377.146 296.516L372.329 299.206C375.315 304.729 374.832 311.541 372.917 317.521C371.745 321.181 370.051 324.847 370.381 328.676C370.706 332.442 374.051 336.289 377.706 335.518L377.889 335.476C382.283 334.366 387.094 335.009 391.042 337.233C396.715 340.429 400.156 346.364 404.055 351.578C407.497 356.182 411.571 360.463 416.662 363.129C421.754 365.796 427.998 366.677 433.302 364.462C435.934 363.364 438.29 361.545 441.083 360.966C443.876 360.388 446.737 361.94 447.763 364.587C448.217 365.758 447.241 370.095 444.756 375.162C445.16 375.046 445.583 374.971 446.025 374.942C459.089 374.094 472.273 371.254 483.515 364.547C487.089 362.415 490.427 359.917 493.741 357.398L495.673 355.926L496.842 355.026C504.114 349.392 511.293 343.112 514.283 334.543L514.439 334.082L514.771 333.069C515.41 331.152 516.221 329.17 518.072 328.575C520.634 327.751 522.967 330.231 524.524 332.425L535.744 348.244C536.033 348.651 536.327 349.071 536.437 349.557C536.924 351.707 533.715 352.793 531.647 352.03C527.887 350.641 524.869 346.506 520.924 347.215C518.151 347.714 516.494 350.399 515.123 352.929L514.777 353.574C506.474 369.12 492.501 381.557 476.098 388.003C471.869 389.664 467.5 390.937 463.138 392.208L454.326 394.775L455.879 395.052C469.027 397.357 483.055 398.765 494.996 392.938C502.946 389.059 509.07 382.38 514.847 375.631L516.944 373.167L517.808 372.138C521.354 367.885 524.723 363.331 525.758 357.941C526.155 355.871 528.768 354.884 530.8 355.444C532.832 356.005 534.379 357.612 535.818 359.153L546.726 370.828C547.585 371.748 548.49 372.763 548.616 374.015C548.741 375.268 547.618 376.685 546.41 376.334L534.581 372.898C533.472 372.576 532.243 372.261 531.199 372.755C530.398 373.133 529.881 373.909 529.423 374.675L516.707 396.149C513.126 402.196 506.49 405.702 499.97 408.324C484.333 414.612 467.366 417.567 450.525 416.934C448.696 416.865 446.865 416.754 445.056 416.469C438.263 415.399 432.127 411.944 426.187 408.45C427.229 412.26 426.3 415.473 420.114 415.717C414.634 415.933 401.212 393.372 397.038 392.201C374.255 385.813 370.514 373.201 363.194 364.587C363.194 364.587 348.403 366.498 338.637 364.462C315.745 359.69 300.361 345.008 294.814 344.074C289.268 343.139 285.611 346.694 283.898 344.538L283.898 342.975C284.163 342.546 286.814 340.069 294.374 341.678C304.931 343.924 321.808 352.403 334.697 353.987C348.227 355.649 359.688 353.449 359.625 353.079C359.496 352.326 362.897 349.125 360.18 347.508C357.462 345.892 318.015 330.06 309.441 316.866L309.339 316.701C307.865 314.254 306.745 308.173 309.711 310.957L310.541 309.485C313.736 312.497 324.222 319.382 335.116 326.169C346.633 333.345 362.897 337.941 363.194 337.74C369.823 333.256 363.944 330.011 362.847 329.058C360.279 326.828 356.869 325.612 354.657 323.029C349.349 316.832 353.14 305.749 347.074 300.294C346.156 299.468 345.042 298.819 344.377 297.779C343.238 295.997 343.798 293.517 345.178 291.914C346.558 290.311 348.577 289.416 350.573 288.719C354.719 287.271 359.265 286.463 363.498 287.629Z" fill="white"/>
<circle cx="367.055" cy="319.314" r="1.56526" fill="#FFB61D"/>
<ellipse cx="357.511" cy="319.314" rx="1.16082" ry="1.56526" fill="#FFB61D"/>
<path d="M300.788 326.9C286.235 323.136 270.94 322.268 256.055 324.359C257.18 318.796 258.59 313.291 260.277 307.871C255.434 309.434 249.715 304.995 250.029 299.916C250.342 294.836 256.562 291.133 261.177 293.279C262.762 289.621 262.862 285.345 261.451 281.617C260.774 279.828 263.473 278.797 265.385 278.796L275.952 278.794C277.43 278.794 279.489 278.107 279.122 276.677C278.252 273.284 280.585 269.407 283.991 268.587C287.334 267.782 291.098 270.072 291.962 273.39L292.007 273.575C292.809 277.138 297.323 278.27 300.975 278.2L302.793 278.156C305.951 278.09 309.243 278.192 311.357 280.402C313.885 283.044 313.32 287.252 312.487 290.839L312.431 291.077C311.25 296.057 309.991 301.018 308.655 305.957C311.25 326.848 304.822 327.943 300.788 326.9Z" fill="#7737FF"/>
<path d="M179.408 309.457C177.865 299.417 177.867 289.14 179.414 279.1L179.492 278.614C179.876 276.336 180.55 273.93 182.454 272.675C183.879 271.735 185.68 271.665 187.396 271.664L200.541 271.7C201.139 271.702 201.795 271.724 202.244 272.119C202.694 272.513 202.682 273.419 202.105 273.579C200.729 273.96 199.937 275.548 200.104 276.967C200.272 278.386 201.194 279.614 202.278 280.545C204.861 282.766 208.877 283.555 211.737 281.704C214.597 279.852 215.27 275.081 212.56 273.016C218.699 272.891 224.842 272.911 230.981 273.074L233.283 273.142C234.027 273.166 234.85 273.226 235.37 273.758C235.76 274.158 235.888 274.74 235.976 275.292C236.656 279.542 235.913 284.007 233.893 287.807C233.571 288.412 232.826 289.08 232.318 288.619C230.161 286.661 226.534 286.927 224.326 288.829C222.119 290.73 221.266 293.888 221.656 296.775C222.032 299.554 224.057 302.522 226.857 302.382C229.063 302.271 231.516 300.343 233.182 301.791L230.374 314.338C229.876 316.566 228.98 319.21 226.747 319.688C213.853 322.446 200.335 322.237 187.533 319.083L186.912 318.926C185.358 318.52 183.81 317.993 182.598 316.956C180.488 315.15 179.83 312.202 179.408 309.457Z" fill="#FF872C"/>
<path d="M280.562 211.004L311.719 211.63L312.228 211.642C313.164 211.672 314.107 211.754 314.949 212.147C316.854 213.036 317.727 215.227 318.306 217.248C321.398 228.033 321.016 239.784 317.231 250.346L317.072 250.778C316.579 252.078 315.935 253.373 314.772 254.104C313.815 254.706 312.647 254.832 311.512 254.893L311.269 254.905C306.636 255.125 301.987 255.006 297.371 254.551C299.775 253.071 300.382 249.468 298.856 247.093C297.329 244.719 294.104 243.727 291.389 244.498C289.734 244.969 288.192 246.1 287.593 247.713C286.994 249.326 287.573 251.398 289.103 252.185C290.161 252.73 289.978 254.445 289.052 255.193C288.126 255.94 286.838 255.993 285.648 256.012L270.016 256.265C268.841 256.285 267.606 256.289 266.574 255.727C265.111 254.928 264.439 253.209 264.026 251.594C263.032 247.698 262.898 243.585 263.636 239.633C264.524 242.754 268.371 244.65 271.388 243.453C274.404 242.256 275.905 238.239 274.412 235.357C272.919 232.475 268.771 231.385 266.054 233.159L265.941 232.152C265.551 228.622 265.248 225.046 265.926 221.569C266.668 217.76 268.786 214.02 272.259 212.29C274.792 211.028 277.716 210.958 280.562 211.004Z" fill="#FF872C"/>
<path d="M186.064 246.052C181.676 246.069 177.288 245.889 172.917 245.511L172.492 245.472C170.927 245.316 169.286 245.003 168.26 243.838C166.876 242.267 167.214 239.898 167.629 237.826L167.671 237.62C169.529 228.526 170.259 219.202 169.84 209.929L169.762 208.331C169.645 205.456 169.829 202.196 172.217 200.718C172.943 200.268 173.787 200.059 174.628 199.89L174.908 199.834C190.197 196.856 206.117 197.158 221.283 200.714C223.28 201.182 223.836 203.887 223.174 205.828C222.511 207.77 221.089 209.401 220.557 211.382C220.025 213.363 221 216.045 223.05 216.109C227.317 216.243 230.934 220.578 230.36 224.808C229.787 229.038 225.215 232.246 221.029 231.406C220.047 231.209 219.7 232.66 219.807 233.656L221.002 244.699C221.197 246.501 218.639 247.07 216.832 246.93L206.287 246.109C204.631 245.98 202.409 246.266 202.154 247.908C201.518 251.996 197.327 255.188 193.217 254.714C189.107 254.24 185.752 250.177 186.064 246.052Z" fill="#7737FF"/>
<path fill-rule="evenodd" clip-rule="evenodd" d="M157.682 314.01C158.852 314.294 160.526 314.8 160.434 315.906C158.561 338.204 150.502 334.1 143.315 340.494C141.416 342.183 140.281 346.179 139.466 346.271C142.49 347.667 146.879 353.271 154.433 353.527C175.48 354.241 183.14 338.884 183.14 338.884C183.636 333.959 181.138 325.091 184.255 327.575C186.407 329.289 185.982 320.938 188.921 321.77C189.804 322.019 188.262 327.572 188.921 327.904C189.285 328.087 189.824 326.573 190.764 325.369C191.548 324.365 192.758 323.622 193.008 323.841C193.177 323.99 193.015 325.425 192.309 326.639C191.317 328.346 189.658 329.988 189.89 330.262C190.145 330.563 194.52 326.492 194.787 326.847C196.557 329.209 185.345 356.389 166.424 361.52L164.926 361.923C153.896 364.853 149.265 365.253 139.046 361.52C134.201 359.751 131.187 376.281 128.494 381.783C126.793 385.257 118.533 393.771 114.761 391.196C109.785 387.799 105.727 381.476 101.492 378.278L101.22 378.078C98.3343 376.009 91.8066 372.868 81.6374 368.658L82.0955 368.446C84.2172 367.482 89.6822 365.123 93.8784 361.52C99.8407 356.401 103.07 345.406 107.226 339.476C111.33 333.621 116.837 334.483 113.513 333.447C113.513 333.447 105.092 328.985 101.22 328.577C88.2906 327.213 71.4353 333.323 66.0433 337.261C58.6448 342.664 65.9956 350.615 55.7728 346.718C52.3657 345.419 61.4975 328.592 74.0939 321.77C91.6024 312.286 108.157 309.677 124.755 324.774C131.51 330.918 132.179 336.387 133.99 340.557L133.619 339.535C153.642 338.215 123.641 318.169 148.688 313.152C151.318 312.625 154.079 313.174 156.715 313.783L157.682 314.01Z" fill="white"/>
<circle cx="144.787" cy="327.923" r="1.56526" fill="#FFB61D"/>
<circle cx="153.396" cy="331.054" r="1.56526" fill="#FFB61D"/>
<path fill-rule="evenodd" clip-rule="evenodd" d="M62.5273 388.626C79.4937 400.374 57.7857 384.147 76.3234 403.485C80.0669 407.39 99.0207 385.087 100.976 398.305C101.689 403.126 100.134 408.145 101.082 412.926C101.967 417.386 121.369 414.709 122.867 412.757C128.3 405.685 111.393 387.517 107.848 384.613C88.0655 368.407 81.5375 369.531 63.0533 386.298L62.5273 388.626Z" fill="white"/>
<path fill-rule="evenodd" clip-rule="evenodd" d="M503.887 94.9761C507.215 95.3739 510.309 95.7438 510.309 91.8652C510.309 90.9424 499.109 82.8358 495.79 85.9576C491.523 89.9722 488.133 94.576 484.85 99.0352C477.958 108.397 471.535 117.121 458.439 118.421L458.28 118.438C453.204 119.051 462.662 123.557 473.284 118.421C480.587 114.889 490.304 103.717 494.919 98.4099C496.126 97.0212 496.985 96.0342 497.359 95.6909L497.456 95.6085C499.029 94.3954 501.517 94.6929 503.887 94.9761ZM519.686 105.473L530.768 114.269C532.927 115.983 530.399 119.676 527.648 119.853C526.052 119.956 524.521 119.464 522.983 118.971C521.87 118.614 520.753 118.255 519.603 118.119C513.096 117.35 508.134 123.479 504.098 128.641C500.408 133.358 496.369 137.801 492.023 141.921L491.436 142.474L490.823 143.037C487.328 146.215 483.407 149.094 478.795 149.923C472.005 151.144 465.26 147.667 459.714 143.564C458.361 142.563 457.032 141.513 455.703 140.463L455.703 140.463L455.702 140.463L455.702 140.462L455.702 140.462L455.701 140.462C451.582 137.206 447.456 133.945 442.571 132.118C438.338 134.428 434.376 137.219 430.758 140.403L430.919 140.276C436.993 146.364 441.241 154.252 442.98 162.675L441.818 162.471L441.051 162.34C433.873 161.136 426.187 160.424 420.121 164.265C417.983 165.619 416.077 167.509 414.192 169.378C412.879 170.679 411.577 171.97 410.215 173.062C410.561 173.268 410.915 173.482 411.277 173.704C417.989 176.449 425.104 178.208 432.322 178.905C433.425 179.011 434.54 179.096 435.657 179.181L435.658 179.181L435.658 179.181L435.658 179.181L435.658 179.181L435.659 179.181C440.837 179.574 446.08 179.973 450.505 182.572L452.057 183.5C454.547 184.974 457.32 186.377 459.406 184.67C460.006 184.179 460.399 183.506 460.793 182.83C461.033 182.419 461.273 182.006 461.562 181.633C462.324 180.646 463.836 179.951 464.784 180.762L465.169 183.778C465.448 181.838 467.32 180.26 469.279 180.315C471.238 180.369 473.02 182.048 473.19 184.001C473.5 187.545 469.482 189.666 466.071 190.795L448.392 196.492C442.075 198.528 435.072 197.473 428.983 194.834C423.313 192.377 418.311 188.638 413.531 184.708L412.472 183.832C408.862 180.828 403.983 177.565 399.887 179.863C407.004 180.295 412.194 186.428 416.439 192.228L416.847 192.788C417.533 193.736 418.241 194.733 418.411 195.89C418.886 199.132 415.204 201.283 412.094 202.313C414.715 203.717 413.416 207.793 411.386 209.964C408.432 213.123 404.563 215.396 400.39 216.522L400.009 217.84C399.985 217.929 399.973 217.975 399.976 217.976C401.944 217.84 403.158 220.484 402.356 222.287C401.554 224.089 399.575 225.049 397.676 225.586C391.42 227.355 384.354 225.96 379.24 221.945L378.245 222.463C373.924 224.699 369.455 226.779 364.653 227.484C359.481 228.243 353.788 227.177 350.049 223.524L350.296 224.063C350.824 225.235 351.299 226.448 351.316 227.726C351.336 229.2 350.573 230.791 349.177 231.264C346.873 232.045 344.86 229.582 343.664 227.463C343.009 229.095 343.684 230.93 344.341 232.715C345.091 234.751 345.815 236.72 344.513 238.245C343.156 239.833 340.583 239.426 338.717 238.49C331.724 234.982 328.439 226.154 329.954 218.479C331.469 210.805 336.987 204.378 343.558 200.134C339.097 196.863 335.834 191.995 334.504 186.626C334.858 187.083 336.44 185.612 338.687 183.524C342.797 179.704 349.133 173.815 354.252 173.87C355.233 173.88 356.817 174.639 358.368 175.382L358.368 175.382C359.491 175.92 360.597 176.45 361.445 176.682C361.516 176.592 361.601 176.51 361.699 176.438L360.731 175.742C358.782 174.358 356.748 173.056 354.441 172.483C351.749 171.814 348.562 172.364 346.848 174.544C342.655 179.874 337.342 184.32 331.356 187.507L334.904 194.058C333.438 194.759 331.611 194.631 330.249 193.747L330.082 193.633L330.187 193.764C332.231 196.43 330.435 201.078 327.09 201.605C323.694 203.03 320.27 198.774 320.604 195.107C320.839 192.537 322.112 190.26 323.387 187.978L323.387 187.978C323.932 187.004 324.477 186.029 324.941 185.031C326.511 181.658 327.201 177.91 327.887 174.187C328.827 169.083 329.759 164.025 332.937 160.036C335.162 157.242 338.279 155.299 341.475 153.706C354.162 147.383 369.176 145.871 382.868 149.537C385.2 141.181 389.824 133.478 396.1 127.489L396.475 127.138C398.876 124.926 401.862 122.95 405.048 123.312L405.299 123.346C408.462 123.828 411.211 121.388 413.509 119.129L414.218 118.433L414.773 117.899C419.335 113.542 424.63 109.521 430.862 109.087C436.407 108.701 441.713 111.247 446.499 114.073C451.913 117.27 457.063 120.915 461.88 124.957L462.726 125.674C462.853 125.783 462.979 125.892 463.107 126.001L463.407 126.259C467.949 130.161 472.919 134.43 478.833 134.076C484.894 133.713 489.323 128.681 493.404 124.044C493.734 123.669 494.062 123.296 494.388 122.929C499.422 117.263 505.154 112.274 510.955 107.387L513.444 105.298C514.197 104.666 515.008 104.009 515.982 103.882C517.353 103.704 518.603 104.614 519.686 105.473ZM410.122 201.527C408.891 201.281 407.21 201.389 405.08 201.848C406.483 201.854 407.663 201.829 408.621 201.773C409.086 201.716 409.547 201.644 410.001 201.552L410.122 201.527ZM364.492 174.395C364.942 173.933 365.416 173.447 365.942 173.031C366.92 172.515 368.021 172.253 369.131 172.359C372.885 172.715 375.728 176.708 375.237 180.447C373.255 185.358 368.351 188.16 363.501 190.931C360.513 192.638 357.545 194.334 355.294 196.503C355.859 195.572 356.477 194.828 357.104 194.371C359.062 192.946 361.109 191.711 363.038 190.547L363.038 190.547C364.66 189.569 366.199 188.641 367.531 187.692C369.628 186.199 371.036 184.78 372.127 183.681C372.961 182.84 373.61 182.186 374.24 181.829C374.292 181.8 376.657 177.004 370.938 173.87C366.62 171.503 364.696 174.497 363.662 176.106C363.327 176.628 363.085 177.004 362.886 177.004C362.833 177.004 362.762 176.996 362.671 176.98C362.814 176.47 363.031 175.977 363.309 175.515C363.697 175.21 364.084 174.813 364.492 174.395ZM365.713 173.158C364.731 173.727 363.888 174.553 363.309 175.515L363.167 175.623C362.883 175.83 362.597 175.982 362.302 176.052C361.708 176.192 360.292 175.106 359.093 174.186C358.376 173.636 357.737 173.146 357.397 173.013C355.155 172.133 354.892 172.121 353.338 172.047C353.075 172.035 352.776 172.021 352.424 172L351.779 171.96C351.638 171.952 351.482 171.945 351.317 171.938L351.316 171.938C350.028 171.884 348.174 171.806 348.544 170.804C355.166 152.88 383.462 148.979 378.784 169.241C378.397 170.917 377.381 172.383 376.366 173.849C375.858 174.583 375.35 175.316 374.921 176.075C373.092 173.477 371.1 172.107 368.944 171.966C367.742 171.888 366.777 172.37 365.942 173.031L365.713 173.158ZM417.039 157.078L417.045 157.067C415.488 160.027 413.816 163.591 412.029 167.756C413.372 164.055 415.055 160.479 417.039 157.078ZM429.655 159.808L429.438 159.816C427.712 159.888 426.163 160.147 424.792 160.591C423.271 161.084 421.652 161.908 419.936 163.063C422.939 161.4 426.257 160.287 429.655 159.808Z" fill="white"/>
<path fill-rule="evenodd" clip-rule="evenodd" d="M341.365 234.878C340.009 236.466 338.042 235.953 336.241 234.197C332.471 230.522 330.956 223.431 332.471 215.757C333.986 208.082 339.89 204.92 346.461 200.676C343.512 199.461 338.171 191.761 337.634 184.278C339.452 186.623 339.548 190.832 341.365 193.177C343.09 195.403 346.536 198.112 348.261 200.338C348.481 200.622 348.671 201.099 348.359 201.277C342.059 204.855 337.977 206.039 334.261 215.756C330.546 225.473 338.09 234.462 339.092 234.197C340.327 233.871 339.889 232.233 339.18 231.171C337.179 228.175 339.082 224.179 340.713 220.967C341.585 221.944 339.489 224.748 339.931 227.664C340.362 230.511 342.573 233.464 341.365 234.878Z" fill="#E7EAEE"/>
<circle cx="367.055" cy="202.702" r="1.56526" fill="#FFB61D"/>
<circle cx="361.576" cy="196.441" r="1.56526" fill="#FFB61D"/>
<path d="M127.499 211.813C128.404 213.502 126.982 215.917 125.066 215.944C123.425 206.721 121.656 197.177 116.317 189.479C106.093 174.739 85.027 169.897 76.2743 154.239C70.3148 158.481 61.2021 157.4 56.4006 151.881C53.4146 148.449 48.2095 148.028 43.7252 148.794C39.2408 149.559 34.8597 151.252 30.3127 151.108C28.3397 151.046 26.1901 150.515 25.0418 148.91C23.8935 147.304 24.5569 144.478 26.511 144.198C35.024 142.98 43.5371 141.761 52.0501 140.543C52.7186 140.447 53.4281 140.333 53.9356 139.888C54.5098 139.384 54.6902 138.578 54.8391 137.828C56.0715 131.626 56.9595 124.232 52.3923 119.858C48.607 116.233 42.6328 116.358 37.4903 117.369C32.3478 118.38 27.0479 120.044 21.9798 118.709C16.9118 117.374 12.6734 111.353 15.4056 106.881C17.2355 103.885 15.1721 99.8901 12.3495 97.8033C9.52678 95.7166 6.01404 94.6887 3.27811 92.4894C0.542175 90.2901 -1.19415 86.0466 0.985062 83.2946C1.9435 82.0843 3.4442 81.4467 4.9165 80.9822C9.78928 79.4451 15.2227 79.3279 19.9197 81.339C24.6167 83.3502 28.4311 87.6608 29.1954 92.7128C29.8181 96.8286 28.6349 101.617 31.3557 104.767C34.913 108.886 41.4877 106.576 46.9298 106.526C52.4958 106.475 57.9999 109.426 61.0379 114.091C64.076 118.755 64.5507 124.982 62.2545 130.052C68.7198 123.474 77.4277 118.428 86.6447 118.772C95.1581 119.089 102.98 123.986 108.674 130.323C114.368 136.66 118.252 144.378 122.061 151.998C123.48 154.837 127.079 156.376 130.112 155.44C133.145 154.504 135.251 151.205 134.823 148.06C137.466 148.636 137.742 152.209 137.823 154.913C137.994 160.594 140.051 166.202 143.594 170.646C144.779 168.46 145.684 166.122 146.278 163.707C148.864 166.68 149.829 170.983 148.76 174.776C147.691 178.568 144.621 181.734 140.863 182.919C138.863 183.55 136.418 183.853 135.426 185.7C139.175 192.267 142.401 199.132 145.061 206.211C146.487 210.006 147.516 214.891 144.514 217.616C141.043 215.053 139.07 210.988 137.229 207.086C134.356 200.999 131.483 194.913 128.61 188.826" fill="white"/>
<path fill-rule="evenodd" clip-rule="evenodd" d="M136.975 150.886C136.221 158.257 138.979 165.909 144.263 171.103C146.147 169.966 147.351 167.785 147.31 165.585C149.289 168.84 148.18 173.255 145.718 176.163C143.256 179.071 139.724 180.814 136.296 182.478C134.332 183.432 132.293 184.404 130.111 184.469C126.782 184.569 123.799 182.567 121.077 180.647L113.091 175.016C117.217 182.716 126.609 187.2 135.191 185.567C141.159 193.939 144.813 203.942 145.646 214.19L144.042 211.226C144.039 211.219 144.036 211.212 144.033 211.204C144.03 211.198 144.027 211.192 144.024 211.186C144.021 211.181 144.019 211.176 144.016 211.171C144.006 211.153 143.996 211.136 143.984 211.118L144.042 211.226C144.272 211.794 143.371 212.423 142.764 212.129C142.118 211.817 141.875 211.039 141.684 210.348C139.334 201.828 135.124 193.827 129.432 187.066L138.05 205.326C139.892 209.228 141.865 213.293 145.336 215.856C148.338 213.13 147.309 208.246 145.883 204.45C143.223 197.372 139.997 190.506 136.247 183.94C137.053 182.44 138.817 181.958 140.523 181.492C140.917 181.384 141.309 181.277 141.685 181.159C145.443 179.974 148.513 176.808 149.581 173.015C150.65 169.223 149.685 164.92 147.099 161.947C146.505 164.361 145.601 166.7 144.416 168.886C140.873 164.442 138.816 158.833 138.645 153.152C138.563 150.448 138.288 146.875 135.645 146.299C136.073 149.444 133.966 152.744 130.934 153.68C127.901 154.615 124.302 153.077 122.883 150.238C119.074 142.617 115.19 134.899 109.496 128.562C103.802 122.225 95.9797 117.328 87.4664 117.011C78.2494 116.668 69.5415 121.714 63.0762 128.292C65.3723 123.221 64.8977 116.994 61.8596 112.33C58.8215 107.666 53.3175 104.715 47.7515 104.766C46.3396 104.779 44.8515 104.944 43.3596 105.109C39.101 105.581 34.8118 106.057 32.1774 103.007C30.3168 100.852 30.2819 97.9321 30.2466 94.9847V94.9847V94.9847V94.9847V94.9847V94.9846V94.9846C30.2303 93.622 30.214 92.2536 30.0171 90.9524C29.2527 85.9004 25.4384 81.5898 20.7413 79.5786C16.0443 77.5675 10.6109 77.6847 5.73816 79.2219C4.26585 79.6863 2.76515 80.324 1.80673 81.5343C-0.372502 84.2862 1.36383 88.5298 4.09976 90.729C5.53968 91.8865 7.19476 92.7195 8.85118 93.5532L8.85119 93.5532L8.8512 93.5532L8.85121 93.5532C10.3421 94.3036 11.834 95.0545 13.1711 96.043C15.9938 98.1298 18.0571 102.125 16.2272 105.12C13.4951 109.593 17.7334 115.613 22.8015 116.949C26.9909 118.053 31.3389 117.107 35.6254 116.175L35.6259 116.174C36.5246 115.979 37.4207 115.784 38.3119 115.609C43.4545 114.598 49.4287 114.472 53.2139 118.097C57.7812 122.471 56.8932 129.865 55.6607 136.068C55.5118 136.817 55.3315 137.623 54.7572 138.127C54.2497 138.573 53.5403 138.687 52.8718 138.782L27.3326 142.438C25.3785 142.718 24.7152 145.543 25.8634 147.149C27.0117 148.755 29.1614 149.285 31.1344 149.348C34.1511 149.443 37.0948 148.73 40.0441 148.016L40.0443 148.016L40.0444 148.016L40.0445 148.016L40.0446 148.016L40.0447 148.016L40.0448 148.016C41.5406 147.654 43.0379 147.291 44.5468 147.033C49.0311 146.268 54.2362 146.689 57.2223 150.121C62.0237 155.639 71.1364 156.721 77.096 152.479C81.7017 160.718 89.717 165.963 97.7679 171.23C105.017 175.973 112.295 180.735 117.138 187.718C122.477 195.416 124.247 204.96 125.887 214.184C127.803 214.156 129.226 211.742 128.321 210.053L126.521 212.427C125.856 197.89 118.431 183.801 106.815 175.035C103.939 172.865 100.784 170.962 97.6365 169.063L97.6364 169.063C90.7197 164.89 83.8358 160.737 80.0059 153.806C79.661 153.182 79.3399 152.521 79.284 151.81C79.2133 150.911 79.5719 150.044 79.918 149.206L79.9673 149.087C81.3479 145.738 82.3122 142.063 81.6341 138.504C80.956 134.946 78.277 131.581 74.6943 131.046C80.7586 134.925 82.0018 144.551 77.1219 149.843C72.2419 155.136 62.5463 154.676 58.1892 148.945C54.6974 144.353 47.7149 144.915 42.0945 146.217C36.4741 147.52 29.8555 148.883 25.5138 145.084C34.8026 142.53 44.361 140.957 53.9784 140.401C56.2696 140.268 57.1683 137.41 57.4769 135.136C57.9512 131.64 58.4256 128.088 57.9059 124.599C57.3862 121.109 55.7277 117.628 52.7667 115.71C49.2109 113.407 44.6206 113.764 40.4072 114.205L29.2099 115.377C26.7973 115.629 24.3178 115.877 21.9785 115.234C19.6393 114.592 17.4383 112.848 16.9898 110.464C16.7065 108.958 17.1376 107.475 17.5722 105.98C17.885 104.904 18.1997 103.822 18.251 102.72C18.3971 99.5829 16.3704 96.7083 13.9078 94.7592C12.3989 93.5651 10.7177 92.6254 9.0348 91.6849L9.03479 91.6848C7.97098 91.0903 6.90654 90.4954 5.88464 89.8356C3.9611 88.5937 1.98747 86.5871 2.5223 84.3608C2.86433 82.9371 4.1527 81.9502 5.44798 81.2674C9.82125 78.9621 15.2876 78.8585 19.7451 80.9963C24.2026 83.1342 27.5436 87.4619 28.4834 92.3154C28.7152 93.5127 28.8206 94.7632 28.9258 96.0112C29.169 98.898 29.4111 101.771 31.2147 103.94C33.3693 106.531 37.0929 107.184 40.4587 107.023C41.6127 106.968 42.7666 106.839 43.9196 106.71C46.1293 106.462 48.3356 106.215 50.5326 106.492C57.92 107.422 63.7405 115.109 62.6332 122.472C62.5719 122.879 62.4931 123.29 62.414 123.702C62.1321 125.171 61.8475 126.654 62.3492 128.033C62.9916 129.8 65.8017 130.741 66.692 129.085C70.6813 121.667 79.8312 117.929 88.1969 118.909C96.5625 119.889 104.049 124.926 109.542 131.312C115.034 137.698 118.77 145.382 122.178 153.085C123.378 155.798 126.951 156.781 129.806 155.974C132.661 155.166 134.926 153.032 136.975 150.886ZM121.983 163.815C122.064 163.804 122.253 164.172 122.536 164.727C123.235 166.094 124.512 168.594 126.195 169.354C126.121 170.063 125.007 169.683 124.543 169.142C123.227 167.604 121.83 165.834 121.983 163.815ZM125.958 175.957C126.827 177.231 121.622 177.864 119.892 176.753C120.197 176.695 120.598 176.726 121.043 176.76H121.043C121.57 176.801 122.158 176.847 122.716 176.753C123.534 176.616 124.324 176.365 124.92 176.175L124.92 176.175L124.92 176.175L124.92 176.175L124.921 176.175C125.499 175.991 125.895 175.865 125.958 175.957ZM124.708 171.224C122.637 171.579 120.091 168.82 120.091 166.224C120.688 168.143 122.81 169.665 123.982 170.507C124.578 170.935 124.929 171.186 124.708 171.224ZM132.132 182.077C129.372 182.077 128.121 177.424 129.372 177.125C129.671 176.989 129.685 177.406 129.706 178.021C129.728 178.668 129.757 179.535 130.134 180.21C130.551 180.96 131.436 181.461 131.953 181.754C132.344 181.975 132.523 182.077 132.132 182.077ZM135.206 175.741C135.812 176.074 136.364 176.592 136.521 177.265C136.678 177.939 136.301 178.756 135.624 178.896C135.412 178.584 135.527 178.386 135.648 178.177C135.826 177.87 136.018 177.54 135.206 176.792C134.864 176.477 134.466 176.34 134.186 176.243C133.971 176.169 133.827 176.12 133.832 176.032C133.867 175.472 134.714 175.47 135.206 175.741ZM130.041 169.677C129.904 169.772 129.81 169.837 129.891 169.912C130.14 170.144 130.433 170.255 130.727 170.087C130.95 169.958 131.064 169.698 131.116 169.445C131.411 168.035 129.922 166.579 128.519 166.905C128.644 167.233 128.882 167.338 129.171 167.466C129.505 167.613 129.907 167.79 130.28 168.374C130.783 169.161 130.322 169.482 130.041 169.677ZM129.569 182.967C127.944 182.494 126.337 178.656 127.202 178.366C127.742 178.184 127.739 178.213 127.707 178.517C127.678 178.795 127.626 179.303 127.944 180.091C128.339 181.068 128.891 181.862 129.243 182.367L129.244 182.368L129.244 182.368C129.485 182.714 129.632 182.925 129.569 182.967ZM501.728 95.8474C498.239 96.2758 495.49 99.0892 493.756 102.146C492.918 103.625 492.247 105.189 491.576 106.753C490.86 108.424 490.143 110.094 489.223 111.659C484.834 119.124 476.494 123.204 468.502 126.539C467.124 127.114 464.709 126.843 465.139 125.413C478.225 122.931 489.489 112.571 493.056 99.7385C493.476 98.2269 491.51 96.951 489.993 97.3508C488.62 97.7125 487.643 98.8574 486.761 99.9934L486.485 100.351C479.196 109.831 468.734 117.846 456.787 118.363C455.941 118.4 454.731 117.884 455.103 117.124C463.952 116.827 472.293 112.46 478.863 106.525C485.434 100.591 490.444 93.1534 495.131 85.6427C495.856 84.4808 497.597 84.7291 498.893 85.1712C502.87 86.5274 506.686 88.3569 510.234 90.6086C512.138 91.8174 510.629 95.0428 508.464 95.6752C507.22 96.0387 505.92 95.9504 504.615 95.8618C503.649 95.7963 502.68 95.7305 501.728 95.8474ZM498.329 88.4498L498.024 88.3572C497.093 88.0903 496.053 87.9422 495.304 88.52C495.014 88.7439 494.806 89.053 494.615 89.3685L492.125 93.5674C493.432 93.8698 494.685 94.4054 495.807 95.1412C496.723 95.7424 497.986 95.7655 498.924 95.1982C499.862 94.6309 500.428 93.5017 500.321 92.4109C500.281 92.004 500.948 91.8933 501.226 92.1926C501.434 92.4162 501.496 92.723 501.558 93.0286C501.579 93.1321 501.6 93.2355 501.627 93.3354C501.732 93.7306 502.054 94.1562 502.455 94.0749C502.861 93.6888 503.083 93.1169 503.044 92.5577C503.19 91.9807 504.09 92.4951 504.229 93.0736C504.368 93.652 504.63 94.4747 505.204 94.3201C506.049 94.1114 506.314 92.9351 505.903 92.1686C505.491 91.402 504.663 90.9687 503.874 90.6029C502.074 89.7688 500.221 89.0492 498.329 88.4498ZM490.761 95.2761C492.061 96.5844 493.953 97.2805 495.79 97.127C494.664 95.7083 492.747 94.9671 490.959 95.2414L490.761 95.2761ZM397.676 225.586C391.42 227.355 384.354 225.959 379.24 221.945C374.61 224.371 369.824 226.725 364.653 227.484C359.481 228.243 353.788 227.177 350.049 223.524C350.667 224.863 351.297 226.251 351.316 227.726C351.336 229.2 350.573 230.791 349.177 231.264C346.873 232.045 344.86 229.582 343.664 227.463C343.009 229.095 343.684 230.93 344.341 232.715C345.09 234.751 345.815 236.72 344.513 238.245C343.156 239.833 340.583 239.426 338.717 238.49C331.724 234.982 328.439 226.154 329.954 218.479C331.469 210.805 336.987 204.378 343.558 200.134C339.097 196.863 335.833 191.995 334.504 186.625C335.413 187.798 336.087 189.16 336.761 190.523L336.761 190.523C337.435 191.885 338.109 193.247 339.017 194.42C339.88 195.533 340.977 196.456 342.074 197.379L342.074 197.379C343.171 198.302 344.268 199.225 345.131 200.338C345.351 200.622 345.541 201.099 345.228 201.277C338.929 204.855 333.54 210.556 331.753 217.577C329.965 224.598 332.452 232.885 338.621 236.683C339.709 237.353 341.005 237.89 342.24 237.564C343.474 237.238 344.4 235.688 343.691 234.626C341.691 231.63 341.448 227.546 343.078 224.334L348.248 230.13C349.437 229.825 349.73 228.226 349.414 227.04C349.314 226.664 349.176 226.293 349.039 225.923L349.039 225.922C348.744 225.125 348.45 224.33 348.529 223.496C348.645 222.274 350.239 221.181 351.082 222.074C354.444 225.636 359.845 226.647 364.68 225.863C369.516 225.079 373.945 222.758 378.277 220.47L383.389 217.77C383.02 219.245 381.825 220.483 380.364 220.903C385.299 224.449 391.899 225.563 397.724 223.834C398.728 223.536 399.758 223.124 400.409 222.304C401.059 221.484 401.165 220.151 400.379 219.46C400.283 219.375 400.176 219.301 400.069 219.228L400.068 219.228C399.858 219.082 399.649 218.938 399.529 218.717C399.347 218.384 399.629 217.824 399.976 217.976C401.944 217.84 403.158 220.484 402.356 222.287C401.554 224.089 399.575 225.049 397.676 225.586ZM362.748 199.419C361.624 199.058 360.362 199.833 359.874 200.908C359.385 201.983 359.524 203.246 359.894 204.367C360.011 203.102 360.172 202.149 360.651 201.317C360.857 200.959 361.496 200.621 362.058 200.323C362.784 199.939 363.381 199.623 362.748 199.419ZM361.795 196.241C363.434 195.832 365.286 196.464 366.335 197.789C367.384 199.113 367.574 201.061 366.8 202.563C366.614 202.339 366.57 201.932 366.515 201.422C366.352 199.914 366.092 197.505 361.795 196.241ZM360.373 207.888C359.853 208.536 361.661 210.247 364.487 209.067C365.01 208.848 364.583 208.823 363.91 208.784C363.295 208.748 362.477 208.7 361.988 208.482C361.576 208.298 361.364 208.002 361.205 207.781C360.97 207.454 360.852 207.289 360.373 207.888ZM366.099 210.054C367.91 209.152 366.773 211.797 362.985 211.473C362.643 211.444 362.197 211.312 362.2 210.967C362.201 210.847 362.522 210.819 363.02 210.775C363.794 210.708 364.997 210.603 366.099 210.054ZM354.925 205.033C355.606 205.699 356.598 205.716 357.26 205.588C357.664 205.511 357.862 205.15 357.492 205.033C357.405 205.006 357.262 204.983 357.09 204.956C356.697 204.894 356.153 204.808 355.788 204.588C355.554 204.447 355.42 203.965 355.306 203.552C355.188 203.127 355.091 202.775 354.925 202.94C354.597 203.266 354.243 204.367 354.925 205.033ZM355.529 207.285C355.859 207.787 354.603 207.614 354.332 207.285C354.062 206.956 353.796 205.716 354.249 205.716C354.38 205.716 354.425 205.911 354.479 206.145L354.479 206.145C354.528 206.361 354.585 206.61 354.725 206.769C354.996 207.076 355.178 207.122 355.311 207.155C355.402 207.178 355.47 207.195 355.529 207.285ZM412.05 204.792C412.728 206.145 411.542 207.663 410.399 208.655C405.754 212.689 400.201 215.672 394.273 217.321C400.662 217.364 407.022 214.63 411.385 209.964C413.416 207.793 414.715 203.717 412.094 202.313C415.204 201.283 418.886 199.132 418.411 195.89C418.241 194.732 417.533 193.735 416.847 192.788L416.439 192.228C412.194 186.428 407.004 180.295 399.887 179.862C403.983 177.565 408.862 180.828 412.472 183.832L413.531 184.708C418.311 188.638 423.313 192.377 428.983 194.834C435.072 197.473 442.075 198.527 448.392 196.492L466.071 190.795C469.482 189.666 473.5 187.545 473.19 184.001C473.02 182.048 471.238 180.369 469.279 180.315C467.32 180.26 465.448 181.838 465.169 183.778L464.784 180.762C463.836 179.951 462.324 180.646 461.562 181.633C461.274 182.006 461.033 182.418 460.793 182.829L460.793 182.83C460.399 183.506 460.006 184.179 459.406 184.67C457.32 186.377 454.547 184.974 452.057 183.5L450.505 182.572C446.08 179.972 440.837 179.574 435.659 179.181L435.658 179.181L435.658 179.181L435.658 179.181L435.657 179.181L435.657 179.181L435.657 179.181C434.539 179.096 433.425 179.011 432.322 178.905C425.104 178.207 417.989 176.449 411.277 173.703C417.433 178.751 425.475 179.598 433.588 180.453C437.676 180.884 441.782 181.316 445.673 182.289C448.76 183.061 452.171 184.634 452.929 187.724C454.029 192.211 448.698 195.687 444.098 196.106C436.574 196.793 429.242 193.593 422.853 189.509L422.134 189.043C419.822 187.525 417.581 185.893 415.342 184.26L415.341 184.26C411.232 181.266 407.126 178.274 402.59 176C407.275 176.235 410.697 172.843 414.192 169.378L414.192 169.378C416.077 167.509 417.983 165.619 420.121 164.265C426.403 160.287 434.425 161.193 441.818 162.47L442.98 162.675C441.241 154.252 436.993 146.364 430.919 140.276L441.357 160.796C430.367 157.135 417.188 161.71 410.83 171.393C415.737 154.834 427.41 140.39 442.571 132.118C447.456 133.945 451.582 137.206 455.701 140.461L455.702 140.462L455.703 140.463C457.032 141.513 458.361 142.563 459.714 143.564C465.26 147.667 472.005 151.144 478.795 149.923C483.678 149.045 487.787 145.869 491.435 142.473L492.023 141.921C496.369 137.801 500.408 133.358 504.098 128.641C508.134 123.479 513.096 117.35 519.603 118.119C520.753 118.255 521.87 118.614 522.983 118.971C524.521 119.464 526.052 119.955 527.648 119.853C530.399 119.676 532.927 115.983 530.768 114.269L519.686 105.473C518.603 104.614 517.353 103.704 515.982 103.882C515.008 104.009 514.197 104.666 513.444 105.297L510.955 107.387C505.154 112.274 499.422 117.262 494.388 122.929C494.063 123.295 493.736 123.666 493.408 124.039L493.404 124.044C489.323 128.681 484.894 133.713 478.832 134.076C472.919 134.43 467.949 130.161 463.407 126.259C463.179 126.063 462.952 125.868 462.726 125.674L461.88 124.957C457.063 120.915 451.913 117.27 446.499 114.073C441.713 111.247 436.407 108.701 430.862 109.087C424.376 109.539 418.904 113.876 414.218 118.433L413.509 119.129C411.211 121.388 408.462 123.828 405.299 123.346L405.047 123.312C401.862 122.949 398.876 124.926 396.474 127.138L396.1 127.489C389.824 133.478 385.2 141.181 382.868 149.537C369.176 145.871 354.162 147.383 341.475 153.706C338.279 155.299 335.162 157.242 332.937 160.036C329.759 164.025 328.827 169.083 327.887 174.187L327.887 174.187C327.201 177.91 326.511 181.658 324.941 185.031C324.477 186.029 323.932 187.004 323.387 187.978C322.112 190.26 320.839 192.537 320.604 195.107C320.27 198.774 323.694 203.029 327.09 201.605C330.491 201.069 332.29 196.274 330.082 193.632C331.458 194.618 333.377 194.788 334.904 194.058L331.356 187.507C337.342 184.32 342.655 179.874 346.848 174.544C348.562 172.364 351.749 171.814 354.441 172.483C356.748 173.056 358.782 174.358 360.731 175.742L361.699 176.438C360.571 177.259 361.221 179.441 362.615 179.51C361.715 175.848 365.377 172.002 369.131 172.359C372.885 172.715 375.728 176.708 375.237 180.447C373.255 185.358 368.351 188.16 363.5 190.931C358.237 193.938 353.037 196.909 351.703 202.498C350.359 208.128 354.701 214.434 360.441 215.187C366.18 215.94 372.002 210.967 372.156 205.18C372.156 205.18 373.005 205.268 373.305 204.367C373.779 202.948 374.228 201.377 374.672 199.819L374.673 199.818L374.673 199.817C375.509 196.888 376.33 194.008 377.279 192.288C379.94 187.464 384.893 183.645 390.401 183.512C392.15 183.469 393.888 183.21 395.624 182.951C397.841 182.62 400.056 182.289 402.288 182.412C406.267 182.631 410.629 184.961 411.203 188.905C406.79 188.048 402.186 188.192 397.836 189.324L413.236 191.156C416.618 191.558 417.251 196.795 414.841 199.201C412.568 201.469 409.106 201.842 405.865 201.987L405.278 202.011C405.845 203.166 407.253 203.286 408.663 203.405C410.069 203.525 411.476 203.644 412.05 204.792ZM493.971 137.495C489.197 142.796 483.615 148.493 476.486 148.759C470.252 148.991 464.799 144.974 459.756 141.258L459.383 140.984L458.179 140.103C452.544 136.016 446.707 132.206 440.698 128.692C436.044 125.971 430.692 123.342 425.473 124.692L433.735 127.292C432.342 128.04 431.846 130.073 432.738 131.378C432.929 129.424 435.189 128.182 437.129 128.487C439.069 128.793 440.647 130.217 441.848 131.77C431.432 135.764 422.569 143.672 417.419 153.567C416.461 155.407 415.628 157.311 414.795 159.213L414.795 159.214L414.794 159.215L414.794 159.215C413.665 161.794 412.537 164.372 411.1 166.789C408.602 170.989 404.904 174.81 400.145 175.923C399.479 176.079 398.796 176.182 398.114 176.284L398.113 176.284C396.746 176.488 395.382 176.693 394.165 177.326C394.028 177.398 393.887 177.473 393.742 177.551C392.313 178.314 390.551 179.254 389.671 178.014C388.229 175.982 385.929 174.58 383.462 174.228C387.541 160.524 398.035 148.878 411.242 143.4C411.989 143.09 411.703 141.971 411.295 141.272L405.288 130.993C404.733 130.044 405.382 128.753 406.36 128.249C407.337 127.745 408.503 127.821 409.594 127.957C416.543 128.822 423.233 131.673 428.67 136.087C429.539 136.793 430.964 137.486 431.6 136.564C425.398 130.309 416.527 127.409 407.796 126.24C415.343 125.502 423.147 127.879 429.002 132.698L429.287 132.931C430.686 134.067 432.379 135.274 433.992 134.577C427.453 128.306 418.512 124.604 409.454 124.419C411.318 123.033 413.058 121.492 414.799 119.951L414.799 119.951L414.799 119.95C416.568 118.385 418.336 116.819 420.234 115.416C423.999 112.632 428.5 110.458 433.176 110.731C436.57 110.929 439.753 112.394 442.756 113.988C449.103 117.359 455.08 121.427 460.544 126.096C460.931 126.427 461.32 126.762 461.712 127.1C466.905 131.575 472.571 136.457 479.283 135.827C483.375 135.442 487.002 132.969 489.882 130.037C491.476 128.414 492.897 126.637 494.318 124.859C495.466 123.424 496.614 121.988 497.854 120.633C499.641 118.679 501.712 116.841 504.254 116.094C506.795 115.348 509.893 115.966 511.402 118.143L493.971 137.495ZM329.486 173.8C330.406 168.762 331.317 163.782 334.72 160.115C336.387 158.319 338.52 157.026 340.691 155.89C351.798 150.081 364.75 147.87 377.155 149.665C380.191 150.104 383.952 151.807 383.903 154.69C383.885 154.866 383.868 155.042 383.853 155.219C383.884 155.038 383.9 154.862 383.903 154.69C385.14 142.638 392.159 131.3 402.415 124.844C403.324 131.186 406.103 137.248 410.313 142.077C399.154 146.777 389.889 155.814 384.912 166.852L384.833 167.027C383.419 170.121 381.177 173.921 377.904 173.15L379.524 163.135C379.673 162.217 379.81 161.223 379.375 160.401C378.889 159.483 377.85 159.06 376.836 158.755L376.481 158.651C370.613 156.99 364.031 155.395 358.672 158.306C355.837 159.846 353.802 162.426 351.899 165.076L350.487 167.06C347.133 171.743 343.379 176.137 339.278 180.181C337.626 181.81 335.84 183.428 333.629 184.129C331.418 184.83 328.67 184.358 327.358 182.446C328.405 179.712 328.947 176.747 329.486 173.8L329.486 173.8ZM365.647 212.823C362.164 214.115 359.329 213.478 356.61 211.895C355.446 211.217 354.35 210.345 353.694 209.168C352.712 207.404 352.859 205.215 353.426 203.276C354.273 200.379 356.007 197.747 358.335 195.825C359.944 194.496 361.798 193.521 363.65 192.546L363.652 192.545L363.653 192.545C364.292 192.208 364.93 191.872 365.559 191.522C371.704 188.094 377.005 183.165 380.87 177.285C381.641 176.111 383.267 175.731 384.629 176.077C385.99 176.424 387.124 177.356 388.105 178.361C388.808 179.08 389.329 180.51 388.391 180.873C381.83 183.413 376.546 189.05 374.435 195.762C374.397 195.881 374.361 196.001 374.324 196.121L374.266 196.314L374.265 196.315C373.945 197.377 373.62 198.451 372.932 199.31C372.123 200.319 370.5 203.872 371.328 205.556C371.328 205.556 369.131 211.531 365.647 212.823ZM374.751 159.654C375.814 159.893 376.971 160.235 377.555 161.156C378.032 161.909 378.002 162.867 377.927 163.756C377.631 167.272 376.892 170.75 375.732 174.082C375.536 174.646 374.931 175.323 374.49 174.922C373.99 172.399 371.685 170.348 369.121 170.144C366.558 169.941 363.958 171.602 363.066 174.015C362.89 174.491 362.271 174.668 361.781 174.537C361.413 174.438 361.099 174.216 360.799 173.976L360.502 173.734C357.447 171.252 353.314 170.151 349.43 170.783C351.499 167.301 354.124 164.15 357.174 161.485C358.423 160.395 359.777 159.367 361.354 158.855C362.838 158.374 364.432 158.379 365.99 158.458C368.937 158.608 371.871 159.009 374.751 159.654ZM514.018 115.339C512.533 113.756 510.498 112.697 508.348 112.396L510.788 109.299C511.561 108.327 512.465 107.331 513.685 107.178C514.565 107.067 515.43 107.428 516.23 107.81C518.909 109.086 521.435 110.685 523.734 112.561C524.502 113.187 525.274 113.886 525.607 114.819C525.941 115.751 525.672 116.972 524.778 117.398C523.885 117.825 522.597 116.891 522.964 115.971L522.999 115.867C523.149 115.344 522.912 114.726 522.439 114.451L521.576 116.107C521.496 116.251 521.404 116.391 521.261 116.47C520.685 116.789 520.216 115.893 520.179 115.235L520.172 115.144C520.111 114.497 519.771 113.671 519.176 113.873C519.096 114.982 518.302 116.006 517.249 116.362C516.195 116.717 514.944 116.382 514.208 115.548L514.018 115.339ZM328.048 197.063L327.006 193.108C326.51 192.97 326.027 193.466 325.956 193.976C325.909 194.316 325.985 194.652 326.087 194.983L326.247 195.477C326.783 197.156 326.77 199.005 326.21 200.676C325.176 198.56 324.637 196.206 324.647 193.851C323.973 193.481 323.514 194.61 323.563 195.377L323.854 199.955C322.441 198.682 321.943 196.616 322.185 194.729C322.426 192.843 323.312 191.101 324.308 189.481C324.828 188.635 325.403 187.787 326.23 187.238C327.057 186.688 328.196 186.5 329.041 187.022C329.742 187.455 330.068 188.225 330.398 189.006C330.648 189.596 330.9 190.192 331.32 190.654C331.468 190.817 331.642 190.984 331.818 191.155C332.501 191.813 333.23 192.516 332.753 193.225C331.283 192.323 329.938 191.217 328.77 189.948C328.347 192.568 328.734 195.314 329.866 197.716C330.097 198.207 329.332 198.675 328.851 198.424C328.37 198.172 328.187 197.588 328.048 197.063ZM469.223 184.125C469.975 183.459 470.664 182.85 470.997 183.016C471.967 183.5 469.331 185.626 467.936 186.227C468.036 186.901 469.015 186.599 469.586 186.227C470.157 185.855 471.756 185.455 471.443 185.86C469.492 188.383 465.726 190.388 462.245 190.78C460.833 190.939 459.088 190.562 458.639 189.215C458.228 187.986 459.142 186.773 460.107 185.86L460.34 185.646C460.745 185.283 461.397 184.929 461.772 185.325C462.767 186.377 464.506 185.516 465.652 184.63C465.652 184.63 468.63 181.757 469.129 181.941C469.626 182.124 467.643 185.364 467.643 185.364C468.135 185.088 468.695 184.592 469.223 184.125ZM454.966 186.792C455.322 186.711 455.694 186.855 456.001 187.052C457.121 187.771 457.655 189.286 457.235 190.547C456.814 191.809 455.478 192.701 454.152 192.604C453.963 192.591 453.766 192.555 453.619 192.437C453.309 192.189 453.349 191.715 453.417 191.324L453.917 188.466C454.038 187.776 454.283 186.948 454.966 186.792ZM391.881 180.303C393.8 179.979 395.786 180.058 397.673 180.534C397.564 181.312 396.655 181.666 395.885 181.825C393.511 182.316 391.057 182.421 388.649 182.137C389.252 181.003 390.614 180.517 391.881 180.303ZM512.172 116.929L507.136 113.955C509.617 113.585 512.263 114.888 513.482 117.081C513.133 117.399 512.579 117.169 512.172 116.929ZM401.828 176.569C399.693 177.134 397.583 177.791 395.505 178.538C397.663 179.731 400.728 178.777 401.828 176.569ZM380.961 173.87C381.549 173.991 381.282 174.915 380.813 175.29C379.387 176.429 377.218 176.528 375.694 175.522L380.961 173.87ZM514.964 104.891C515.31 104.809 515.666 104.949 515.99 105.095C518.093 106.045 520.019 107.384 521.642 109.025L514.405 105.33C514.516 105.112 514.726 104.947 514.964 104.891ZM404.716 124.853L404.788 124.903C405.441 124.809 406.115 124.864 406.744 125.063C406.195 126.101 405.431 127.024 404.514 127.757C404.056 126.848 404.136 125.69 404.716 124.853ZM528.545 114.7L528.56 114.746C529.36 115.07 529.904 115.938 529.849 116.799C528.202 115.945 526.869 114.5 526.15 112.789C527.134 113.13 527.994 113.816 528.545 114.7ZM378.716 177.86L378.596 178.024C378.179 178.591 377.682 179.206 376.983 179.287C376.284 179.369 375.567 178.464 376.06 177.962C376.888 177.591 377.861 177.553 378.716 177.86ZM329.19 184.882C329.814 185.028 330.519 185.482 330.421 186.115C328.992 185.929 327.582 185.599 326.219 185.131C327.151 184.741 328.206 184.652 329.19 184.882ZM461.909 184.76C461.584 184.901 461.29 184.309 461.599 184.136C461.599 184.136 463.73 180.399 463.822 183.016C463.868 183.667 462.49 184.464 461.909 184.76ZM371.869 203.948L371.869 203.948C372.027 202.814 372.326 200.676 372.932 200.676C373.79 200.585 373.46 202.047 373.227 203.077C373.163 203.361 373.106 203.613 373.084 203.79C373.006 204.408 372.428 204.895 371.765 204.597C371.791 204.506 371.825 204.267 371.869 203.948ZM172.134 243.163C176.506 243.541 180.894 243.721 185.281 243.704C184.97 247.829 188.324 251.892 192.434 252.366C196.544 252.84 200.736 249.648 201.371 245.56C201.627 243.918 203.848 243.632 205.505 243.761L216.049 244.582C217.857 244.722 220.414 244.153 220.219 242.351L219.025 231.309C218.917 230.313 219.265 228.861 220.247 229.058C224.432 229.898 229.004 226.69 229.578 222.46C230.151 218.23 226.534 213.895 222.268 213.761C220.218 213.697 219.243 211.015 219.775 209.034C220.061 207.969 220.604 207.005 221.148 206.039C221.616 205.209 222.085 204.378 222.391 203.48C223.053 201.539 222.498 198.834 220.501 198.366C205.335 194.81 189.415 194.508 174.125 197.486L173.845 197.542C173.004 197.711 172.161 197.92 171.434 198.37C169.046 199.848 168.863 203.108 168.979 205.983L169.057 207.581C169.476 216.854 168.746 226.178 166.889 235.272L166.847 235.478C166.431 237.55 166.093 239.919 167.477 241.49C168.503 242.655 170.145 242.968 171.71 243.124L172.134 243.163ZM199.033 245.387C199.155 245.984 199.002 246.606 198.762 247.166L198.685 247.337C197.275 250.316 193.074 251.593 190.259 249.851C187.391 248.075 186.688 243.614 188.871 241.043C183.325 241.707 177.704 241.751 172.149 241.173C170.429 240.994 168.181 240.065 168.533 238.373C170.951 226.733 171.706 214.75 170.769 202.899C170.599 200.751 173.243 199.637 175.362 199.248C189.034 196.738 203.181 196.841 216.815 199.552C218.559 199.899 220.804 201.224 220.031 202.826C218.211 206.596 217.484 210.886 217.959 215.046C218.081 216.107 218.911 217.495 219.837 216.963C222.331 215.531 225.94 216.679 227.147 219.289C228.355 221.899 226.894 225.393 224.188 226.367C221.482 227.34 218.13 225.578 217.398 222.797C216.744 228.524 216.977 234.352 218.086 240.01C218.471 241.971 215.615 242.711 213.623 242.562L197.715 241.377C197.228 242.145 197.728 242.939 198.253 243.773C198.581 244.294 198.919 244.831 199.033 245.387ZM281.344 209.438L312.502 210.065L313.011 210.077C313.946 210.106 314.889 210.189 315.732 210.582C317.636 211.471 318.509 213.662 319.089 215.682C322.18 226.467 321.798 238.219 318.014 248.781L317.855 249.213C317.362 250.513 316.718 251.808 315.555 252.539C314.597 253.141 313.43 253.267 312.295 253.327L312.052 253.34C307.419 253.559 302.77 253.441 298.154 252.985C300.558 251.505 301.165 247.903 299.638 245.528C298.112 243.153 294.887 242.162 292.171 242.933C290.516 243.403 288.975 244.534 288.376 246.148C287.776 247.761 288.356 249.832 289.885 250.62C290.943 251.165 290.761 252.88 289.835 253.627C288.908 254.374 287.621 254.427 286.431 254.447L270.799 254.7C269.624 254.719 268.388 254.724 267.357 254.161C265.894 253.363 265.221 251.644 264.809 250.029C263.815 246.133 263.68 242.02 264.418 238.067C265.307 241.189 269.154 243.085 272.17 241.888C275.187 240.691 276.688 236.673 275.195 233.792C273.701 230.91 269.554 229.819 266.836 231.594L266.723 230.587C266.333 227.057 266.03 223.48 266.708 220.003C267.451 216.195 269.569 212.455 273.042 210.725C275.574 209.463 278.499 209.393 281.344 209.438ZM315.356 212.697C314.576 212.228 313.635 212.147 312.72 212.109L312.492 212.1C302.8 211.738 293.101 211.555 283.402 211.55L280.17 211.555C278.124 211.563 276.013 211.592 274.141 212.416C271.348 213.646 269.538 216.499 268.8 219.46C268.061 222.421 268.238 225.524 268.42 228.571C273.331 227.218 278.614 232.208 278.031 237.269C277.448 242.329 271.838 245.984 266.839 245.008C266.612 246.607 266.389 248.267 266.858 249.812C267.328 251.357 268.699 252.754 270.313 252.702L284.806 252.236C285.704 252.207 286.943 251.743 286.683 250.884C285.202 246.006 289.475 240.311 294.572 240.368C299.67 240.426 303.813 246.216 302.223 251.059C305.408 251.777 308.721 251.927 311.958 251.503C313.009 251.365 314.107 251.142 314.912 250.452C315.704 249.774 316.093 248.748 316.423 247.759C319.786 237.681 320.155 226.623 317.469 216.344C317.122 215.014 316.64 213.584 315.528 212.809L315.356 212.697ZM177.842 308.675C176.3 298.634 176.302 288.357 177.849 278.317L177.927 277.832C178.311 275.553 178.985 273.148 180.889 271.892C182.314 270.953 184.114 270.882 185.831 270.882L198.975 270.918C199.574 270.919 200.229 270.942 200.679 271.336C201.129 271.731 201.117 272.636 200.54 272.796C199.163 273.177 198.372 274.765 198.539 276.184C198.706 277.603 199.629 278.831 200.712 279.763C203.296 281.984 207.312 282.773 210.172 280.921C213.032 279.069 213.704 274.299 210.994 272.234C217.134 272.109 223.277 272.128 229.416 272.291L231.718 272.359C232.462 272.384 233.285 272.443 233.804 272.976C234.195 273.376 234.323 273.957 234.411 274.509C235.091 278.759 234.347 283.224 232.327 287.025C232.006 287.63 231.261 288.297 230.753 287.836C228.596 285.878 224.968 286.145 222.761 288.046C220.554 289.948 219.701 293.106 220.091 295.993C220.466 298.772 222.492 301.739 225.292 301.599C226.081 301.56 226.902 301.287 227.707 301.02L227.707 301.02C229.152 300.541 230.547 300.078 231.617 301.009L228.809 313.555C228.31 315.784 227.415 318.428 225.181 318.905C212.288 321.663 198.769 321.455 185.967 318.301L185.346 318.144C183.793 317.737 182.245 317.211 181.033 316.173C178.923 314.367 178.264 311.42 177.842 308.675ZM229.128 303.252C225.481 304.968 220.729 303.495 218.446 300.173C216.163 296.851 216.387 292.104 218.729 288.824C221.071 285.543 225.281 283.8 229.297 284.143L229.633 284.172C230.196 284.22 230.773 284.24 231.251 283.959C231.856 283.603 232.113 282.871 232.282 282.19C232.952 279.473 232.915 276.584 232.175 273.884L215.182 274.008C215.492 278.725 211.609 283.329 206.907 283.819C202.205 284.308 197.457 280.604 196.788 275.925L196.694 275.229C196.593 274.527 196.436 273.833 195.912 273.388C195.544 273.075 195.06 272.951 194.582 272.857L194.404 272.822C189.459 271.888 183.192 271.5 180.597 275.811C179.713 277.279 179.476 279.035 179.296 280.739C178.264 290.521 178.509 300.438 180.025 310.157L180.098 310.612C180.345 312.058 180.731 313.543 181.807 314.514C182.547 315.181 183.519 315.512 184.482 315.784L184.723 315.851C197.052 319.241 210.178 319.694 222.713 317.167L223.409 317.024C224.025 316.894 224.666 316.745 225.15 316.342C225.781 315.817 226.023 314.971 226.233 314.178L229.128 303.252ZM320.83 328.111C320.83 328.111 320.901 326.155 321.147 325.513C321.593 324.353 322.907 322.703 322.907 322.703C322.816 323.15 322.688 323.628 322.556 324.121C322.104 325.811 321.605 327.677 322.363 329.058C322.948 330.123 331.51 335.734 334.452 337.048C347.034 342.671 359.679 347.759 372.383 352.872L372.384 352.872L372.384 352.872L372.384 352.872L372.384 352.872L372.387 352.873L372.389 352.874L372.391 352.875L372.394 352.876L372.396 352.877L372.398 352.877C377.59 354.967 382.792 357.06 388.004 359.196C379.048 358.104 370.801 353.934 362.765 349.83C361.03 359.452 366.393 369.153 373.627 375.731C378.894 380.521 385.095 384.071 391.295 387.622L391.295 387.622L391.295 387.622L391.296 387.622L391.296 387.622L391.296 387.623L391.296 387.623L391.297 387.623L391.297 387.623L391.297 387.623L391.298 387.624C393.611 388.948 395.924 390.273 398.189 391.662L399.021 392.178C407.058 397.209 414.746 403.561 418.295 412.321C418.946 413.928 420.944 414.843 422.586 414.285C424.227 413.728 425.256 411.786 424.794 410.114C426.512 411.525 425.52 414.676 423.439 415.455C421.357 416.234 418.97 415.177 417.434 413.571C416.276 412.361 415.468 410.883 414.661 409.406L414.661 409.406L414.661 409.405L414.661 409.405L414.661 409.405L414.66 409.404L414.66 409.404L414.66 409.404L414.66 409.404L414.66 409.403C414.396 408.921 414.133 408.439 413.857 407.966C408.895 399.46 400.131 394.177 391.436 389.342L387.354 387.083C377.918 381.814 368.25 375.484 364.209 365.51C349.537 367.838 334.263 366.259 320.378 360.979C317.408 359.849 314.5 358.554 311.593 357.26L311.593 357.26L311.592 357.26C306.962 355.198 302.335 353.137 297.468 351.751C294.756 350.978 291.017 350.895 290.002 353.526C290.001 353.525 290 353.527 289.997 353.532C289.968 353.584 289.775 353.922 288.91 353.996C288.504 354.031 288.131 353.319 288.016 352.848C287.917 352.716 287.883 352.343 287.883 351.578C287.883 351.166 288.723 349.364 290.304 348.249C291.404 347.474 292.641 347.193 293.289 347.046C293.582 346.979 293.754 346.94 293.74 346.895C293.707 346.791 292.582 346.5 291.561 346.995C290.772 347.378 290.026 347.883 289.339 348.347L289.339 348.348L289.339 348.348L289.338 348.348C288.277 349.066 287.36 349.687 286.654 349.605C285.699 349.494 285.021 349.048 285.011 348.087C285 347.125 285.255 345.956 285.997 345.351C287.583 344.061 289.63 343.349 291.674 343.378C292.116 343.385 292.605 343.448 292.893 343.782C293.181 344.117 293.039 344.785 292.598 344.805C289.948 344.924 286.884 345.368 285.852 348.087C285.552 348.878 287.449 349.005 288.182 348.583C288.608 348.338 288.973 348.009 289.339 347.679C289.604 347.441 289.869 347.202 290.157 346.995C291.018 346.375 292.089 346.051 293.15 346.089C293.577 346.104 294.048 346.203 294.3 346.548C294.553 346.894 294.375 347.522 293.947 347.529C291.199 347.574 288.691 349.955 288.504 352.696C288.514 352.796 288.59 353.248 288.91 353.355C289.283 353.481 289.696 353.176 289.713 353.146C291.144 350.592 293.756 348.885 296.563 349.74C297.624 350.063 298.646 350.555 299.662 351.045C301.441 351.902 303.206 352.752 305.145 352.68L303.981 346.508C299.263 342.182 292.151 340.657 286.074 342.668C285.423 342.883 284.721 343.195 284.455 343.826C284.19 344.458 284.772 345.375 285.412 345.131C284.406 346.062 282.705 344.482 283.088 343.166C283.471 341.85 284.914 341.173 286.241 340.829C293.684 338.894 301.103 342.266 308.273 345.525L308.277 345.527C309.606 346.131 310.927 346.731 312.237 347.293C326.836 353.55 343.33 355.3 358.917 352.246C358.24 354.096 355.935 354.656 353.978 354.876C340.095 356.437 325.835 354.527 312.852 349.366C311.267 351.381 312.022 354.51 313.827 356.331C315.632 358.152 318.184 358.98 320.64 359.714C334.405 363.828 348.999 366.974 363.065 364.049L360.785 350.711L360.739 350.468C360.626 349.936 360.419 349.386 359.922 349.217L359.796 349.174C341.768 343.052 328.027 338.386 310.187 321.379C310.151 321.345 310.117 321.31 310.082 321.274C309.951 326.385 308.33 327.51 301.571 326.117C286.823 323.077 271.723 321.485 256.837 323.577C257.963 318.014 259.373 312.508 261.06 307.088C256.216 308.651 250.498 304.213 250.811 299.133C251.124 294.053 257.345 290.35 261.959 292.497C263.544 288.839 263.645 284.563 262.233 280.834C261.556 279.046 264.255 278.014 266.168 278.013L276.735 278.011C278.212 278.011 280.272 277.325 279.905 275.894C279.035 272.501 281.368 268.624 284.773 267.804C288.117 267 291.881 269.289 292.745 272.607L292.79 272.792C293.592 276.356 298.106 277.487 301.757 277.417L303.575 277.373C306.734 277.307 310.026 277.41 312.14 279.619C314.668 282.261 314.103 286.469 313.27 290.057L313.214 290.295C312.807 292.009 312.215 293.402 311.619 294.802C310.483 297.471 309.335 300.169 309.437 305.175C309.479 307.215 309.553 309.088 309.636 310.802C309.929 309.598 310.187 308.803 310.187 308.803C310.187 308.803 344.63 334.448 365.902 337.929C368.451 335.677 366.98 331.288 364.412 329.058C363.33 328.118 362.098 327.358 360.869 326.6C359.183 325.56 357.502 324.523 356.222 323.029C353.679 320.06 353.225 315.97 352.774 311.914C352.284 307.504 351.799 303.135 348.639 300.294C348.357 300.04 348.056 299.803 347.756 299.566C347.079 299.032 346.403 298.499 345.942 297.779C344.803 295.997 345.363 293.517 346.743 291.914C348.123 290.311 350.142 289.416 352.139 288.719C356.284 287.271 360.83 286.463 365.063 287.629C369.297 288.796 373.089 292.321 373.505 296.692C374.307 294.953 376.071 293.697 377.977 293.506L375.21 296.446L378.711 296.516L373.894 299.206C376.88 304.729 376.397 311.541 374.482 317.521C374.249 318.252 373.994 318.983 373.738 319.715L373.738 319.715L373.738 319.716L373.738 319.716L373.738 319.716L373.737 319.72C372.714 322.654 371.682 325.613 371.947 328.676C372.272 332.442 375.616 336.289 379.271 335.518L379.454 335.476C383.848 334.366 388.659 335.009 392.608 337.233C397.212 339.827 400.346 344.225 403.448 348.578L403.448 348.578L403.448 348.578L403.448 348.579L403.449 348.579L403.449 348.579L403.449 348.579L403.449 348.579L403.449 348.58L403.449 348.58L403.45 348.58C404.169 349.59 404.887 350.597 405.62 351.578C409.062 356.182 413.136 360.463 418.228 363.129C423.319 365.796 429.563 366.677 434.867 364.462C435.843 364.055 436.78 363.549 437.716 363.044C439.306 362.186 440.891 361.331 442.648 360.966C445.441 360.388 448.997 361.754 449.328 364.587C447.883 362.173 444.461 361.745 441.768 362.559C440.249 363.018 438.847 363.769 437.443 364.521C436.36 365.101 435.275 365.682 434.135 366.13C428.423 368.372 421.77 367.013 416.511 363.85C411.417 360.786 407.426 356.211 403.826 351.471L403.479 351.012C403.112 350.524 402.746 350.033 402.38 349.541C399.849 346.14 397.299 342.713 393.958 340.125C390.21 337.223 385.177 335.507 380.665 336.9L380.39 336.99C376.074 338.452 371.502 334.322 370.725 329.832C369.948 325.342 371.779 320.855 373.57 316.665C375.418 312.343 372.025 307.3 367.747 305.352C363.777 303.544 359.01 303.585 355.072 305.46C353.797 306.068 353.566 307.742 353.608 309.173L353.614 309.331C353.836 314.384 355.185 319.695 358.874 323.155C359.97 324.185 361.238 325.015 362.502 325.845C364.085 326.883 365.664 327.918 366.901 329.336C369.127 331.888 369.469 336.667 366.377 338.047C371.682 339.004 376.931 340.272 382.087 341.843C354.343 339.004 328.833 325.918 310.518 310.111C310.143 310.844 309.88 311.617 309.719 312.411C309.762 313.204 309.805 313.959 309.846 314.677C309.905 315.691 309.959 316.633 310.002 317.505C310.883 320.406 312.944 322.964 315.774 324.088C315.549 322.05 316.236 319.929 317.613 318.409C316.72 320.406 315.303 324.235 320.83 328.111ZM363.446 289.053C360.977 288.593 358.468 288.349 355.957 288.323C355.786 288.639 355.722 289.011 355.776 289.366C358.576 289.599 361.333 290.336 363.875 291.533C362.813 292.595 361.057 291.959 359.631 291.442L359.547 291.412C357.111 290.53 354.436 290.316 351.89 290.801C350.591 291.048 349.293 291.493 348.293 292.357C347.293 293.221 346.639 294.566 346.862 295.869C347.147 297.533 348.712 298.67 350.274 299.31C354.146 300.896 358.788 300.449 362.286 298.153C362.57 297.967 362.97 298.277 362.986 298.616C363.003 298.955 362.774 299.254 362.534 299.493C361.14 300.881 359.065 301.323 357.101 301.438C356.527 301.471 355.951 301.482 355.374 301.493H355.374C353.976 301.521 352.579 301.548 351.229 301.89C351.411 303.004 352.802 303.387 353.928 303.469C358.229 303.781 362.592 303.202 366.663 301.779C367.682 301.423 368.619 302.444 369.221 303.341L373.606 309.885C375.046 308.529 374.96 306.186 374.281 304.328C374.015 303.602 373.678 302.902 373.34 302.202C372.814 301.112 372.289 300.024 372.042 298.845C371.906 298.195 371.857 297.527 371.808 296.861V296.861C371.739 295.926 371.671 294.993 371.361 294.114C370.271 291.014 366.676 289.655 363.446 289.053ZM310.473 348.79L306.492 346.503C306.051 346.249 305.237 346.206 305.281 346.714C305.145 348.769 305.313 351.286 306.634 352.998C307.466 354.077 308.067 354.629 311.007 355.359L310.79 349.605C310.779 349.3 310.737 348.942 310.473 348.79ZM371.085 317.487C371.569 317.206 371.877 316.706 372.166 316.226C372.681 315.369 373.212 314.46 373.235 313.46C373.258 312.46 372.566 311.368 371.566 311.329C371.069 311.309 370.596 311.546 370.19 311.833C369.288 312.472 368.592 313.396 368.228 314.439C368.688 315.103 369.73 314.51 370.193 313.849C370.656 313.188 371.343 312.352 372.079 312.682C371.593 314.369 370.733 315.947 369.578 317.27C369.887 317.736 370.601 317.768 371.085 317.487ZM379.048 366.09C377.941 364.332 376.746 362.434 374.774 361.863C379.149 370.098 385.931 377.037 394.065 381.6C396.905 383.193 399.9 384.502 402.892 385.809C407.065 387.633 411.233 389.454 414.965 392.041C419.642 395.282 423.51 399.681 426.126 404.734C425.098 397.529 419.073 392.014 412.642 388.608C409.731 387.066 406.672 385.823 403.614 384.58C399.918 383.078 396.224 381.577 392.795 379.55C387.33 376.318 382.647 371.775 379.25 366.41C379.183 366.304 379.116 366.198 379.048 366.09ZM392.793 368.527L392.915 368.798C393.454 370.044 393.827 371.61 392.816 372.454C392.01 373.126 390.789 372.87 389.838 372.423C387.784 371.459 386.085 369.755 385.127 367.698C386.326 367.46 387.451 366.857 388.312 365.989C389.027 365.268 390.293 365.414 391.1 366.031C391.906 366.649 392.364 367.606 392.793 368.527ZM392.141 371.475C393.176 369.617 391.064 366.876 390.033 366.698C389.584 366.62 389.121 367.065 388.624 367.542C388.113 368.032 387.566 368.556 386.962 368.587C386.962 368.587 391.105 373.334 392.141 371.475ZM444.348 376.819C469.484 375.993 494.023 363.748 509.796 344.16C510.613 343.147 512.229 343.129 513.364 343.766C514.499 344.403 515.266 345.523 515.992 346.604C516.783 346.488 516.806 345.26 516.261 344.676C515.993 344.387 515.655 344.178 515.318 343.968C514.971 343.753 514.624 343.538 514.352 343.237C513.254 342.022 513.841 340.108 514.484 338.601L517.352 331.886C517.736 330.987 518.337 329.937 519.315 329.951C520.031 329.961 520.582 330.559 521.036 331.112C525.984 337.141 530.575 343.464 534.776 350.036C532.186 350.437 529.697 349.162 527.241 347.903C524.498 346.497 521.797 345.113 519.045 346.111C516.648 346.98 515.236 349.393 513.967 351.605C509.815 358.838 505.059 365.805 499.034 371.573C485.044 384.968 465.52 390.765 446.501 394.431C458.266 398.884 471.225 400.133 483.624 398.009C490.719 396.794 497.794 394.399 503.324 389.791C505.563 387.924 507.506 385.733 509.439 383.551L523.681 367.474C524.515 366.533 526.054 367.436 526.831 368.425C527.608 369.414 528.662 370.647 529.847 370.225C528.999 368.326 527.527 366.712 525.713 365.693C525.606 363.425 525.538 360.996 526.744 359.073C527.949 357.149 530.955 356.212 532.519 357.857C537.648 363.252 542.562 368.851 547.247 374.636C544.498 375.069 541.886 373.886 539.294 372.711L539.292 372.711C538.492 372.348 537.693 371.986 536.892 371.673C533.5 370.346 528.744 370.375 527.197 373.672C522.966 382.692 518.57 391.942 511.307 398.762C499.177 410.151 481.455 412.722 464.922 414.597C457.59 415.428 450.058 416.217 442.919 414.35C437.723 412.991 432.995 410.288 428.337 407.613L424.641 405.491C423.553 405.764 424.426 407.413 425.393 407.982C431.581 411.631 437.96 415.351 445.056 416.469C446.864 416.754 448.696 416.865 450.525 416.934C467.366 417.566 484.333 414.612 499.969 408.324C506.49 405.702 513.126 402.196 516.707 396.149L529.326 374.838C529.809 374.022 530.341 373.16 531.198 372.755C532.243 372.261 533.472 372.576 534.581 372.898L546.41 376.334C547.618 376.685 548.741 375.268 548.615 374.015C548.49 372.763 547.585 371.748 546.726 370.828L535.818 359.153C534.379 357.612 532.832 356.005 530.8 355.444C528.768 354.883 526.155 355.871 525.758 357.941C524.584 364.052 520.41 369.088 516.381 373.831C510.144 381.171 503.652 388.714 494.996 392.938C482.584 398.995 467.916 397.235 454.326 394.775L463.138 392.208C467.5 390.937 471.869 389.664 476.098 388.003C492.501 381.557 506.473 369.12 514.777 353.574C516.218 350.876 517.913 347.757 520.924 347.215C523.398 346.77 525.508 348.231 527.664 349.725C528.946 350.613 530.245 351.512 531.647 352.029C533.715 352.793 536.923 351.707 536.437 349.557C536.327 349.071 536.032 348.651 535.744 348.244L524.523 332.425C522.967 330.23 520.634 327.751 518.072 328.575C516.014 329.237 515.242 331.613 514.561 333.708C514.52 333.834 514.48 333.959 514.439 334.082C511.245 343.814 502.657 350.613 494.506 356.816C490.939 359.53 487.364 362.251 483.515 364.547C472.273 371.254 459.089 374.094 446.025 374.942C442.334 375.182 440.015 378.644 437.892 381.814L437.891 381.814L437.891 381.814C437.639 382.191 437.389 382.563 437.141 382.926C433.505 388.224 428.327 392.45 422.408 394.952C423.398 396.046 425.202 395.39 426.453 394.608C432.392 390.896 437.43 385.754 441.019 379.74C441.81 378.413 442.804 376.87 444.348 376.819ZM365.484 320.037C364.906 321.302 363.618 322.214 362.232 322.337C360.846 322.46 359.417 321.79 358.625 320.647C358.334 320.226 358.336 319.405 358.846 319.45C359.906 320.857 362.116 321.221 363.571 320.228C364.201 319.797 365.294 319.297 365.484 320.037ZM354.343 310.838C354.469 309.778 355.362 308.857 356.418 308.699C357.474 308.542 358.598 309.162 359.028 310.139C358.256 310.139 357.738 310 357.307 309.883C356.431 309.647 355.913 309.507 354.343 310.838ZM362.527 316.744L361.325 317.259L361.256 317.219C360.944 317.813 360.027 317.141 359.956 316.475C359.942 316.337 359.935 316.191 359.928 316.044C359.901 315.479 359.873 314.892 359.406 314.638C358.823 315.479 358.556 316.584 358.895 317.549C359.235 318.515 360.267 319.247 361.274 319.065C362.281 318.883 363.004 317.649 362.527 316.744ZM363.969 308.552C365.489 308.675 365.894 308.757 366.313 309.756C366.395 309.953 365.746 309.768 365.127 309.591L365.126 309.591L365.125 309.591L365.125 309.591C364.67 309.461 364.232 309.336 364.114 309.371C359.028 310.879 362.45 308.43 363.969 308.552ZM363.54 311.18C364.38 311.845 364.136 314.497 362.897 313.998C362.378 313.789 361.757 309.766 363.54 311.18ZM403.744 382.192C403.344 381.693 403.798 380.801 404.438 380.833C404.72 381.016 404.912 381.332 404.945 381.667C404.703 382.061 404.201 382.276 403.748 382.181L403.744 382.192ZM392.323 377.023L393.196 376.89L393.266 376.865C393.57 376.298 392.578 375.651 392.181 376.157C392.095 376.447 392.148 376.776 392.323 377.023ZM398.541 380.468C398.035 380.605 397.966 379.735 398.251 379.295L399.46 379.845C399.274 380.172 398.928 380.402 398.555 380.449L398.541 380.468ZM383.444 367.796C383.31 367.464 382.829 367.337 382.549 367.559L382.625 367.636C382.383 367.953 382.576 368.494 382.963 368.587C383.32 368.553 383.578 368.127 383.444 367.796ZM356.884 314.06C356.398 314.06 355.888 313.584 355.914 312.757C355.939 311.93 356.164 311.166 356.884 311.572C357.605 311.978 357.386 314.06 356.884 314.06ZM130.211 213.585C130.504 213.97 131.173 213.801 131.431 213.391C131.689 212.982 131.657 212.46 131.61 211.978C130.936 205.01 129.127 198.153 126.277 191.758C125.466 189.937 124.612 187.666 125.855 186.106C128.728 193.286 131.625 200.556 132.671 208.218C132.957 210.31 133.059 212.6 131.893 214.359C130.727 216.119 127.822 216.793 126.527 215.127C128.519 214.711 130.044 212.693 129.9 210.663C130.82 211.29 130.978 212.778 130.211 213.585ZM153.432 351.945C163.856 351.373 175.933 349.868 181.401 340.975C182.818 338.669 182.516 335.043 182.267 332.055V332.055C182.067 329.655 181.901 327.666 182.689 327.105C184.458 325.844 185.873 329.096 185.873 329.096C185.925 328.881 185.985 328.614 186.052 328.314C186.546 326.098 187.455 322.016 188.885 322.783C189.473 323.098 189.271 325.082 189.132 326.446C189.099 326.766 189.07 327.052 189.055 327.274C189.022 327.484 189.017 327.661 189.042 327.785C189.062 327.777 189.083 327.766 189.105 327.751C189.111 327.75 189.118 327.747 189.125 327.742C189.131 327.738 189.137 327.733 189.143 327.727C189.148 327.722 189.154 327.716 189.159 327.709C189.391 327.514 189.707 327.032 190.06 326.495C190.789 325.384 191.672 324.04 192.264 324.534C193.193 325.31 189.89 330.262 189.89 330.262C189.89 330.262 193.813 325.951 194.144 327.785C194.474 329.62 185.541 346.19 177.477 352.688C169.412 359.187 158.049 362.825 147.775 361.522C148.004 357.447 149.357 352.169 153.432 351.945ZM189.159 327.709C189.141 327.725 189.122 327.739 189.105 327.751C189.042 327.761 189.035 327.577 189.055 327.274C189.131 326.794 189.355 326.137 189.713 325.51C189.645 325.725 189.577 325.934 189.514 326.13C189.227 327.008 189.02 327.644 189.235 327.594C189.206 327.645 189.181 327.683 189.159 327.709ZM191.101 323.97C190.523 324.335 190.057 324.909 189.713 325.51C190.248 323.815 190.79 321.677 189.473 321.506C187.239 321.216 185.055 324.852 185.443 326.784C184.823 325.245 182.243 325.911 181.618 327.448C181.138 328.628 181.342 329.919 181.545 331.202C181.606 331.591 181.667 331.979 181.709 332.362C182.381 338.492 177.785 344.221 172.215 346.864C166.962 349.356 161.001 349.707 155.171 349.887L153.811 349.927C150.483 350.014 146.878 349.938 144.338 347.813C141.721 345.624 141.724 340.429 145.01 339.511C153.353 337.181 159.717 329.052 159.976 320.394C160.052 317.835 161.712 315.706 163.316 313.648C163.46 313.463 163.603 313.279 163.745 313.095L164.098 312.634C165.893 310.252 167.369 306.971 165.861 304.398C163.526 307.395 159.151 308.603 155.608 307.23C154.13 306.657 152.821 305.699 151.519 304.748C149.777 303.474 148.049 302.211 145.95 301.895C141.846 301.277 137.775 305.432 138.477 309.523C137.366 308.59 135.642 310.002 135.522 311.447C135.451 312.297 135.674 313.123 135.899 313.954L135.899 313.954C136.056 314.536 136.214 315.12 136.271 315.716C136.338 316.409 136.267 317.102 136.196 317.796V317.797V317.797C136.148 318.266 136.1 318.736 136.094 319.206C136.064 321.641 137.149 323.894 138.217 326.114L138.353 326.395C138.415 326.525 138.478 326.655 138.539 326.785L138.825 327.394C140.042 330.031 140.944 333.17 139.648 335.769C138.351 338.368 133.938 339.183 132.688 336.561C126.561 323.712 112.673 314.963 98.4375 314.985C81.9555 315.01 67.126 325.871 57.4127 339.187C56.2013 340.848 55.0156 342.637 54.7516 344.676C54.4876 346.714 55.4336 349.054 57.3728 349.736C59.3121 350.418 61.8267 348.51 61.1948 346.554C62.1787 347.703 64.1909 346.617 64.6544 345.177C64.9148 344.368 64.9116 343.515 64.9084 342.659C64.906 341.992 64.9035 341.322 65.026 340.671C65.6268 337.478 68.9114 335.634 71.8677 334.285L72.4639 334.014C79.4275 330.863 86.6827 328.05 94.2996 327.515C102.134 326.964 110.494 329.142 115.878 334.86C108.532 336.603 104.266 343.974 100.865 350.783L100.393 351.732C96.9595 358.627 92.4623 366.15 84.9327 367.611C85.2189 369.097 86.5305 370.326 88.0315 370.515L60.4279 386.926L62.5455 389.552C55.8246 399.853 48.2234 409.579 39.8517 418.589C35.3001 423.488 29.3898 428.565 22.8006 427.425C21.6091 427.218 20.4539 426.809 19.3027 426.402C17.6169 425.805 15.9398 425.211 14.1698 425.261C11.1911 425.346 8.20189 428.97 10.2238 431.159C14.7016 436.007 19.8123 440.269 25.3851 443.804L25.5294 443.895C26.2078 444.317 26.954 444.712 27.7406 444.622C28.5359 444.531 29.1833 443.965 29.7748 443.426L67.1592 409.339C70.221 406.57 73.5904 403.799 77.6691 403.392L78.0132 403.351C81.0299 402.931 83.5149 401.024 86.0072 399.111L86.0076 399.111C87.0926 398.278 88.1789 397.444 89.3111 396.732C93.1423 394.321 99.4973 394.073 100.987 398.348C101.779 400.619 100.743 402.93 99.7212 405.207C99.4168 405.886 99.1137 406.561 98.8608 407.232C97.7589 410.154 98.6618 414.648 101.784 414.592L119.255 414.283C119.883 414.277 120.544 414.312 121.033 414.696C121.544 415.098 121.723 415.767 121.821 416.423L121.862 416.723C122.519 422.075 122.429 427.517 121.593 432.844C120.687 438.616 118.276 444.965 112.83 447.081C109.395 448.416 105.569 447.723 101.95 446.894L79.9661 441.759C79.9294 439.097 82.3379 436.929 84.9054 436.224C87.0824 435.626 89.3689 435.808 91.6334 435.989C91.7726 436 91.9116 436.011 92.0505 436.022L92.8491 436.081C98.4129 436.464 104.038 435.947 109.438 434.557L101.645 415.054C102.44 421.529 104.191 427.885 106.825 433.853L81.2055 434.684C78.9748 434.747 76.498 434.648 74.9984 433.02C74.6134 432.602 74.2926 432.088 73.9747 431.578C73.3217 430.532 72.681 429.505 71.5217 429.37C70.52 429.254 69.6126 429.924 68.8454 430.578C63.8367 434.85 59.6779 440.115 56.6816 445.977C57.7618 448.652 61.341 449.4 64.1215 448.632C65.7481 448.183 67.2327 447.374 68.7202 446.564L68.721 446.563C69.7761 445.988 70.8325 445.413 71.9421 444.964C78.135 442.461 84.9431 444.158 91.4831 446.127L95.3679 447.31C103.045 449.616 112.405 450.798 118.158 445.217C121.553 441.923 122.789 437.022 123.461 432.34C125.401 418.829 123.829 404.829 118.94 392.086C124.391 389.983 126.963 383.886 128.962 378.397L132.878 367.647C134.186 364.056 137.159 359.649 140.697 361.095C150.811 365.232 162.757 363.483 172.173 357.939C181.589 352.395 188.638 343.414 193.386 333.572L193.513 333.306C194.442 331.35 195.626 326.787 194.568 326.281C194.174 325.972 193.472 326.486 192.993 326.836L192.993 326.836L192.993 326.836C192.734 327.026 192.541 327.167 192.497 327.105C192.47 327.067 192.557 326.814 192.68 326.456L192.68 326.456C193.163 325.047 194.207 322.005 191.101 323.97ZM124.172 384.313C122.948 387.064 120.924 390.302 117.935 389.937C116.335 389.741 115.126 388.533 114.039 387.292L113.456 386.617C107.14 379.286 98.5598 374.412 89.936 369.927L87.0628 368.443C94.0875 367.061 98.4209 360.113 101.515 353.657L102.501 351.6C105.331 345.734 108.55 339.698 114.386 337.058C115.193 336.693 116.118 336.402 116.95 336.705C117.076 336.751 117.212 336.803 117.354 336.858C118.381 337.253 119.704 337.761 119.683 336.788C117.81 336.034 117.502 333.302 118.582 331.597C119.569 330.039 121.277 329.14 122.968 328.366L123.451 328.148C122.372 326.66 120.033 327.911 118.811 329.284L118.711 329.395C117.485 330.741 115.603 332.213 114.188 331.12C108.34 326.602 100.547 325.151 93.1915 325.861C85.836 326.57 78.8183 329.26 72.0986 332.334C69.6358 333.461 67.1343 334.69 65.3065 336.688C63.8927 338.234 63.7461 340.293 63.5988 342.361C63.5557 342.967 63.5126 343.573 63.4375 344.168C63.256 345.606 62.4649 345.661 61.7681 345.71C61.3946 345.735 61.0482 345.76 60.8372 345.994C60.8203 346.012 60.7661 346.096 60.6845 346.221L60.6836 346.222L60.6835 346.223C60.2651 346.865 59.1329 348.604 58.6215 348.43C57.8705 348.176 58.2535 346.554 58.2535 346.554C58.2535 346.554 56.0247 347.191 55.8588 346.554C55.2784 344.325 58.6215 339.765 58.6215 339.765C64.2424 331.496 72.5779 324.635 81.7421 320.646C91.076 316.584 101.968 315.8 111.51 319.346C122.267 323.344 130.785 332.896 133.532 344.039C134.216 346.816 137.448 348.043 140.271 348.505C140.537 348.548 140.806 348.59 141.077 348.632C143.683 349.04 146.454 349.472 148.114 351.462C148.604 352.049 148.469 352.917 148.3 353.662L148.251 353.876C147.632 356.534 146.551 359.508 143.969 360.314C141.622 361.047 138.842 359.155 138.662 356.703C138.647 356.487 138.642 356.259 138.637 356.028C138.617 355.075 138.597 354.071 137.796 353.678L124.172 384.313ZM101.98 398.846C101.102 394.336 98.4352 390.28 94.9358 387.304C95.0724 389.076 95.8222 390.796 97.0282 392.102C91.0982 393.987 85.5061 396.929 80.5942 400.749C79.2795 401.772 77.0461 402.704 76.2761 401.228C73.2468 395.418 68.4244 390.559 62.6376 387.486L86.4281 373.814C87.5033 373.196 88.6406 372.561 89.8807 372.548C90.842 372.539 91.7552 372.907 92.6245 373.336L93.0554 373.554C101.958 378.139 109.927 384.528 116.34 392.22C117.928 394.124 118.667 396.563 119.295 398.975L122.125 410.031C122.313 410.763 122.45 411.67 121.876 412.162C121.554 412.439 121.099 412.486 120.675 412.519L120.179 412.557C113.134 413.099 107.451 413.537 100.393 412.519C99.34 410.5 100.136 407.998 100.957 405.414C101.662 403.2 102.385 400.926 101.98 398.846ZM66.5878 392.047C69.2274 394.372 71.6072 396.992 73.6684 399.842C73.8889 400.147 74.1157 400.487 74.0923 400.863C74.0649 401.301 73.7098 401.638 73.3794 401.927L42.6309 428.839C41.3488 429.961 39.3035 429.765 37.8674 428.848C36.6107 428.046 35.7122 426.816 34.8879 425.562L34.5383 425.024C42.5519 420.813 47.6923 413.269 52.8785 405.657C56.1316 400.883 59.4026 396.082 63.4119 392.061C63.8016 391.671 64.2412 391.266 64.7897 391.204C65.4681 391.128 66.0754 391.596 66.5878 392.047ZM156.131 316.98L156.916 317.221C158.445 317.694 158.699 319.743 158.505 321.331C157.699 327.908 153.611 334.418 147.308 336.462L147.082 336.538C142.975 337.987 140.039 342.284 140.214 346.643C137.457 347.159 134.501 344.954 134.211 342.164C134.154 341.607 134.318 340.885 134.871 340.8C137.376 340.415 139.68 338.878 140.997 336.713C142.314 334.548 142.619 331.795 141.808 329.394C141.643 328.903 141.433 328.412 141.222 327.921L141.222 327.92L141.222 327.92C140.623 326.522 140.021 325.119 140.442 323.709C141.402 323.798 141.584 325.114 141.483 326.073L141.472 326.19C141.394 327.135 141.561 328.347 142.478 328.473C143.083 327.086 143.208 325.532 143.333 323.99C143.49 322.043 143.646 320.115 144.763 318.563C146.039 316.79 148.329 315.975 150.514 315.949C152.426 315.927 154.295 316.423 156.131 316.98ZM17.9741 427.868L18.1713 427.641C19.2717 427.4 20.3226 428.809 19.7776 429.795C19.4279 430.428 20.5033 431.054 21.1037 430.651C21.7041 430.249 21.8252 429.431 21.8912 428.712C22.4953 428.522 23.0178 429.214 23.1318 429.837C23.162 430.002 23.1807 430.172 23.1994 430.342C23.2515 430.816 23.3037 431.292 23.6029 431.648C24.0096 432.133 25.0872 431.883 24.9105 431.275C24.6468 430.368 25.7179 429.628 26.6527 429.494C26.8775 429.462 27.1095 429.443 27.3422 429.424C28.0773 429.364 28.8184 429.303 29.3535 428.825L29.4342 428.761C30.1133 428.279 30.9542 429.17 31.4668 429.962L31.7052 430.346C32.8322 432.097 34.748 433.324 36.8134 433.605C37.2181 433.659 37.0122 434.291 36.7149 434.571L29.7443 441.135C29.4064 441.453 28.8588 441.227 28.463 440.985C24.3254 438.451 20.5057 435.399 17.1218 431.922C16.0557 430.827 16.9598 429.08 17.9741 427.868ZM78.9328 440.086C78.7318 440.914 78.1603 441.84 77.3107 441.778C75.2632 441.626 73.187 441.873 71.2321 442.5C71.4114 441.667 71.0468 440.742 70.3467 440.255C69.8358 440.986 70.0447 442.118 70.7826 442.618L68.8336 444.544L67.9007 442.4C67.4406 442.522 67.4271 443.087 67.4589 443.604L67.4816 443.926C67.575 445.283 66.4237 446.603 65.0663 446.694C63.7089 446.786 62.3909 445.633 62.3011 444.275C62.2033 442.796 63.3359 441.556 64.3889 440.513L71.8659 433.109C72.0249 432.958 72.207 432.817 72.4217 432.821C72.6589 432.825 72.8512 433.005 73.0182 433.174L75.9358 436.118C76.5016 436.689 76.1441 437.563 75.7956 438.414C75.4369 439.29 75.0878 440.143 75.7652 440.618C76.4248 440.657 76.9739 440.084 77.2275 439.474C77.3568 439.163 77.4354 438.835 77.514 438.506C77.5895 438.191 77.665 437.875 77.7854 437.575C78.0313 436.961 78.562 436.378 79.2226 436.392C79.8831 436.406 80.3928 437.35 79.882 437.769C79.3374 438.215 79.1818 438.942 79.0307 439.648C78.999 439.796 78.9676 439.943 78.9328 440.086ZM27.8108 443.36C21.0903 439.765 15.1497 434.721 10.5128 428.672C11.1209 428.095 12.0353 428.708 12.6233 429.361L12.7689 429.531C17.1747 434.983 22.7077 439.52 28.9173 442.772C28.8669 443.262 28.2454 443.592 27.8108 443.36ZM60.0418 441.983C62.953 438.176 66.1785 434.609 69.6749 431.331C70.2169 430.822 71.3426 430.48 71.4797 431.21C67.4093 435.095 63.5162 439.167 59.8166 443.407C59.4146 443.058 59.7185 442.406 60.0418 441.983ZM37.6839 432.464C35.6525 431.741 33.8414 430.411 32.5439 428.689C32.0556 428.041 31.7477 426.915 32.4875 426.582C33.0721 426.319 33.6338 426.872 34.0416 427.408L34.3473 427.824C35.6614 429.558 37.5357 430.862 39.6202 431.485C39.6239 432.042 39.1635 432.563 38.6111 432.628C38.2965 432.665 37.9823 432.57 37.6839 432.464ZM137.373 319.794C138.328 319.817 139.137 320.812 138.963 321.751L138.986 321.765C139.118 322.446 139.031 323.167 138.741 323.798C137.696 322.774 137.174 321.243 137.373 319.794ZM155.567 319.817C155.626 319.812 155.687 319.807 155.749 319.802C155.813 319.798 155.878 319.795 155.943 319.794C156.104 319.792 156.29 319.821 156.465 319.848C156.938 319.921 157.334 319.982 156.96 319.397C156.448 318.595 154.949 318.505 154.703 319.425C154.772 319.887 155.129 319.856 155.567 319.817ZM156.774 323.783L156.795 323.7C157.16 322.32 156.949 321.23 155.943 321.23C155.555 321.26 154.962 323.236 155.019 323.835C155.075 324.434 155.751 324.989 156.274 324.691C156.584 324.515 156.683 324.131 156.774 323.783ZM150.139 323.364C149.438 322.39 149.365 321.003 149.959 319.961C150.047 319.805 150.155 319.652 150.31 319.563C150.703 319.338 151.23 319.643 151.403 320.062C151.576 320.481 151.501 320.956 151.422 321.403C151.422 321.403 150.84 324.338 150.139 323.364ZM298.671 323.392C285.862 320.25 272.481 319.455 259.391 321.062C261.663 315.768 262.66 309.933 262.275 304.186C258.864 306.576 253.263 303.772 253.134 299.608C253.005 295.445 258.421 292.298 261.973 294.473C262.915 295.049 263.95 293.854 264.327 292.816C265.61 289.28 265.622 285.299 264.362 281.755C263.871 280.374 265.954 279.626 267.419 279.655L279.849 279.901C280.684 279.917 281.57 279.921 282.283 279.486C282.996 279.052 283.401 278.006 282.877 277.356C280.726 274.687 283.198 269.91 286.619 270.125C290.041 270.34 291.896 275.389 289.428 277.768C288.967 278.211 289.862 278.783 290.501 278.797L306.755 279.171C309.987 279.246 312.271 282.69 312.403 285.92C312.515 288.654 311.544 291.273 310.585 293.859C310.502 294.085 310.418 294.31 310.335 294.535L310.07 295.266C307.191 303.344 306.265 312.11 307.391 320.611C307.611 322.27 306.084 323.745 304.45 324.104C303.008 324.421 301.524 324.107 300.08 323.746L298.671 323.392Z" fill="#00160A"/>
<path fill-rule="evenodd" clip-rule="evenodd" d="M125.426 174.625C125.544 173.859 126.565 173.417 127.303 173.68C128.041 173.942 128.7 175.001 128.159 175.599C127.303 176.547 125.196 176.112 125.426 174.625Z" fill="#FFB61D"/>
<path fill-rule="evenodd" clip-rule="evenodd" d="M446.624 373.01C446.142 373.414 445.174 373.561 445.085 372.938C446.967 371.022 448.262 368.537 448.754 365.896C449.368 365.732 449.546 366.711 449.392 367.328C448.872 369.408 448.266 371.631 446.624 373.01Z" fill="#00160A"/>
<path d="M31.0128 144.807C30.9937 145.424 30.0571 145.388 29.4907 145.142C29.6946 144.591 30.5211 144.406 30.9398 144.818L31.0128 144.807Z" fill="black"/>
<path fill-rule="evenodd" clip-rule="evenodd" d="M298.289 314.437C297.637 315.018 296.539 314.13 296.636 313.262C296.733 312.394 297.502 311.773 298.239 311.305C300.884 309.63 303.946 308.62 307.069 308.394C307.153 309.585 305.609 310.077 304.437 310.305C301.952 310.79 299.584 311.867 297.585 313.422C297.946 313.643 298.208 314.021 298.289 314.437V314.437Z" fill="#00160A"/>
<path fill-rule="evenodd" clip-rule="evenodd" d="M307.157 315.956C305.692 316.662 304.201 317.316 302.688 317.914C302.86 318.552 303.777 318.531 304.399 318.306C305.021 318.082 305.839 317.846 306.242 318.37C305.219 319.931 302.684 320.175 301.383 318.837C300.817 318.255 299.793 318.638 299.062 318.285C298.016 317.78 298.211 316.201 298.827 315.216C300.112 313.16 302.563 311.893 304.984 312.032C305.906 312.084 307.007 312.54 307.068 313.461C304.177 313.279 301.23 314.471 299.278 316.611C300.387 317.47 301.977 316.829 303.228 316.195C304.478 315.562 306.13 315.002 307.157 315.956Z" fill="#00160A"/>
<path fill-rule="evenodd" clip-rule="evenodd" d="M153.26 324.156C154.089 324.986 154.434 325.366 154.434 326.588C154.434 327.809 153.771 328.592 152.653 328.951C152.138 329.116 151.425 328.99 151.291 328.465C155.016 327.704 153.647 326.08 153.26 324.156Z" fill="#00160A"/>
<path fill-rule="evenodd" clip-rule="evenodd" d="M148.29 318.962C148.687 317.644 150.416 316.932 151.626 317.587C152.105 317.847 152.503 318.319 152.528 318.863C151.115 318.896 149.952 317.982 148.29 318.962Z" fill="#00160A"/>
<path fill-rule="evenodd" clip-rule="evenodd" d="M151.672 330.732C143.792 326.358 149.961 331.963 151.672 330.732V330.732Z" fill="#00160A"/>
</svg>
